SplineFontDB: 3.2
FontName: kannada5m
FullName: kannada5m
FamilyName: kannada5m
Weight: Book
Copyright: Copyright 2022 The Noto Project Authors (https://github.com/notofonts/kannada)
Version: 2.003
ItalicAngle: 0
UnderlinePosition: -125
UnderlineWidth: 50
Ascent: 800
Descent: 200
InvalidEm: 0
sfntRevision: 0x000200c5
LayerCount: 2
Layer: 0 1 "Back" 1
Layer: 1 1 "Fore" 0
XUID: [1021 467 -1121320856 6045849]
StyleMap: 0x0040
FSType: 0
OS2Version: 4
OS2_WeightWidthSlopeOnly: 0
OS2_UseTypoMetrics: 1
CreationTime: 1528877849
ModificationTime: 1716720811
PfmFamily: 81
TTFWeight: 400
TTFWidth: 5
LineGap: 0
VLineGap: 0
Panose: 0 0 0 0 0 0 0 0 0 0
OS2TypoAscent: 809
OS2TypoAOffset: 0
OS2TypoDescent: -540
OS2TypoDOffset: 0
OS2TypoLinegap: 0
OS2WinAscent: 809
OS2WinAOffset: 0
OS2WinDescent: 540
OS2WinDOffset: 0
HheadAscent: 809
HheadAOffset: 0
HheadDescent: -540
HheadDOffset: 0
OS2SubXSize: 650
OS2SubYSize: 600
OS2SubXOff: 0
OS2SubYOff: 75
OS2SupXSize: 650
OS2SupYSize: 600
OS2SupXOff: 0
OS2SupYOff: 350
OS2StrikeYSize: 50
OS2StrikeYPos: 331
OS2CapHeight: 690
OS2XHeight: 551
OS2Vendor: 'GOOG'
OS2CodePages: 00000093.00000000
OS2UnicodeRanges: 80408003.00002042.00000000.00000000
Lookup: 2 0 0 "Multiple Substitution lookup 0" { "Multiple Substitution lookup 0 subtable"  } []
Lookup: 1 0 0 "Single Substitution lookup 1" { "Single Substitution lookup 1 subtable"  } []
Lookup: 1 0 0 "Single Substitution lookup 2" { "Single Substitution lookup 2 subtable"  } []
Lookup: 1 0 0 "Single Substitution lookup 3" { "Single Substitution lookup 3 subtable"  } []
Lookup: 1 0 0 "Single Substitution lookup 4" { "Single Substitution lookup 4 subtable"  } []
Lookup: 1 0 0 "Single Substitution lookup 5" { "Single Substitution lookup 5 subtable"  } []
Lookup: 1 0 0 "Single Substitution lookup 6" { "Single Substitution lookup 6 subtable"  } []
Lookup: 1 0 0 "Single Substitution lookup 7" { "Single Substitution lookup 7 subtable"  } []

StartChar: exclam.knda
Encoding: 33 33 3
Width: 1336
Flags: W
LayerCount: 2
Fore
SplineSet
697 196 m 1,0,-1
 640 196 l 1,1,-1
 615 696 l 1,2,-1
 722 696 l 1,3,-1
 697 196 l 1,0,-1
606 56 m 0,4,5
 606 93 606 93 624 108 c 128,-1,6
 642 123 642 123 668 123 c 0,7,8
 693 123 693 123 711.5 108 c 128,-1,9
 730 93 730 93 730 56 c 0,10,11
 730 20 730 20 711.5 4 c 128,-1,12
 693 -12 693 -12 668 -12 c 0,13,14
 642 -12 642 -12 624 4 c 128,-1,15
 606 20 606 20 606 56 c 0,4,5
EndSplineSet
EndChar

StartChar: quotedbl.knda
Encoding: 34 34 4
Width: 1336
Flags: W
LayerCount: 2
Fore
SplineSet
549 536 m 1,0,-1
 529 793 l 1,1,-1
 624 793 l 1,2,-1
 604 536 l 1,3,-1
 549 536 l 1,0,-1
732 536 m 1,4,-1
 712 793 l 1,5,-1
 807 793 l 1,6,-1
 787 536 l 1,7,-1
 732 536 l 1,4,-1
EndSplineSet
EndChar

StartChar: numbersign.knda
Encoding: 35 35 5
Width: 1336
Flags: W
LayerCount: 2
Fore
SplineSet
458.5 0 m 1,0,-1
 498.5 202 l 1,1,-1
 370.5 202 l 1,2,-1
 370.5 269 l 1,3,-1
 511.5 269 l 1,4,-1
 541.5 421 l 1,5,-1
 407.5 421 l 1,6,-1
 407.5 487 l 1,7,-1
 553.5 487 l 1,8,-1
 593.5 690 l 1,9,-1
 665.5 690 l 1,10,-1
 623.5 487 l 1,11,-1
 768.5 487 l 1,12,-1
 809.5 690 l 1,13,-1
 878.5 690 l 1,14,-1
 836.5 487 l 1,15,-1
 965.5 487 l 1,16,-1
 965.5 421 l 1,17,-1
 824.5 421 l 1,18,-1
 793.5 269 l 1,19,-1
 931.5 269 l 1,20,-1
 931.5 202 l 1,21,-1
 780.5 202 l 1,22,-1
 740.5 0 l 1,23,-1
 669.5 0 l 1,24,-1
 711.5 202 l 1,25,-1
 568.5 202 l 1,26,-1
 528.5 0 l 1,27,-1
 458.5 0 l 1,0,-1
580.5 269 m 1,28,-1
 723.5 269 l 1,29,-1
 755.5 421 l 1,30,-1
 612.5 421 l 1,31,-1
 580.5 269 l 1,28,-1
EndSplineSet
EndChar

StartChar: percent.knda
Encoding: 37 37 6
Width: 1336
Flags: W
LayerCount: 2
Fore
SplineSet
431.5 0 m 1,0,-1
 827.5 690 l 1,1,-1
 904.5 690 l 1,2,-1
 508.5 0 l 1,3,-1
 431.5 0 l 1,0,-1
447.5 276 m 0,4,5
 376.5 276 376.5 276 339 333 c 128,-1,6
 301.5 390 301.5 390 301.5 490 c 0,7,8
 301.5 591 301.5 591 336.5 646.5 c 128,-1,9
 371.5 702 371.5 702 447.5 702 c 0,10,11
 521.5 702 521.5 702 559.5 646.5 c 128,-1,12
 597.5 591 597.5 591 597.5 490 c 0,13,14
 597.5 390 597.5 390 561 333 c 128,-1,15
 524.5 276 524.5 276 447.5 276 c 0,4,5
447.5 339 m 0,16,17
 486.5 339 486.5 339 505.5 376.5 c 128,-1,18
 524.5 414 524.5 414 524.5 490 c 0,19,20
 524.5 565 524.5 565 505.5 602.5 c 128,-1,21
 486.5 640 486.5 640 447.5 640 c 0,22,23
 409.5 640 409.5 640 392 602.5 c 128,-1,24
 374.5 565 374.5 565 374.5 490 c 256,25,26
 374.5 415 374.5 415 392 377 c 128,-1,27
 409.5 339 409.5 339 447.5 339 c 0,16,17
884.5 -12 m 0,28,29
 813.5 -12 813.5 -12 776 45 c 128,-1,30
 738.5 102 738.5 102 738.5 202 c 0,31,32
 738.5 303 738.5 303 773.5 358.5 c 128,-1,33
 808.5 414 808.5 414 884.5 414 c 0,34,35
 957.5 414 957.5 414 996 358.5 c 128,-1,36
 1034.5 303 1034.5 303 1034.5 202 c 0,37,38
 1034.5 102 1034.5 102 998 45 c 128,-1,39
 961.5 -12 961.5 -12 884.5 -12 c 0,28,29
884.5 51 m 0,40,41
 923.5 51 923.5 51 942.5 88.5 c 128,-1,42
 961.5 126 961.5 126 961.5 202 c 0,43,44
 961.5 276 961.5 276 942.5 313.5 c 128,-1,45
 923.5 351 923.5 351 884.5 351 c 0,46,47
 846.5 351 846.5 351 829 313.5 c 128,-1,48
 811.5 276 811.5 276 811.5 202 c 0,49,50
 811.5 126 811.5 126 829 88.5 c 128,-1,51
 846.5 51 846.5 51 884.5 51 c 0,40,41
EndSplineSet
EndChar

StartChar: quotesingle.knda
Encoding: 39 39 7
Width: 1336
Flags: W
LayerCount: 2
Fore
SplineSet
640.5 536 m 1,0,-1
 620.5 793 l 1,1,-1
 715.5 793 l 1,2,-1
 695.5 536 l 1,3,-1
 640.5 536 l 1,0,-1
EndSplineSet
EndChar

StartChar: parenleft.knda
Encoding: 40 40 8
Width: 1336
Flags: W
LayerCount: 2
Fore
SplineSet
533.5 218 m 0,0,1
 533.5 325 533.5 325 553.5 426.5 c 128,-1,2
 573.5 528 573.5 528 614.5 620.5 c 128,-1,3
 655.5 713 655.5 713 716.5 793 c 1,4,-1
 801.5 793 l 1,5,6
 740.5 702 740.5 702 701 608.5 c 128,-1,7
 661.5 515 661.5 515 642 417.5 c 128,-1,8
 622.5 320 622.5 320 622.5 217 c 0,9,10
 622.5 59 622.5 59 665.5 -84.5 c 128,-1,11
 708.5 -228 708.5 -228 802.5 -368 c 1,12,-1
 716.5 -368 l 1,13,14
 623.5 -248 623.5 -248 578.5 -96.5 c 128,-1,15
 533.5 55 533.5 55 533.5 218 c 0,0,1
EndSplineSet
EndChar

StartChar: parenright.knda
Encoding: 41 41 9
Width: 1336
Flags: W
LayerCount: 2
Fore
SplineSet
802.5 207 m 0,0,1
 802.5 100 802.5 100 782 -1.5 c 128,-1,2
 761.5 -103 761.5 -103 721 -195.5 c 128,-1,3
 680.5 -288 680.5 -288 618.5 -368 c 1,4,-1
 534.5 -368 l 1,5,6
 595.5 -277 595.5 -277 635 -183.5 c 128,-1,7
 674.5 -90 674.5 -90 694 7.5 c 128,-1,8
 713.5 105 713.5 105 713.5 208 c 0,9,10
 713.5 366 713.5 366 670.5 509.5 c 128,-1,11
 627.5 653 627.5 653 533.5 793 c 1,12,-1
 618.5 793 l 1,13,14
 711.5 673 711.5 673 757 521.5 c 128,-1,15
 802.5 370 802.5 370 802.5 207 c 0,0,1
EndSplineSet
EndChar

StartChar: asterisk.knda
Encoding: 42 42 10
Width: 1336
Flags: W
LayerCount: 2
Fore
SplineSet
715.5 793 m 1,0,-1
 695.5 602 l 1,1,-1
 887.5 656 l 1,2,-1
 901.5 563 l 1,3,-1
 717.5 549 l 1,4,-1
 836.5 391 l 1,5,-1
 750.5 344 l 1,6,-1
 665.5 519 l 1,7,-1
 588.5 344 l 1,8,-1
 499.5 391 l 1,9,-1
 616.5 549 l 1,10,-1
 434.5 563 l 1,11,-1
 448.5 656 l 1,12,-1
 638.5 602 l 1,13,-1
 617.5 793 l 1,14,-1
 715.5 793 l 1,0,-1
EndSplineSet
EndChar

StartChar: plus.knda
Encoding: 43 43 11
Width: 1336
Flags: W
LayerCount: 2
Fore
SplineSet
632 101 m 1,0,-1
 632 307 l 1,1,-1
 433 307 l 1,2,-1
 433 378 l 1,3,-1
 632 378 l 1,4,-1
 632 585 l 1,5,-1
 704 585 l 1,6,-1
 704 378 l 1,7,-1
 903 378 l 1,8,-1
 903 307 l 1,9,-1
 704 307 l 1,10,-1
 704 101 l 1,11,-1
 632 101 l 1,0,-1
EndSplineSet
EndChar

StartChar: comma.knda
Encoding: 44 44 12
Width: 1336
Flags: W
LayerCount: 2
Fore
SplineSet
736.5 119 m 1,0,-1
 743.5 107 l 1,1,2
 734.5 72 734.5 72 720.5 31.5 c 128,-1,3
 706.5 -9 706.5 -9 690 -49.5 c 128,-1,4
 673.5 -90 673.5 -90 657.5 -126 c 1,5,-1
 592.5 -126 l 1,6,7
 602.5 -88 602.5 -88 612 -45 c 128,-1,8
 621.5 -2 621.5 -2 629.5 41 c 128,-1,9
 637.5 84 637.5 84 642.5 119 c 1,10,-1
 736.5 119 l 1,0,-1
EndSplineSet
EndChar

StartChar: hyphen.knda
Encoding: 45 45 13
Width: 1336
Flags: W
LayerCount: 2
Fore
SplineSet
547 244 m 1,0,-1
 547 322 l 1,1,-1
 789 322 l 1,2,-1
 789 244 l 1,3,-1
 547 244 l 1,0,-1
EndSplineSet
EndChar

StartChar: period.knda
Encoding: 46 46 14
Width: 1336
Flags: W
LayerCount: 2
Fore
SplineSet
606 57 m 0,0,1
 606 93 606 93 624 108.5 c 128,-1,2
 642 124 642 124 667 124 c 0,3,4
 693 124 693 124 711.5 108.5 c 128,-1,5
 730 93 730 93 730 57 c 0,6,7
 730 20 730 20 711.5 4 c 128,-1,8
 693 -12 693 -12 667 -12 c 0,9,10
 642 -12 642 -12 624 4 c 128,-1,11
 606 20 606 20 606 57 c 0,0,1
EndSplineSet
EndChar

StartChar: slash.knda
Encoding: 47 47 15
Width: 1336
Flags: W
LayerCount: 2
Fore
SplineSet
853.5 793 m 1,0,-1
 568.5 -368 l 1,1,-1
 482.5 -368 l 1,2,-1
 767.5 793 l 1,3,-1
 853.5 793 l 1,0,-1
EndSplineSet
EndChar

StartChar: zero.knda
Encoding: 48 48 16
Width: 1336
Flags: W
LayerCount: 2
Fore
SplineSet
905 345 m 0,0,1
 905 261 905 261 892 195 c 128,-1,2
 879 129 879 129 850.5 82.5 c 128,-1,3
 822 36 822 36 776.5 12 c 128,-1,4
 731 -12 731 -12 667 -12 c 0,5,6
 587 -12 587 -12 534.5 30.5 c 128,-1,7
 482 73 482 73 456.5 153 c 128,-1,8
 431 233 431 233 431 345 c 0,9,10
 431 458 431 458 454.5 537.5 c 128,-1,11
 478 617 478 617 530 659.5 c 128,-1,12
 582 702 582 702 667 702 c 0,13,14
 747 702 747 702 800 660 c 128,-1,15
 853 618 853 618 879 538 c 128,-1,16
 905 458 905 458 905 345 c 0,0,1
519 345 m 0,17,18
 519 251 519 251 533.5 188.5 c 128,-1,19
 548 126 548 126 580.5 94.5 c 128,-1,20
 613 63 613 63 667 63 c 256,21,22
 721 63 721 63 753.5 94 c 128,-1,23
 786 125 786 125 801 188 c 128,-1,24
 816 251 816 251 816 345 c 0,25,26
 816 440 816 440 801 502.5 c 128,-1,27
 786 565 786 565 753.5 596 c 128,-1,28
 721 627 721 627 667 627 c 256,29,30
 613 627 613 627 580.5 596 c 128,-1,31
 548 565 548 565 533.5 502.5 c 128,-1,32
 519 440 519 440 519 345 c 0,17,18
EndSplineSet
EndChar

StartChar: one.knda
Encoding: 49 49 17
Width: 1336
Flags: W
LayerCount: 2
Fore
SplineSet
801 0 m 1,0,-1
 715 0 l 1,1,-1
 715 482 l 2,2,3
 715 511 715 511 715.5 531.5 c 128,-1,4
 716 552 716 552 717 569 c 128,-1,5
 718 586 718 586 719 605 c 1,6,7
 703 589 703 589 690 578 c 128,-1,8
 677 567 677 567 657 550 c 2,9,-1
 581 488 l 1,10,-1
 535 547 l 1,11,-1
 728 697 l 1,12,-1
 801 697 l 1,13,-1
 801 0 l 1,0,-1
EndSplineSet
EndChar

StartChar: two.knda
Encoding: 50 50 18
Width: 1336
Flags: W
LayerCount: 2
Fore
SplineSet
904 0 m 1,0,-1
 432 0 l 1,1,-1
 432 73 l 1,2,-1
 597 234 l 2,3,4
 662 297 662 297 703.5 342.5 c 128,-1,5
 745 388 745 388 765 428 c 128,-1,6
 785 468 785 468 785 511 c 0,7,8
 785 549 785 549 770 575 c 128,-1,9
 755 601 755 601 727 614 c 128,-1,10
 699 627 699 627 659 627 c 0,11,12
 607 627 607 627 567.5 609 c 128,-1,13
 528 591 528 591 487 559 c 1,14,-1
 440 618 l 1,15,16
 468 642 468 642 501.5 661 c 128,-1,17
 535 680 535 680 574.5 691 c 128,-1,18
 614 702 614 702 660 702 c 0,19,20
 728 702 728 702 776 680 c 128,-1,21
 824 658 824 658 849.5 617 c 128,-1,22
 875 576 875 576 875 519 c 0,23,24
 875 464 875 464 855 417.5 c 128,-1,25
 835 371 835 371 798.5 327 c 128,-1,26
 762 283 762 283 711 233 c 2,27,-1
 556 84 l 1,28,-1
 556 80 l 1,29,-1
 904 80 l 1,30,-1
 904 0 l 1,0,-1
EndSplineSet
EndChar

StartChar: three.knda
Encoding: 51 51 19
Width: 1336
Flags: W
LayerCount: 2
Fore
SplineSet
881 530 m 0,0,1
 881 484 881 484 863 449.5 c 128,-1,2
 845 415 845 415 811.5 394 c 128,-1,3
 778 373 778 373 733 364 c 1,4,-1
 733 361 l 1,5,6
 819 351 819 351 861 307.5 c 128,-1,7
 903 264 903 264 903 196 c 0,8,9
 903 135 903 135 874 88 c 128,-1,10
 845 41 845 41 784.5 14.5 c 128,-1,11
 724 -12 724 -12 629 -12 c 0,12,13
 573 -12 573 -12 525 -3.5 c 128,-1,14
 477 5 477 5 433 27 c 1,15,-1
 433 109 l 1,16,17
 478 87 478 87 530 74.5 c 128,-1,18
 582 62 582 62 630 62 c 0,19,20
 726 62 726 62 768.5 98 c 128,-1,21
 811 134 811 134 811 198 c 0,22,23
 811 241 811 241 787.5 267.5 c 128,-1,24
 764 294 764 294 719 306.5 c 128,-1,25
 674 319 674 319 611 319 c 2,26,-1
 542 319 l 1,27,-1
 542 394 l 1,28,-1
 612 394 l 2,29,30
 671 394 671 394 710.5 410 c 128,-1,31
 750 426 750 426 770.5 455 c 128,-1,32
 791 484 791 484 791 523 c 0,33,34
 791 573 791 573 756 600.5 c 128,-1,35
 721 628 721 628 661 628 c 0,36,37
 603 628 603 628 562 611 c 128,-1,38
 521 594 521 594 481 568 c 1,39,-1
 437 628 l 1,40,41
 475 658 475 658 531.5 680 c 128,-1,42
 588 702 588 702 660 702 c 0,43,44
 772 702 772 702 826.5 653 c 128,-1,45
 881 604 881 604 881 530 c 0,0,1
EndSplineSet
EndChar

StartChar: four.knda
Encoding: 52 52 20
Width: 1336
Flags: W
LayerCount: 2
Fore
SplineSet
933.5 157 m 1,0,-1
 829.5 157 l 1,1,-1
 829.5 0 l 1,2,-1
 744.5 0 l 1,3,-1
 744.5 157 l 1,4,-1
 402.5 157 l 1,5,-1
 402.5 231 l 1,6,-1
 738.5 695 l 1,7,-1
 829.5 695 l 1,8,-1
 829.5 236 l 1,9,-1
 933.5 236 l 1,10,-1
 933.5 157 l 1,0,-1
744.5 236 m 1,11,-1
 744.5 443 l 2,12,13
 744.5 496 744.5 496 746.5 533 c 128,-1,14
 748.5 570 748.5 570 749.5 603 c 1,15,-1
 745.5 603 l 1,16,17
 737.5 584 737.5 584 723.5 561.5 c 128,-1,18
 709.5 539 709.5 539 698.5 524 c 2,19,-1
 488.5 236 l 1,20,-1
 744.5 236 l 1,11,-1
EndSplineSet
EndChar

StartChar: five.knda
Encoding: 53 53 21
Width: 1336
Flags: W
LayerCount: 2
Fore
SplineSet
627 -12 m 0,0,1
 572 -12 572 -12 523.5 -2 c 128,-1,2
 475 8 475 8 442 27 c 1,3,-1
 442 110 l 1,4,5
 478 88 478 88 529.5 75.5 c 128,-1,6
 581 63 581 63 628 63 c 0,7,8
 681 63 681 63 720.5 79 c 128,-1,9
 760 95 760 95 782 128 c 128,-1,10
 804 161 804 161 804 212 c 0,11,12
 804 280 804 280 761 316.5 c 128,-1,13
 718 353 718 353 625 353 c 0,14,15
 597 353 597 353 561 348 c 128,-1,16
 525 343 525 343 503 338 c 1,17,-1
 459 366 l 1,18,-1
 485 690 l 1,19,-1
 844 690 l 1,20,-1
 844 610 l 1,21,-1
 561 610 l 1,22,-1
 544 416 l 1,23,24
 561 419 561 419 590 423 c 128,-1,25
 619 427 619 427 654 427 c 0,26,27
 727 427 727 427 781 402.5 c 128,-1,28
 835 378 835 378 864.5 332 c 128,-1,29
 894 286 894 286 894 221 c 0,30,31
 894 149 894 149 862 96.5 c 128,-1,32
 830 44 830 44 770.5 16 c 128,-1,33
 711 -12 711 -12 627 -12 c 0,0,1
EndSplineSet
EndChar

StartChar: six.knda
Encoding: 54 54 22
Width: 1336
Flags: W
LayerCount: 2
Fore
SplineSet
433 295 m 0,0,1
 433 355 433 355 441.5 413.5 c 128,-1,2
 450 472 450 472 471 524 c 128,-1,3
 492 576 492 576 529 616 c 128,-1,4
 566 656 566 656 622.5 679 c 128,-1,5
 679 702 679 702 760 702 c 0,6,7
 781 702 781 702 806.5 700 c 128,-1,8
 832 698 832 698 848 693 c 1,9,-1
 848 619 l 1,10,11
 830 624 830 624 807.5 627 c 128,-1,12
 785 630 785 630 762 630 c 0,13,14
 693 630 693 630 647 608 c 128,-1,15
 601 586 601 586 574.5 547.5 c 128,-1,16
 548 509 548 509 536 459 c 128,-1,17
 524 409 524 409 521 353 c 1,18,-1
 527 353 l 1,19,20
 542 377 542 377 565 396 c 128,-1,21
 588 415 588 415 620.5 426 c 128,-1,22
 653 437 653 437 696 437 c 0,23,24
 758 437 758 437 804.5 412 c 128,-1,25
 851 387 851 387 877 339.5 c 128,-1,26
 903 292 903 292 903 224 c 0,27,28
 903 151 903 151 875 98.5 c 128,-1,29
 847 46 847 46 796.5 17.5 c 128,-1,30
 746 -11 746 -11 676 -11 c 0,31,32
 625 -11 625 -11 581 7.5 c 128,-1,33
 537 26 537 26 503.5 63.5 c 128,-1,34
 470 101 470 101 451.5 159 c 128,-1,35
 433 217 433 217 433 295 c 0,0,1
675 63 m 0,36,37
 738 63 738 63 777 102.5 c 128,-1,38
 816 142 816 142 816 224 c 0,39,40
 816 291 816 291 781.5 329.5 c 128,-1,41
 747 368 747 368 678 368 c 0,42,43
 631 368 631 368 596 349 c 128,-1,44
 561 330 561 330 541.5 301 c 128,-1,45
 522 272 522 272 522 241 c 0,46,47
 522 209 522 209 531.5 177.5 c 128,-1,48
 541 146 541 146 560.5 120 c 128,-1,49
 580 94 580 94 608.5 78.5 c 128,-1,50
 637 63 637 63 675 63 c 0,36,37
EndSplineSet
EndChar

StartChar: seven.knda
Encoding: 55 55 23
Width: 1336
Flags: W
LayerCount: 2
Fore
SplineSet
526.5 0 m 1,0,-1
 813.5 610 l 1,1,-1
 428.5 610 l 1,2,-1
 428.5 690 l 1,3,-1
 907.5 690 l 1,4,-1
 907.5 623 l 1,5,-1
 622.5 0 l 1,6,-1
 526.5 0 l 1,0,-1
EndSplineSet
EndChar

StartChar: eight.knda
Encoding: 56 56 24
Width: 1336
Flags: W
LayerCount: 2
Fore
SplineSet
667.5 702 m 0,0,1
 730.5 702 730.5 702 778.5 683 c 128,-1,2
 826.5 664 826.5 664 854 627 c 128,-1,3
 881.5 590 881.5 590 881.5 536 c 0,4,5
 881.5 495 881.5 495 863 463.5 c 128,-1,6
 844.5 432 844.5 432 813.5 408.5 c 128,-1,7
 782.5 385 782.5 385 745.5 366 c 1,8,9
 789.5 345 789.5 345 825.5 319.5 c 128,-1,10
 861.5 294 861.5 294 883 260 c 128,-1,11
 904.5 226 904.5 226 904.5 178 c 0,12,13
 904.5 120 904.5 120 875.5 77 c 128,-1,14
 846.5 34 846.5 34 794 11 c 128,-1,15
 741.5 -12 741.5 -12 670.5 -12 c 0,16,17
 593.5 -12 593.5 -12 540 10 c 128,-1,18
 486.5 32 486.5 32 459 74 c 128,-1,19
 431.5 116 431.5 116 431.5 175 c 0,20,21
 431.5 223 431.5 223 452 258 c 128,-1,22
 472.5 293 472.5 293 506.5 318.5 c 128,-1,23
 540.5 344 540.5 344 579.5 361 c 1,24,25
 544.5 381 544.5 381 516 405 c 128,-1,26
 487.5 429 487.5 429 471 461.5 c 128,-1,27
 454.5 494 454.5 494 454.5 537 c 0,28,29
 454.5 590 454.5 590 482.5 627 c 128,-1,30
 510.5 664 510.5 664 558.5 683 c 128,-1,31
 606.5 702 606.5 702 667.5 702 c 0,0,1
517.5 175 m 0,32,33
 517.5 125 517.5 125 554.5 91.5 c 128,-1,34
 591.5 58 591.5 58 668.5 58 c 0,35,36
 741.5 58 741.5 58 780 91.5 c 128,-1,37
 818.5 125 818.5 125 818.5 178 c 0,38,39
 818.5 211 818.5 211 800 236.5 c 128,-1,40
 781.5 262 781.5 262 748 282.5 c 128,-1,41
 714.5 303 714.5 303 668.5 319 c 2,42,-1
 652.5 325 l 1,43,44
 608.5 307 608.5 307 578.5 285.5 c 128,-1,45
 548.5 264 548.5 264 533 237 c 128,-1,46
 517.5 210 517.5 210 517.5 175 c 0,32,33
666.5 631 m 0,47,48
 611.5 631 611.5 631 576 605.5 c 128,-1,49
 540.5 580 540.5 580 540.5 532 c 0,50,51
 540.5 497 540.5 497 558 473 c 128,-1,52
 575.5 449 575.5 449 605.5 432 c 128,-1,53
 635.5 415 635.5 415 671.5 400 c 1,54,55
 706.5 414 706.5 414 734 431.5 c 128,-1,56
 761.5 449 761.5 449 778 473.5 c 128,-1,57
 794.5 498 794.5 498 794.5 532 c 0,58,59
 794.5 580 794.5 580 759.5 605.5 c 128,-1,60
 724.5 631 724.5 631 666.5 631 c 0,47,48
EndSplineSet
EndChar

StartChar: nine.knda
Encoding: 57 57 25
Width: 1336
Flags: W
LayerCount: 2
Fore
SplineSet
903 396 m 0,0,1
 903 336 903 336 894.5 277 c 128,-1,2
 886 218 886 218 865 166 c 128,-1,3
 844 114 844 114 807 74 c 128,-1,4
 770 34 770 34 713 11 c 128,-1,5
 656 -12 656 -12 575 -12 c 0,6,7
 555 -12 555 -12 528.5 -9.5 c 128,-1,8
 502 -7 502 -7 485 -2 c 1,9,-1
 485 73 l 1,10,11
 503 67 503 67 527 63.5 c 128,-1,12
 551 60 551 60 573 60 c 0,13,14
 643 60 643 60 688.5 82 c 128,-1,15
 734 104 734 104 761 142 c 128,-1,16
 788 180 788 180 800 230 c 128,-1,17
 812 280 812 280 814 336 c 1,18,-1
 808 336 l 1,19,20
 793 314 793 314 770 295 c 128,-1,21
 747 276 747 276 714.5 264.5 c 128,-1,22
 682 253 682 253 638 253 c 0,23,24
 577 253 577 253 530.5 278 c 128,-1,25
 484 303 484 303 458.5 350.5 c 128,-1,26
 433 398 433 398 433 465 c 0,27,28
 433 538 433 538 461.5 591 c 128,-1,29
 490 644 490 644 541 673 c 128,-1,30
 592 702 592 702 661 702 c 0,31,32
 712 702 712 702 756 683.5 c 128,-1,33
 800 665 800 665 833 627 c 128,-1,34
 866 589 866 589 884.5 531.5 c 128,-1,35
 903 474 903 474 903 396 c 0,0,1
661 628 m 0,36,37
 599 628 599 628 559.5 588.5 c 128,-1,38
 520 549 520 549 520 466 c 0,39,40
 520 400 520 400 553.5 361.5 c 128,-1,41
 587 323 587 323 657 323 c 0,42,43
 705 323 705 323 740 341.5 c 128,-1,44
 775 360 775 360 794.5 389.5 c 128,-1,45
 814 419 814 419 814 450 c 0,46,47
 814 482 814 482 804.5 513 c 128,-1,48
 795 544 795 544 776 570.5 c 128,-1,49
 757 597 757 597 728 612.5 c 128,-1,50
 699 628 699 628 661 628 c 0,36,37
EndSplineSet
EndChar

StartChar: colon.knda
Encoding: 58 58 26
Width: 1336
Flags: W
LayerCount: 2
Fore
SplineSet
606 57 m 0,0,1
 606 93 606 93 624 108.5 c 128,-1,2
 642 124 642 124 667 124 c 0,3,4
 693 124 693 124 711.5 108.5 c 128,-1,5
 730 93 730 93 730 57 c 0,6,7
 730 20 730 20 711.5 4 c 128,-1,8
 693 -12 693 -12 667 -12 c 0,9,10
 642 -12 642 -12 624 4 c 128,-1,11
 606 20 606 20 606 57 c 0,0,1
606 384 m 0,12,13
 606 422 606 422 624 437 c 128,-1,14
 642 452 642 452 667 452 c 0,15,16
 693 452 693 452 711.5 437 c 128,-1,17
 730 422 730 422 730 384 c 0,18,19
 730 348 730 348 711.5 332 c 128,-1,20
 693 316 693 316 667 316 c 0,21,22
 642 316 642 316 624 332 c 128,-1,23
 606 348 606 348 606 384 c 0,12,13
EndSplineSet
EndChar

StartChar: semicolon.knda
Encoding: 59 59 27
Width: 1336
Flags: W
LayerCount: 2
Fore
SplineSet
731.5 119 m 1,0,-1
 738.5 107 l 1,1,2
 729.5 73 729.5 73 715.5 32 c 128,-1,3
 701.5 -9 701.5 -9 685 -50 c 128,-1,4
 668.5 -91 668.5 -91 652.5 -126 c 1,5,-1
 586.5 -126 l 1,6,7
 596.5 -89 596.5 -89 606 -45.5 c 128,-1,8
 615.5 -2 615.5 -2 624 41 c 128,-1,9
 632.5 84 632.5 84 637.5 119 c 1,10,-1
 731.5 119 l 1,0,-1
625.5 384 m 0,11,12
 625.5 422 625.5 422 643.5 437 c 128,-1,13
 661.5 452 661.5 452 686.5 452 c 0,14,15
 712.5 452 712.5 452 731 437 c 128,-1,16
 749.5 422 749.5 422 749.5 384 c 0,17,18
 749.5 348 749.5 348 731 332 c 128,-1,19
 712.5 316 712.5 316 686.5 316 c 0,20,21
 661.5 316 661.5 316 643.5 332 c 128,-1,22
 625.5 348 625.5 348 625.5 384 c 0,11,12
EndSplineSet
EndChar

StartChar: less.knda
Encoding: 60 60 28
Width: 1336
Flags: W
LayerCount: 2
Fore
SplineSet
903.5 106 m 1,0,-1
 432.5 313 l 1,1,-1
 432.5 363 l 1,2,-1
 903.5 598 l 1,3,-1
 903.5 520 l 1,4,-1
 526.5 342 l 1,5,-1
 903.5 184 l 1,6,-1
 903.5 106 l 1,0,-1
EndSplineSet
EndChar

StartChar: equal.knda
Encoding: 61 61 29
Width: 1336
Flags: W
LayerCount: 2
Fore
SplineSet
439 406 m 1,0,-1
 439 477 l 1,1,-1
 897 477 l 1,2,-1
 897 406 l 1,3,-1
 439 406 l 1,0,-1
439 207 m 1,4,-1
 439 278 l 1,5,-1
 897 278 l 1,6,-1
 897 207 l 1,7,-1
 439 207 l 1,4,-1
EndSplineSet
EndChar

StartChar: greater.knda
Encoding: 62 62 30
Width: 1336
Flags: W
LayerCount: 2
Fore
SplineSet
432.5 106 m 1,0,-1
 432.5 184 l 1,1,-1
 809.5 341 l 1,2,-1
 432.5 520 l 1,3,-1
 432.5 598 l 1,4,-1
 903.5 363 l 1,5,-1
 903.5 313 l 1,6,-1
 432.5 106 l 1,0,-1
EndSplineSet
EndChar

StartChar: question.knda
Encoding: 63 63 31
Width: 1336
Flags: W
LayerCount: 2
Fore
SplineSet
658.5 702 m 0,0,1
 749.5 702 749.5 702 802.5 653.5 c 128,-1,2
 855.5 605 855.5 605 855.5 519 c 0,3,4
 855.5 476 855.5 476 843.5 444 c 128,-1,5
 831.5 412 831.5 412 807.5 384 c 128,-1,6
 783.5 356 783.5 356 746.5 324 c 0,7,8
 714.5 297 714.5 297 697.5 277 c 128,-1,9
 680.5 257 680.5 257 674 238.5 c 128,-1,10
 667.5 220 667.5 220 667.5 195 c 2,11,-1
 667.5 186 l 1,12,-1
 599.5 186 l 1,13,-1
 599.5 204 l 2,14,15
 599.5 237 599.5 237 606.5 263 c 128,-1,16
 613.5 289 613.5 289 631.5 314 c 128,-1,17
 649.5 339 649.5 339 682.5 367 c 0,18,19
 713.5 394 713.5 394 733 415 c 128,-1,20
 752.5 436 752.5 436 761.5 460 c 128,-1,21
 770.5 484 770.5 484 770.5 518 c 0,22,23
 770.5 565 770.5 565 742 594.5 c 128,-1,24
 713.5 624 713.5 624 658.5 624 c 0,25,26
 618.5 624 618.5 624 582 611.5 c 128,-1,27
 545.5 599 545.5 599 510.5 582 c 1,28,-1
 480.5 653 l 1,29,30
 519.5 673 519.5 673 565.5 687.5 c 128,-1,31
 611.5 702 611.5 702 658.5 702 c 0,0,1
637.5 -12 m 0,32,33
 612.5 -12 612.5 -12 594 4 c 128,-1,34
 575.5 20 575.5 20 575.5 56 c 0,35,36
 575.5 94 575.5 94 594 109 c 128,-1,37
 612.5 124 612.5 124 637.5 124 c 0,38,39
 663.5 124 663.5 124 681.5 109 c 128,-1,40
 699.5 94 699.5 94 699.5 56 c 0,41,42
 699.5 20 699.5 20 681.5 4 c 128,-1,43
 663.5 -12 663.5 -12 637.5 -12 c 0,32,33
EndSplineSet
EndChar

StartChar: bracketleft.knda
Encoding: 91 91 32
Width: 1336
Flags: W
LayerCount: 2
Fore
SplineSet
780 -369 m 1,0,-1
 556 -369 l 1,1,-1
 556 793 l 1,2,-1
 780 793 l 1,3,-1
 780 722 l 1,4,-1
 642 722 l 1,5,-1
 642 -296 l 1,6,-1
 780 -296 l 1,7,-1
 780 -369 l 1,0,-1
EndSplineSet
EndChar

StartChar: backslash.knda
Encoding: 92 92 33
Width: 1336
Flags: W
LayerCount: 2
Fore
SplineSet
568.5 793 m 1,0,-1
 853.5 -368 l 1,1,-1
 766.5 -368 l 1,2,-1
 482.5 793 l 1,3,-1
 568.5 793 l 1,0,-1
EndSplineSet
EndChar

StartChar: bracketright.knda
Encoding: 93 93 34
Width: 1336
Flags: W
LayerCount: 2
Fore
SplineSet
556 -297 m 1,0,-1
 694 -297 l 1,1,-1
 694 722 l 1,2,-1
 556 722 l 1,3,-1
 556 793 l 1,4,-1
 780 793 l 1,5,-1
 780 -369 l 1,6,-1
 556 -369 l 1,7,-1
 556 -297 l 1,0,-1
EndSplineSet
EndChar

StartChar: asciicircum.knda
Encoding: 94 94 35
Width: 1336
Flags: W
LayerCount: 2
Fore
SplineSet
420 250 m 1,0,-1
 632 702 l 1,1,-1
 682 702 l 1,2,-1
 916 250 l 1,3,-1
 838 250 l 1,4,-1
 658 609 l 1,5,-1
 498 250 l 1,6,-1
 420 250 l 1,0,-1
EndSplineSet
EndChar

StartChar: underscore.knda
Encoding: 95 95 36
Width: 1336
Flags: W
LayerCount: 2
Fore
SplineSet
444 -154 m 1,0,-1
 444 -90 l 1,1,-1
 892 -90 l 1,2,-1
 892 -154 l 1,3,-1
 444 -154 l 1,0,-1
EndSplineSet
EndChar

StartChar: braceleft.knda
Encoding: 123 123 37
Width: 1336
Flags: W
LayerCount: 2
Fore
SplineSet
828 -368 m 1,0,1
 767 -367 767 -367 722.5 -350 c 128,-1,2
 678 -333 678 -333 654 -297.5 c 128,-1,3
 630 -262 630 -262 630 -209 c 2,4,-1
 630 82 l 2,5,6
 630 133 630 133 598.5 154.5 c 128,-1,7
 567 176 567 176 508 176 c 1,8,-1
 508 249 l 1,9,10
 567 250 567 250 598.5 271 c 128,-1,11
 630 292 630 292 630 342 c 2,12,-1
 630 636 l 2,13,14
 630 689 630 689 655 724 c 128,-1,15
 680 759 680 759 725 776 c 128,-1,16
 770 793 770 793 828 793 c 1,17,-1
 828 722 l 1,18,19
 776 721 776 721 746.5 698.5 c 128,-1,20
 717 676 717 676 717 627 c 2,21,-1
 717 338 l 2,22,23
 717 287 717 287 690 256.5 c 128,-1,24
 663 226 663 226 608 216 c 1,25,-1
 608 210 l 1,26,27
 664 200 664 200 690.5 169.5 c 128,-1,28
 717 139 717 139 717 88 c 2,29,-1
 717 -203 l 2,30,31
 717 -235 717 -235 730 -255.5 c 128,-1,32
 743 -276 743 -276 768 -285.5 c 128,-1,33
 793 -295 793 -295 828 -296 c 1,34,-1
 828 -368 l 1,0,1
EndSplineSet
EndChar

StartChar: bar.knda
Encoding: 124 124 38
Width: 1336
Flags: W
LayerCount: 2
Fore
SplineSet
631.5 794 m 1,0,-1
 704.5 794 l 1,1,-1
 704.5 -368 l 1,2,-1
 631.5 -368 l 1,3,-1
 631.5 794 l 1,0,-1
EndSplineSet
EndChar

StartChar: braceright.knda
Encoding: 125 125 39
Width: 1336
Flags: W
LayerCount: 2
Fore
SplineSet
508.5 793 m 1,0,1
 569.5 793 569.5 793 613.5 775.5 c 128,-1,2
 657.5 758 657.5 758 681.5 723.5 c 128,-1,3
 705.5 689 705.5 689 705.5 635 c 2,4,-1
 705.5 343 l 2,5,6
 705.5 292 705.5 292 737 270.5 c 128,-1,7
 768.5 249 768.5 249 827.5 249 c 1,8,-1
 827.5 176 l 1,9,10
 768.5 175 768.5 175 737 154 c 128,-1,11
 705.5 133 705.5 133 705.5 83 c 2,12,-1
 705.5 -210 l 2,13,14
 705.5 -263 705.5 -263 680.5 -298 c 128,-1,15
 655.5 -333 655.5 -333 611 -350.5 c 128,-1,16
 566.5 -368 566.5 -368 508.5 -368 c 1,17,-1
 508.5 -296 l 1,18,19
 560.5 -294 560.5 -294 590 -272.5 c 128,-1,20
 619.5 -251 619.5 -251 619.5 -202 c 2,21,-1
 619.5 87 l 2,22,23
 619.5 138 619.5 138 646.5 168.5 c 128,-1,24
 673.5 199 673.5 199 727.5 209 c 1,25,-1
 727.5 215 l 1,26,27
 672.5 225 672.5 225 646 255.5 c 128,-1,28
 619.5 286 619.5 286 619.5 337 c 2,29,-1
 619.5 628 l 2,30,31
 619.5 661 619.5 661 606.5 681.5 c 128,-1,32
 593.5 702 593.5 702 568.5 712 c 128,-1,33
 543.5 722 543.5 722 508.5 722 c 1,34,-1
 508.5 793 l 1,0,1
EndSplineSet
EndChar

StartChar: asciitilde.knda
Encoding: 126 126 40
Width: 1336
Flags: W
LayerCount: 2
Fore
SplineSet
651.5 309 m 0,0,1
 615.5 325 615.5 325 592 330.5 c 128,-1,2
 568.5 336 568.5 336 546.5 336 c 0,3,4
 518.5 336 518.5 336 487.5 319 c 128,-1,5
 456.5 302 456.5 302 432.5 277 c 1,6,-1
 432.5 355 l 1,7,8
 456.5 381 456.5 381 486.5 394.5 c 128,-1,9
 516.5 408 516.5 408 552.5 408 c 0,10,11
 581.5 408 581.5 408 610 402 c 128,-1,12
 638.5 396 638.5 396 684.5 376 c 0,13,14
 720.5 360 720.5 360 744 354.5 c 128,-1,15
 767.5 349 767.5 349 788.5 349 c 0,16,17
 817.5 349 817.5 349 848.5 366 c 128,-1,18
 879.5 383 879.5 383 903.5 408 c 1,19,-1
 903.5 331 l 1,20,21
 879.5 305 879.5 305 849.5 291 c 128,-1,22
 819.5 277 819.5 277 783.5 277 c 0,23,24
 755.5 277 755.5 277 726 283.5 c 128,-1,25
 696.5 290 696.5 290 651.5 309 c 0,0,1
EndSplineSet
EndChar

StartChar: A
Encoding: 65 65 41
Width: 1336
Flags: W
AnchorPoint: "Anchor-0" 667.5 -24 basechar 0
LayerCount: 2
Fore
SplineSet
657.5 69 m 0,0,1
 766.5 69 766.5 69 838 96 c 128,-1,2
 909.5 123 909.5 123 945 180.5 c 128,-1,3
 980.5 238 980.5 238 980.5 328 c 0,4,5
 980.5 373 980.5 373 968.5 409.5 c 128,-1,6
 956.5 446 956.5 446 932.5 467.5 c 128,-1,7
 908.5 489 908.5 489 871.5 489 c 0,8,9
 848.5 489 848.5 489 828 472.5 c 128,-1,10
 807.5 456 807.5 456 807.5 419 c 0,11,12
 807.5 394 807.5 394 821.5 373.5 c 128,-1,13
 835.5 353 835.5 353 860 337.5 c 128,-1,14
 884.5 322 884.5 322 915.5 312 c 1,15,-1
 915.5 241 l 1,16,-1
 679.5 241 l 5,17,-1
 679.5 317 l 5,18,-1
 788.5 317 l 1,19,20
 770.5 332 770.5 332 757.5 350 c 128,-1,21
 744.5 368 744.5 368 737 389.5 c 128,-1,22
 729.5 411 729.5 411 729.5 438 c 0,23,24
 729.5 469 729.5 469 745 497.5 c 128,-1,25
 760.5 526 760.5 526 792 544.5 c 128,-1,26
 823.5 563 823.5 563 870.5 563 c 0,27,28
 931.5 563 931.5 563 974.5 533 c 128,-1,29
 1017.5 503 1017.5 503 1040 450.5 c 128,-1,30
 1062.5 398 1062.5 398 1062.5 330 c 0,31,32
 1062.5 210 1062.5 210 1014.5 134.5 c 128,-1,33
 966.5 59 966.5 59 876 23.5 c 128,-1,34
 785.5 -12 785.5 -12 659.5 -12 c 0,35,36
 531.5 -12 531.5 -12 445.5 29.5 c 128,-1,37
 359.5 71 359.5 71 316.5 144 c 128,-1,38
 273.5 217 273.5 217 273.5 311 c 0,39,40
 273.5 392 273.5 392 300.5 448 c 128,-1,41
 327.5 504 327.5 504 374 533.5 c 128,-1,42
 420.5 563 420.5 563 478.5 563 c 0,43,44
 522.5 563 522.5 563 554.5 547 c 128,-1,45
 586.5 531 586.5 531 604 501 c 128,-1,46
 621.5 471 621.5 471 621.5 429 c 0,47,48
 621.5 386 621.5 386 602 352 c 128,-1,49
 582.5 318 582.5 318 544 298 c 128,-1,50
 505.5 278 505.5 278 448.5 278 c 0,51,52
 412.5 278 412.5 278 383.5 289 c 128,-1,53
 354.5 300 354.5 300 334 316 c 128,-1,54
 313.5 332 313.5 332 299.5 348 c 1,55,-1
 323.5 414 l 1,56,57
 332.5 402 332.5 402 348.5 386.5 c 128,-1,58
 364.5 371 364.5 371 388 359.5 c 128,-1,59
 411.5 348 411.5 348 442.5 348 c 0,60,61
 495.5 348 495.5 348 519.5 370 c 128,-1,62
 543.5 392 543.5 392 543.5 426 c 0,63,64
 543.5 458 543.5 458 525.5 475.5 c 128,-1,65
 507.5 493 507.5 493 478.5 493 c 0,66,67
 419.5 493 419.5 493 386.5 446.5 c 128,-1,68
 353.5 400 353.5 400 353.5 315 c 2,69,-1
 353.5 311 l 2,70,71
 353.5 265 353.5 265 370.5 221.5 c 128,-1,72
 387.5 178 387.5 178 423.5 143.5 c 128,-1,73
 459.5 109 459.5 109 517.5 89 c 128,-1,74
 575.5 69 575.5 69 657.5 69 c 0,0,1
EndSplineSet
EndChar

StartChar: B
Encoding: 66 66 42
Width: 1336
Flags: W
LayerCount: 2
Fore
SplineSet
854.5 617 m 0,0,1
 854.5 583 854.5 583 840.5 557.5 c 128,-1,2
 826.5 532 826.5 532 805.5 512.5 c 128,-1,3
 784.5 493 784.5 493 763.5 477 c 128,-1,4
 742.5 461 742.5 461 728.5 445.5 c 128,-1,5
 714.5 430 714.5 430 714.5 412 c 0,6,7
 714.5 399 714.5 399 721 388 c 128,-1,8
 727.5 377 727.5 377 746.5 362.5 c 128,-1,9
 765.5 348 765.5 348 802.5 323 c 0,10,11
 838.5 299 838.5 299 864.5 275 c 128,-1,12
 890.5 251 890.5 251 904.5 222 c 128,-1,13
 918.5 193 918.5 193 918.5 153 c 0,14,15
 918.5 96 918.5 96 895 60 c 128,-1,16
 871.5 24 871.5 24 829.5 7 c 128,-1,17
 787.5 -10 787.5 -10 732.5 -10 c 0,18,19
 685.5 -10 685.5 -10 649.5 -1 c 128,-1,20
 613.5 8 613.5 8 587.5 24 c 1,21,-1
 587.5 103 l 1,22,23
 604.5 93 604.5 93 627.5 83 c 128,-1,24
 650.5 73 650.5 73 677 67 c 128,-1,25
 703.5 61 703.5 61 729.5 61 c 0,26,27
 784.5 61 784.5 61 808.5 84 c 128,-1,28
 832.5 107 832.5 107 832.5 147 c 0,29,30
 832.5 171 832.5 171 824 189.5 c 128,-1,31
 815.5 208 815.5 208 795 226 c 128,-1,32
 774.5 244 774.5 244 738.5 267 c 0,33,34
 696.5 294 696.5 294 673 315.5 c 128,-1,35
 649.5 337 649.5 337 639.5 359 c 128,-1,36
 629.5 381 629.5 381 629.5 407 c 0,37,38
 629.5 438 629.5 438 643 460 c 128,-1,39
 656.5 482 656.5 482 677 498.5 c 128,-1,40
 697.5 515 697.5 515 718 531 c 128,-1,41
 738.5 547 738.5 547 752 566 c 128,-1,42
 765.5 585 765.5 585 765.5 612 c 0,43,44
 765.5 654 765.5 654 730 673 c 128,-1,45
 694.5 692 694.5 692 638.5 692 c 0,46,47
 603.5 692 603.5 692 573 682.5 c 128,-1,48
 542.5 673 542.5 673 524 650 c 128,-1,49
 505.5 627 505.5 627 505.5 584 c 2,50,-1
 505.5 0 l 1,51,-1
 417.5 0 l 1,52,-1
 417.5 584 l 2,53,54
 417.5 651 417.5 651 446.5 690.5 c 128,-1,55
 475.5 730 475.5 730 525.5 747.5 c 128,-1,56
 575.5 765 575.5 765 638.5 765 c 0,57,58
 703.5 765 703.5 765 752 748.5 c 128,-1,59
 800.5 732 800.5 732 827.5 699.5 c 128,-1,60
 854.5 667 854.5 667 854.5 617 c 0,0,1
EndSplineSet
EndChar

StartChar: C
Encoding: 67 67 43
Width: 1336
Flags: W
LayerCount: 2
Fore
SplineSet
708 737 m 4,0,1
 728 737 728 737 743.5 723.5 c 132,-1,2
 759 710 759 710 759 681 c 4,3,4
 759 653 759 653 743.5 639 c 132,-1,5
 728 625 728 625 708 625 c 4,6,7
 686 625 686 625 671 639 c 132,-1,8
 656 653 656 653 656 681 c 4,9,10
 656 710 656 710 671 723.5 c 132,-1,11
 686 737 686 737 708 737 c 4,0,1
724 -10 m 0,12,13
 606 -10 606 -10 541 57 c 128,-1,14
 476 124 476 124 476 245 c 0,15,16
 476 325 476 325 505 380.5 c 128,-1,17
 534 436 534 436 588 465 c 1,18,-1
 455 465 l 1,19,-1
 455 537 l 1,20,-1
 881 537 l 1,21,-1
 881 465 l 1,22,-1
 768 465 l 2,23,24
 674 465 674 465 620.5 411.5 c 128,-1,25
 567 358 567 358 567 252 c 0,26,27
 567 165 567 165 610 114.5 c 128,-1,28
 653 64 653 64 733 64 c 0,29,30
 770 64 770 64 804 73.5 c 128,-1,31
 838 83 838 83 870 99 c 1,32,-1
 870 21 l 1,33,34
 841 5 841 5 806 -2.5 c 128,-1,35
 771 -10 771 -10 724 -10 c 0,12,13
EndSplineSet
EndChar

StartChar: D
Encoding: 68 68 44
Width: 1336
Flags: W
AnchorPoint: "Anchor-0" 667.5 -24 basechar 0
LayerCount: 2
Fore
SplineSet
501.5 -12 m 0,0,1
 423.5 -12 423.5 -12 375.5 46 c 128,-1,2
 327.5 104 327.5 104 327.5 220 c 0,3,4
 327.5 282 327.5 282 345 334 c 128,-1,5
 362.5 386 362.5 386 397.5 425.5 c 128,-1,6
 432.5 465 432.5 465 482.5 487 c 1,7,-1
 497.5 474 l 1,8,-1
 332.5 474 l 5,9,-1
 332.5 551 l 5,10,-1
 797.5 551 l 2,11,12
 850.5 551 850.5 551 873 556 c 128,-1,13
 895.5 561 895.5 561 905.5 569 c 0,14,15
 919.5 579 919.5 579 923.5 591.5 c 128,-1,16
 927.5 604 927.5 604 927.5 618 c 0,17,18
 927.5 651 927.5 651 911.5 682.5 c 128,-1,19
 895.5 714 895.5 714 862.5 747 c 1,20,-1
 927.5 790 l 1,21,22
 974.5 738 974.5 738 991.5 696.5 c 128,-1,23
 1008.5 655 1008.5 655 1008.5 612 c 0,24,25
 1008.5 593 1008.5 593 1000.5 565.5 c 128,-1,26
 992.5 538 992.5 538 967.5 516 c 0,27,28
 957.5 507 957.5 507 943 499 c 128,-1,29
 928.5 491 928.5 491 910.5 485.5 c 128,-1,30
 892.5 480 892.5 480 868.5 477 c 1,31,-1
 869.5 483 l 1,32,33
 912.5 460 912.5 460 943.5 421 c 128,-1,34
 974.5 382 974.5 382 991.5 331 c 128,-1,35
 1008.5 280 1008.5 280 1008.5 220 c 0,36,37
 1008.5 104 1008.5 104 960 46 c 128,-1,38
 911.5 -12 911.5 -12 830.5 -12 c 0,39,40
 787.5 -12 787.5 -12 756 -0.5 c 128,-1,41
 724.5 11 724.5 11 699.5 36.5 c 128,-1,42
 674.5 62 674.5 62 651.5 104 c 1,43,-1
 683.5 109 l 1,44,45
 660.5 58 660.5 58 632 32 c 128,-1,46
 603.5 6 603.5 6 570.5 -3 c 128,-1,47
 537.5 -12 537.5 -12 501.5 -12 c 0,0,1
512.5 67 m 0,48,49
 562.5 67 562.5 67 593.5 102 c 128,-1,50
 624.5 137 624.5 137 629.5 195 c 1,51,-1
 705.5 195 l 1,52,53
 710.5 128 710.5 128 746 97.5 c 128,-1,54
 781.5 67 781.5 67 822.5 67 c 0,55,56
 870.5 67 870.5 67 898.5 101 c 128,-1,57
 926.5 135 926.5 135 926.5 217 c 0,58,59
 926.5 269 926.5 269 911 316 c 128,-1,60
 895.5 363 895.5 363 864.5 399 c 128,-1,61
 833.5 435 833.5 435 787 455.5 c 128,-1,62
 740.5 476 740.5 476 678.5 476 c 2,63,-1
 661.5 476 l 2,64,65
 599.5 476 599.5 476 552.5 457 c 128,-1,66
 505.5 438 505.5 438 473.5 403 c 128,-1,67
 441.5 368 441.5 368 425.5 321.5 c 128,-1,68
 409.5 275 409.5 275 409.5 219 c 0,69,70
 409.5 137 409.5 137 436.5 102 c 128,-1,71
 463.5 67 463.5 67 512.5 67 c 0,48,49
EndSplineSet
EndChar

StartChar: E
Encoding: 69 69 45
Width: 1336
Flags: W
LayerCount: 2
Fore
SplineSet
867.5 0 m 1,0,-1
 468.5 0 l 1,1,-1
 468.5 714 l 1,2,-1
 867.5 714 l 1,3,-1
 867.5 635 l 1,4,-1
 558.5 635 l 1,5,-1
 558.5 412 l 1,6,-1
 849.5 412 l 1,7,-1
 849.5 334 l 1,8,-1
 558.5 334 l 1,9,-1
 558.5 79 l 1,10,-1
 867.5 79 l 1,11,-1
 867.5 0 l 1,0,-1
EndSplineSet
EndChar

StartChar: F
Encoding: 70 70 46
Width: 1336
Flags: W
LayerCount: 2
Fore
SplineSet
558.5 0 m 1,0,-1
 468.5 0 l 1,1,-1
 468.5 714 l 1,2,-1
 867.5 714 l 1,3,-1
 867.5 635 l 1,4,-1
 558.5 635 l 1,5,-1
 558.5 382 l 1,6,-1
 848.5 382 l 1,7,-1
 848.5 303 l 1,8,-1
 558.5 303 l 1,9,-1
 558.5 0 l 1,0,-1
EndSplineSet
EndChar

StartChar: G
Encoding: 71 71 47
Width: 1336
Flags: W
LayerCount: 2
Fore
SplineSet
650.5 546 m 0,0,1
 703.5 546 703.5 546 746 526 c 128,-1,2
 788.5 506 788.5 506 818.5 465 c 1,3,-1
 823.5 465 l 1,4,-1
 835.5 536 l 1,5,-1
 905.5 536 l 1,6,-1
 905.5 -9 l 2,7,8
 905.5 -85 905.5 -85 879.5 -136.5 c 128,-1,9
 853.5 -188 853.5 -188 800.5 -214 c 128,-1,10
 747.5 -240 747.5 -240 665.5 -240 c 0,11,12
 607.5 -240 607.5 -240 559 -231.5 c 128,-1,13
 510.5 -223 510.5 -223 472.5 -206 c 1,14,-1
 472.5 -125 l 1,15,16
 510.5 -145 510.5 -145 561.5 -156 c 128,-1,17
 612.5 -167 612.5 -167 670.5 -167 c 0,18,19
 739.5 -167 739.5 -167 779 -126.5 c 128,-1,20
 818.5 -86 818.5 -86 818.5 -16 c 2,21,-1
 818.5 5 l 2,22,23
 818.5 17 818.5 17 819.5 39.5 c 128,-1,24
 820.5 62 820.5 62 821.5 71 c 1,25,-1
 817.5 71 l 1,26,27
 789.5 30 789.5 30 748 10 c 128,-1,28
 706.5 -10 706.5 -10 651.5 -10 c 0,29,30
 547.5 -10 547.5 -10 489 63 c 128,-1,31
 430.5 136 430.5 136 430.5 267 c 0,32,33
 430.5 395 430.5 395 489 470.5 c 128,-1,34
 547.5 546 547.5 546 650.5 546 c 0,0,1
662.5 472 m 0,35,36
 617.5 472 617.5 472 586 448 c 128,-1,37
 554.5 424 554.5 424 538 378 c 128,-1,38
 521.5 332 521.5 332 521.5 266 c 0,39,40
 521.5 167 521.5 167 558 114.5 c 128,-1,41
 594.5 62 594.5 62 664.5 62 c 0,42,43
 705.5 62 705.5 62 734.5 72.5 c 128,-1,44
 763.5 83 763.5 83 782.5 105.5 c 128,-1,45
 801.5 128 801.5 128 810.5 163 c 128,-1,46
 819.5 198 819.5 198 819.5 246 c 2,47,-1
 819.5 267 l 2,48,49
 819.5 340 819.5 340 803 385 c 128,-1,50
 786.5 430 786.5 430 751.5 451 c 128,-1,51
 716.5 472 716.5 472 662.5 472 c 0,35,36
673.5 737 m 0,52,53
 693.5 737 693.5 737 709 723.5 c 128,-1,54
 724.5 710 724.5 710 724.5 681 c 0,55,56
 724.5 653 724.5 653 709 639 c 128,-1,57
 693.5 625 693.5 625 673.5 625 c 0,58,59
 651.5 625 651.5 625 636.5 639 c 128,-1,60
 621.5 653 621.5 653 621.5 681 c 0,61,62
 621.5 710 621.5 710 636.5 723.5 c 128,-1,63
 651.5 737 651.5 737 673.5 737 c 0,52,53
EndSplineSet
EndChar

StartChar: H
Encoding: 72 72 48
Width: 1336
Flags: W
AnchorPoint: "Anchor-0" 667.5 -24 basechar 0
LayerCount: 2
Fore
SplineSet
498.5 -12 m 0,0,1
 407.5 -12 407.5 -12 354 39 c 128,-1,2
 300.5 90 300.5 90 300.5 181 c 0,3,4
 300.5 267 300.5 267 353.5 321 c 128,-1,5
 406.5 375 406.5 375 503.5 375 c 0,6,7
 532.5 375 532.5 375 557 368 c 128,-1,8
 581.5 361 581.5 361 601 348 c 128,-1,9
 620.5 335 620.5 335 634.5 316 c 1,10,-1
 630.5 315 l 2,11,12
 631.5 317 631.5 317 632 324.5 c 128,-1,13
 632.5 332 632.5 332 632.5 335 c 0,14,15
 632.5 364 632.5 364 620.5 389.5 c 128,-1,16
 608.5 415 608.5 415 586.5 434.5 c 128,-1,17
 564.5 454 564.5 454 536 466 c 128,-1,18
 507.5 478 507.5 478 474.5 481 c 1,19,-1
 628.5 486 l 1,20,21
 651.5 474 651.5 474 669.5 454 c 128,-1,22
 687.5 434 687.5 434 698 406.5 c 128,-1,23
 708.5 379 708.5 379 708.5 343 c 0,24,25
 708.5 336 708.5 336 707.5 327.5 c 128,-1,26
 706.5 319 706.5 319 705.5 315 c 1,27,-1
 703.5 316 l 1,28,29
 720.5 335 720.5 335 741 348 c 128,-1,30
 761.5 361 761.5 361 787 368 c 128,-1,31
 812.5 375 812.5 375 843.5 375 c 0,32,33
 937.5 375 937.5 375 986.5 320 c 128,-1,34
 1035.5 265 1035.5 265 1035.5 181 c 256,35,36
 1035.5 97 1035.5 97 983 42.5 c 128,-1,37
 930.5 -12 930.5 -12 833.5 -12 c 0,38,39
 788.5 -12 788.5 -12 753.5 1.5 c 128,-1,40
 718.5 15 718.5 15 694.5 41 c 128,-1,41
 670.5 67 670.5 67 657.5 102 c 1,42,-1
 676.5 101 l 1,43,44
 663.5 68 663.5 68 639 42.5 c 128,-1,45
 614.5 17 614.5 17 579.5 2.5 c 128,-1,46
 544.5 -12 544.5 -12 498.5 -12 c 0,0,1
504.5 63 m 0,47,48
 569.5 63 569.5 63 599.5 96.5 c 128,-1,49
 629.5 130 629.5 130 629.5 181 c 0,50,51
 629.5 236 629.5 236 597.5 268 c 128,-1,52
 565.5 300 565.5 300 508.5 300 c 0,53,54
 464.5 300 464.5 300 436.5 284.5 c 128,-1,55
 408.5 269 408.5 269 395.5 242.5 c 128,-1,56
 382.5 216 382.5 216 382.5 183 c 0,57,58
 382.5 128 382.5 128 415.5 95.5 c 128,-1,59
 448.5 63 448.5 63 504.5 63 c 0,47,48
828.5 63 m 0,60,61
 892.5 63 892.5 63 923 96.5 c 128,-1,62
 953.5 130 953.5 130 953.5 181 c 0,63,64
 953.5 218 953.5 218 939 244.5 c 128,-1,65
 924.5 271 924.5 271 897.5 285.5 c 128,-1,66
 870.5 300 870.5 300 831.5 300 c 0,67,68
 768.5 300 768.5 300 737.5 266.5 c 128,-1,69
 706.5 233 706.5 233 706.5 183 c 0,70,71
 706.5 128 706.5 128 739 95.5 c 128,-1,72
 771.5 63 771.5 63 828.5 63 c 0,60,61
317.5 474 m 1,73,-1
 317.5 551 l 1,74,-1
 776.5 551 l 6,75,76
 829.5 551 829.5 551 851.5 556 c 132,-1,77
 873.5 561 873.5 561 884.5 569 c 4,78,79
 897.5 579 897.5 579 902 591.5 c 132,-1,80
 906.5 604 906.5 604 906.5 618 c 4,81,82
 906.5 651 906.5 651 890.5 682.5 c 132,-1,83
 874.5 714 874.5 714 841.5 747 c 5,84,-1
 906.5 790 l 5,85,86
 953.5 738 953.5 738 970.5 696.5 c 132,-1,87
 987.5 655 987.5 655 987.5 612 c 4,88,89
 987.5 593 987.5 593 979.5 565.5 c 132,-1,90
 971.5 538 971.5 538 946.5 516 c 4,91,92
 920.5 494 920.5 494 886 484 c 132,-1,93
 851.5 474 851.5 474 794.5 474 c 6,94,-1
 317.5 474 l 1,73,-1
EndSplineSet
EndChar

StartChar: I
Encoding: 73 73 49
Width: 1336
Flags: W
LayerCount: 2
Fore
SplineSet
768.5 756 m 1,0,1
 759.5 742 759.5 742 742.5 722 c 0,2,3
 725.5 702 725.5 702 705 680.5 c 0,4,5
 684.5 659 684.5 659 664 639.5 c 0,6,7
 643.5 620 643.5 620 625.5 606 c 1,8,-1
 567.5 606 l 1,9,-1
 567.5 618 l 1,10,11
 582.5 637 582.5 637 600 663 c 0,12,13
 617.5 689 617.5 689 634.5 716.5 c 0,14,15
 651.5 744 651.5 744 662.5 766 c 1,16,-1
 768.5 766 l 1,17,-1
 768.5 756 l 1,0,1
664.5 0 m 5,18,-1
 576.5 0 l 5,19,-1
 576.5 536 l 5,20,-1
 664.5 536 l 5,21,-1
 664.5 0 l 5,18,-1
EndSplineSet
EndChar

StartChar: J
Encoding: 74 74 50
Width: 1336
Flags: W
LayerCount: 2
Fore
SplineSet
617.5 -8 m 4,0,1
 562.5 -8 562.5 -8 518.5 4 c 132,-1,2
 474.5 16 474.5 16 440.5 33 c 5,3,-1
 471.5 103 l 5,4,5
 501.5 89 501.5 89 538 77 c 132,-1,6
 574.5 65 574.5 65 615.5 65 c 4,7,8
 672.5 65 672.5 65 702.5 94.5 c 132,-1,9
 732.5 124 732.5 124 732.5 190 c 6,10,-1
 732.5 329 l 5,11,-1
 528.5 329 l 5,12,-1
 528.5 395 l 5,13,-1
 732.5 395 l 5,14,-1
 732.5 499 l 6,15,16
 732.5 539 732.5 539 742 565.5 c 132,-1,17
 751.5 592 751.5 592 767 608 c 132,-1,18
 782.5 624 782.5 624 800.5 635 c 5,19,-1
 416.5 635 l 5,20,-1
 416.5 715 l 5,21,-1
 919.5 715 l 5,22,-1
 919.5 641 l 5,23,24
 890.5 634 890.5 634 868.5 617.5 c 132,-1,25
 846.5 601 846.5 601 833.5 572.5 c 132,-1,26
 820.5 544 820.5 544 820.5 500 c 6,27,-1
 820.5 395 l 5,28,-1
 916.5 395 l 5,29,-1
 916.5 329 l 5,30,-1
 820.5 329 l 5,31,-1
 820.5 181 l 6,32,33
 820.5 121 820.5 121 795.5 79 c 132,-1,34
 770.5 37 770.5 37 724.5 14.5 c 132,-1,35
 678.5 -8 678.5 -8 617.5 -8 c 4,0,1
EndSplineSet
EndChar

StartChar: K
Encoding: 75 75 51
Width: 1336
Flags: W
LayerCount: 2
Fore
SplineSet
648 737 m 4,0,1
 668 737 668 737 683.5 723.5 c 132,-1,2
 699 710 699 710 699 681 c 4,3,4
 699 653 699 653 683.5 639 c 132,-1,5
 668 625 668 625 648 625 c 4,6,7
 626 625 626 625 611 639 c 132,-1,8
 596 653 596 653 596 681 c 4,9,10
 596 710 596 710 611 723.5 c 132,-1,11
 626 737 626 737 648 737 c 4,0,1
535 363 m 2,12,13
 535 347 535 347 533.5 321 c 128,-1,14
 532 295 532 295 531 276 c 1,15,-1
 535 276 l 1,16,17
 541 284 541 284 553 299 c 128,-1,18
 565 314 565 314 577.5 329.5 c 128,-1,19
 590 345 590 345 599 355 c 2,20,-1
 770 536 l 1,21,-1
 873 536 l 1,22,-1
 656 307 l 1,23,-1
 888 0 l 1,24,-1
 782 0 l 1,25,-1
 596 250 l 1,26,-1
 535 197 l 1,27,-1
 535 0 l 1,28,-1
 448 0 l 1,29,-1
 448 536 l 1,30,-1
 535 536 l 1,31,-1
 535 363 l 2,12,13
EndSplineSet
EndChar

StartChar: L
Encoding: 76 76 52
Width: 1336
Flags: W
LayerCount: 2
Fore
SplineSet
718.5 723 m 0,0,1
 773.5 723 773.5 723 817.5 711 c 128,-1,2
 861.5 699 861.5 699 895.5 682 c 1,3,-1
 864.5 612 l 1,4,5
 834.5 626 834.5 626 798 638 c 128,-1,6
 761.5 650 761.5 650 720.5 650 c 0,7,8
 663.5 650 663.5 650 633.5 620.5 c 128,-1,9
 603.5 591 603.5 591 603.5 525 c 2,10,-1
 603.5 386 l 1,11,-1
 807.5 386 l 1,12,-1
 807.5 320 l 1,13,-1
 603.5 320 l 1,14,-1
 603.5 216 l 2,15,16
 603.5 176 603.5 176 594 149.5 c 128,-1,17
 584.5 123 584.5 123 569 107 c 128,-1,18
 553.5 91 553.5 91 535.5 80 c 1,19,-1
 919.5 80 l 1,20,-1
 919.5 0 l 1,21,-1
 416.5 0 l 1,22,-1
 416.5 74 l 1,23,24
 445.5 81 445.5 81 467.5 97.5 c 128,-1,25
 489.5 114 489.5 114 502.5 142.5 c 128,-1,26
 515.5 171 515.5 171 515.5 215 c 2,27,-1
 515.5 320 l 1,28,-1
 419.5 320 l 1,29,-1
 419.5 386 l 1,30,-1
 515.5 386 l 1,31,-1
 515.5 534 l 2,32,33
 515.5 594 515.5 594 540.5 636 c 128,-1,34
 565.5 678 565.5 678 611.5 700.5 c 128,-1,35
 657.5 723 657.5 723 718.5 723 c 0,0,1
EndSplineSet
EndChar

StartChar: M
Encoding: 77 77 53
Width: 1336
Flags: W
LayerCount: 2
Fore
SplineSet
871.5 546 m 0,0,1
 962.5 546 962.5 546 1007.5 499.5 c 128,-1,2
 1052.5 453 1052.5 453 1052.5 349 c 2,3,-1
 1052.5 0 l 1,4,-1
 965.5 0 l 1,5,-1
 965.5 345 l 2,6,7
 965.5 408 965.5 408 939 440 c 128,-1,8
 912.5 472 912.5 472 856.5 472 c 0,9,10
 778.5 472 778.5 472 745 427 c 128,-1,11
 711.5 382 711.5 382 711.5 296 c 2,12,-1
 711.5 0 l 1,13,-1
 624.5 0 l 1,14,-1
 624.5 345 l 2,15,16
 624.5 387 624.5 387 612.5 415.5 c 128,-1,17
 600.5 444 600.5 444 576.5 458 c 128,-1,18
 552.5 472 552.5 472 514.5 472 c 0,19,20
 460.5 472 460.5 472 429.5 449.5 c 128,-1,21
 398.5 427 398.5 427 385 384 c 128,-1,22
 371.5 341 371.5 341 371.5 278 c 2,23,-1
 371.5 0 l 1,24,-1
 283.5 0 l 1,25,-1
 283.5 536 l 1,26,-1
 354.5 536 l 1,27,-1
 367.5 463 l 1,28,-1
 372.5 463 l 1,29,30
 389.5 491 389.5 491 414 509.5 c 128,-1,31
 438.5 528 438.5 528 468.5 537 c 128,-1,32
 498.5 546 498.5 546 530.5 546 c 0,33,34
 592.5 546 592.5 546 634 524 c 128,-1,35
 675.5 502 675.5 502 694.5 456 c 1,36,-1
 699.5 456 l 1,37,38
 726.5 502 726.5 502 773 524 c 128,-1,39
 819.5 546 819.5 546 871.5 546 c 0,0,1
678.5 737 m 0,40,41
 698.5 737 698.5 737 714 723.5 c 128,-1,42
 729.5 710 729.5 710 729.5 681 c 0,43,44
 729.5 653 729.5 653 714 639 c 128,-1,45
 698.5 625 698.5 625 678.5 625 c 0,46,47
 656.5 625 656.5 625 641.5 639 c 128,-1,48
 626.5 653 626.5 653 626.5 681 c 0,49,50
 626.5 710 626.5 710 641.5 723.5 c 128,-1,51
 656.5 737 656.5 737 678.5 737 c 0,40,41
EndSplineSet
EndChar

StartChar: N
Encoding: 78 78 54
Width: 1336
Flags: W
LayerCount: 2
Fore
SplineSet
642 737 m 4,0,1
 662 737 662 737 677.5 723.5 c 132,-1,2
 693 710 693 710 693 681 c 4,3,4
 693 653 693 653 677.5 639 c 132,-1,5
 662 625 662 625 642 625 c 4,6,7
 620 625 620 625 605 639 c 132,-1,8
 590 653 590 653 590 681 c 4,9,10
 590 710 590 710 605 723.5 c 132,-1,11
 620 737 620 737 642 737 c 4,0,1
700 546 m 0,12,13
 796 546 796 546 845 499.5 c 128,-1,14
 894 453 894 453 894 349 c 2,15,-1
 894 0 l 1,16,-1
 807 0 l 1,17,-1
 807 343 l 2,18,19
 807 408 807 408 778 440 c 128,-1,20
 749 472 749 472 687 472 c 0,21,22
 598 472 598 472 564 422 c 128,-1,23
 530 372 530 372 530 278 c 2,24,-1
 530 0 l 1,25,-1
 442 0 l 1,26,-1
 442 536 l 1,27,-1
 513 536 l 1,28,-1
 526 463 l 1,29,-1
 531 463 l 1,30,31
 549 491 549 491 575.5 509.5 c 128,-1,32
 602 528 602 528 634 537 c 128,-1,33
 666 546 666 546 700 546 c 0,12,13
EndSplineSet
EndChar

StartChar: O
Encoding: 79 79 55
Width: 1336
Flags: W
LayerCount: 2
Fore
SplineSet
916 269 m 256,0,1
 916 180 916 180 885.5 117.5 c 128,-1,2
 855 55 855 55 799 22.5 c 128,-1,3
 743 -10 743 -10 666 -10 c 0,4,5
 595 -10 595 -10 539.5 22.5 c 128,-1,6
 484 55 484 55 452 117.5 c 128,-1,7
 420 180 420 180 420 269 c 0,8,9
 420 402 420 402 487 474 c 128,-1,10
 554 546 554 546 669 546 c 0,11,12
 742 546 742 546 797.5 513.5 c 128,-1,13
 853 481 853 481 884.5 419.5 c 128,-1,14
 916 358 916 358 916 269 c 256,0,1
668 63 m 256,15,16
 719 63 719 63 752.5 83 c 128,-1,17
 786 103 786 103 803.5 142.5 c 128,-1,18
 821 182 821 182 824 239 c 1,19,-1
 511 239 l 1,20,21
 514 182 514 182 532 142.5 c 128,-1,22
 550 103 550 103 583.5 83 c 128,-1,23
 617 63 617 63 668 63 c 256,15,16
667 472 m 0,24,25
 593 472 593 472 556 431.5 c 128,-1,26
 519 391 519 391 512 312 c 1,27,-1
 824 312 l 1,28,29
 819 365 819 365 800.5 400.5 c 128,-1,30
 782 436 782 436 749 454 c 128,-1,31
 716 472 716 472 667 472 c 0,24,25
EndSplineSet
EndChar

StartChar: P
Encoding: 80 80 56
Width: 1336
Flags: W
LayerCount: 2
Fore
SplineSet
549 744 m 4,0,1
 569 744 569 744 584.5 730.5 c 132,-1,2
 600 717 600 717 600 688 c 4,3,4
 600 660 600 660 584.5 646 c 132,-1,5
 569 632 569 632 549 632 c 4,6,7
 527 632 527 632 512 646 c 132,-1,8
 497 660 497 660 497 688 c 4,9,10
 497 717 497 717 512 730.5 c 132,-1,11
 527 744 527 744 549 744 c 4,0,1
687 546 m 0,12,13
 747 546 747 546 794 521 c 128,-1,14
 841 496 841 496 868 446.5 c 128,-1,15
 895 397 895 397 895 323 c 0,16,17
 895 252 895 252 868 193 c 128,-1,18
 841 134 841 134 792 90.5 c 128,-1,19
 743 47 743 47 676 21 c 128,-1,20
 609 -5 609 -5 529 -10 c 1,21,-1
 529 -240 l 1,22,-1
 441 -240 l 1,23,-1
 441 536 l 1,24,-1
 513 536 l 1,25,-1
 525 463 l 1,26,-1
 529 463 l 1,27,28
 544 486 544 486 565 505 c 128,-1,29
 586 524 586 524 616 535 c 128,-1,30
 646 546 646 546 687 546 c 0,12,13
669 472 m 0,31,32
 619 472 619 472 588 451.5 c 128,-1,33
 557 431 557 431 543 390 c 128,-1,34
 529 349 529 349 529 286 c 2,35,-1
 529 62 l 1,36,37
 594 70 594 70 644.5 91.5 c 128,-1,38
 695 113 695 113 731 146.5 c 128,-1,39
 767 180 767 180 785.5 224 c 128,-1,40
 804 268 804 268 804 321 c 0,41,42
 804 367 804 367 788 400.5 c 128,-1,43
 772 434 772 434 742 453 c 128,-1,44
 712 472 712 472 669 472 c 0,31,32
EndSplineSet
EndChar

StartChar: Q
Encoding: 81 81 57
Width: 1336
Flags: W
LayerCount: 2
Fore
SplineSet
919 -5 m 1,0,1
 899 -5 899 -5 880 2 c 128,-1,2
 861 9 861 9 847 26 c 1,3,-1
 847 291 l 5,4,5
 819 266 819 266 782 250.5 c 132,-1,6
 745 235 745 235 695 235 c 4,7,8
 653 235 653 235 604 258 c 132,-1,9
 555 281 555 281 513 318 c 132,-1,10
 471 355 471 355 443 401 c 132,-1,11
 415 447 415 447 415 493 c 4,12,13
 415 541 415 541 432.5 578 c 132,-1,14
 450 615 450 615 480 640.5 c 132,-1,15
 510 666 510 666 550.5 679 c 132,-1,16
 591 692 591 692 637 692 c 4,17,18
 671 692 671 692 701 684 c 4,19,20
 750 671 750 671 757 662.5 c 4,21,22
 792 622 792 622 805.5 631.5 c 4,23,24
 809 634 809 634 847 718 c 5,25,-1
 845 717 l 5,26,-1
 921 717 l 6,27,-1
 919 -5 l 1,0,1
638 292 m 4,28,29
 676 292 676 292 712 304.5 c 132,-1,30
 748 317 748 317 778 340 c 5,31,-1
 545 580 l 5,32,33
 518 556 518 556 503 521.5 c 132,-1,34
 488 487 488 487 488 442 c 4,35,36
 488 406 488 406 499.5 378 c 132,-1,37
 511 350 511 350 531 331 c 132,-1,38
 551 312 551 312 578.5 302 c 132,-1,39
 606 292 606 292 638 292 c 4,28,29
847 571 m 5,40,41
 812 598 812 598 774.5 613.5 c 132,-1,42
 737 629 737 629 688 629 c 4,43,44
 616 629 616 629 565 596 c 5,45,-1
 796 356 l 5,46,47
 812 371 812 371 825 389 c 132,-1,48
 838 407 838 407 847 427 c 5,49,-1
 847 571 l 5,40,41
EndSplineSet
EndChar

StartChar: R
Encoding: 82 82 58
Width: 1336
Flags: W
LayerCount: 2
Fore
SplineSet
685.5 744 m 4,0,1
 705.5 744 705.5 744 721 730.5 c 132,-1,2
 736.5 717 736.5 717 736.5 688 c 4,3,4
 736.5 660 736.5 660 721 646 c 132,-1,5
 705.5 632 705.5 632 685.5 632 c 4,6,7
 663.5 632 663.5 632 648.5 646 c 132,-1,8
 633.5 660 633.5 660 633.5 688 c 4,9,10
 633.5 717 633.5 717 648.5 730.5 c 132,-1,11
 663.5 744 663.5 744 685.5 744 c 4,0,1
761.5 546 m 0,12,13
 776.5 546 776.5 546 794 544.5 c 128,-1,14
 811.5 543 811.5 543 824.5 540 c 1,15,-1
 813.5 459 l 1,16,17
 800.5 462 800.5 462 785 464 c 128,-1,18
 769.5 466 769.5 466 755.5 466 c 0,19,20
 724.5 466 724.5 466 696.5 453 c 128,-1,21
 668.5 440 668.5 440 646.5 416.5 c 128,-1,22
 624.5 393 624.5 393 612 360 c 128,-1,23
 599.5 327 599.5 327 599.5 286 c 2,24,-1
 599.5 0 l 1,25,-1
 511.5 0 l 1,26,-1
 511.5 536 l 1,27,-1
 583.5 536 l 1,28,-1
 593.5 438 l 1,29,-1
 597.5 438 l 1,30,31
 614.5 468 614.5 468 638.5 492.5 c 128,-1,32
 662.5 517 662.5 517 693.5 531.5 c 128,-1,33
 724.5 546 724.5 546 761.5 546 c 0,12,13
EndSplineSet
EndChar

StartChar: S
Encoding: 83 83 59
Width: 1336
Flags: W
LayerCount: 2
Fore
SplineSet
684.5 744 m 4,0,1
 704.5 744 704.5 744 720 730.5 c 132,-1,2
 735.5 717 735.5 717 735.5 688 c 4,3,4
 735.5 660 735.5 660 720 646 c 132,-1,5
 704.5 632 704.5 632 684.5 632 c 4,6,7
 662.5 632 662.5 632 647.5 646 c 132,-1,8
 632.5 660 632.5 660 632.5 688 c 4,9,10
 632.5 717 632.5 717 647.5 730.5 c 132,-1,11
 662.5 744 662.5 744 684.5 744 c 4,0,1
859.5 148 m 0,12,13
 859.5 96 859.5 96 833.5 61 c 128,-1,14
 807.5 26 807.5 26 759.5 8 c 128,-1,15
 711.5 -10 711.5 -10 645.5 -10 c 0,16,17
 589.5 -10 589.5 -10 549 -1 c 128,-1,18
 508.5 8 508.5 8 477.5 24 c 1,19,-1
 477.5 104 l 1,20,21
 509.5 88 509.5 88 555 74.5 c 128,-1,22
 600.5 61 600.5 61 647.5 61 c 0,23,24
 714.5 61 714.5 61 744.5 82.5 c 128,-1,25
 774.5 104 774.5 104 774.5 140 c 0,26,27
 774.5 160 774.5 160 763.5 176 c 128,-1,28
 752.5 192 752.5 192 724 208 c 128,-1,29
 695.5 224 695.5 224 642.5 244 c 0,30,31
 590.5 264 590.5 264 553.5 284 c 128,-1,32
 516.5 304 516.5 304 496.5 332 c 128,-1,33
 476.5 360 476.5 360 476.5 404 c 0,34,35
 476.5 472 476.5 472 532 509 c 128,-1,36
 587.5 546 587.5 546 677.5 546 c 0,37,38
 726.5 546 726.5 546 769 536.5 c 128,-1,39
 811.5 527 811.5 527 848.5 510 c 1,40,-1
 818.5 440 l 1,41,42
 784.5 454 784.5 454 747.5 464 c 128,-1,43
 710.5 474 710.5 474 671.5 474 c 0,44,45
 617.5 474 617.5 474 589 456.5 c 128,-1,46
 560.5 439 560.5 439 560.5 409 c 0,47,48
 560.5 387 560.5 387 573.5 371.5 c 128,-1,49
 586.5 356 586.5 356 617 341.5 c 128,-1,50
 647.5 327 647.5 327 698.5 307 c 0,51,52
 749.5 288 749.5 288 785.5 268 c 128,-1,53
 821.5 248 821.5 248 840.5 219.5 c 128,-1,54
 859.5 191 859.5 191 859.5 148 c 0,12,13
EndSplineSet
EndChar

StartChar: T
Encoding: 84 84 60
Width: 1336
Flags: W
AnchorPoint: "Anchor-0" 675.5 -24 basechar 0
LayerCount: 2
Fore
SplineSet
667.5 -12 m 0,0,1
 598.5 -12 598.5 -12 546.5 4 c 128,-1,2
 494.5 20 494.5 20 460.5 49.5 c 128,-1,3
 426.5 79 426.5 79 409.5 117.5 c 128,-1,4
 392.5 156 392.5 156 392.5 201 c 0,5,6
 392.5 215 392.5 215 394 230.5 c 128,-1,7
 395.5 246 395.5 246 398.5 259 c 1,8,-1
 477.5 248 l 1,9,10
 475.5 238 475.5 238 474.5 229 c 128,-1,11
 473.5 220 473.5 220 473.5 209 c 0,12,13
 473.5 183 473.5 183 482 158 c 128,-1,14
 490.5 133 490.5 133 512 112.5 c 128,-1,15
 533.5 92 533.5 92 571 79.5 c 128,-1,16
 608.5 67 608.5 67 666.5 67 c 0,17,18
 729.5 67 729.5 67 770 80 c 128,-1,19
 810.5 93 810.5 93 832.5 114 c 128,-1,20
 854.5 135 854.5 135 863 159 c 128,-1,21
 871.5 183 871.5 183 871.5 205 c 0,22,23
 871.5 228 871.5 228 866 249 c 128,-1,24
 860.5 270 860.5 270 846.5 287 c 0,25,26
 842.5 291 842.5 291 838.5 293.5 c 128,-1,27
 834.5 296 834.5 296 830.5 300 c 0,28,29
 811.5 316 811.5 316 785 325.5 c 128,-1,30
 758.5 335 758.5 335 721.5 335 c 0,31,32
 679.5 335 679.5 335 661.5 324.5 c 128,-1,33
 643.5 314 643.5 314 643.5 294 c 0,34,35
 643.5 275 643.5 275 660 264.5 c 128,-1,36
 676.5 254 676.5 254 708.5 254 c 0,37,38
 742.5 254 742.5 254 765 267.5 c 128,-1,39
 787.5 281 787.5 281 799 305 c 128,-1,40
 810.5 329 810.5 329 810.5 360 c 0,41,42
 810.5 399 810.5 399 791 425.5 c 128,-1,43
 771.5 452 771.5 452 745 467 c 128,-1,44
 718.5 482 718.5 482 697.5 486 c 1,45,-1
 816.5 492 l 1,46,47
 848.5 471 848.5 471 866.5 436.5 c 128,-1,48
 884.5 402 884.5 402 884.5 355 c 0,49,50
 884.5 347 884.5 347 884 340 c 128,-1,51
 883.5 333 883.5 333 882.5 328 c 2,52,-1
 876.5 300 l 2,53,54
 864.5 258 864.5 258 837 232 c 128,-1,55
 809.5 206 809.5 206 774 193.5 c 128,-1,56
 738.5 181 738.5 181 701.5 181 c 0,57,58
 637.5 181 637.5 181 600.5 209.5 c 128,-1,59
 563.5 238 563.5 238 563.5 293 c 0,60,61
 563.5 324 563.5 324 578.5 348.5 c 128,-1,62
 593.5 373 593.5 373 626 387.5 c 128,-1,63
 658.5 402 658.5 402 710.5 402 c 0,64,65
 747.5 402 747.5 402 779 395 c 128,-1,66
 810.5 388 810.5 388 835.5 375 c 0,67,68
 838.5 374 838.5 374 841.5 372.5 c 128,-1,69
 844.5 371 844.5 371 847.5 369.5 c 128,-1,70
 850.5 368 850.5 368 853.5 366 c 0,71,72
 899.5 339 899.5 339 921.5 296.5 c 128,-1,73
 943.5 254 943.5 254 943.5 207 c 0,74,75
 943.5 156 943.5 156 927 115.5 c 128,-1,76
 910.5 75 910.5 75 876.5 46.5 c 128,-1,77
 842.5 18 842.5 18 790.5 3 c 128,-1,78
 738.5 -12 738.5 -12 667.5 -12 c 0,0,1
436.5 474 m 5,79,-1
 436.5 551 l 5,80,-1
 732.5 551 l 2,81,82
 786.5 551 786.5 551 808.5 556 c 128,-1,83
 830.5 561 830.5 561 840.5 569 c 0,84,85
 854.5 579 854.5 579 858.5 591.5 c 128,-1,86
 862.5 604 862.5 604 862.5 618 c 0,87,88
 862.5 651 862.5 651 846.5 682.5 c 128,-1,89
 830.5 714 830.5 714 797.5 747 c 1,90,-1
 862.5 790 l 1,91,92
 909.5 738 909.5 738 926.5 696.5 c 128,-1,93
 943.5 655 943.5 655 943.5 612 c 0,94,95
 943.5 593 943.5 593 936 565.5 c 128,-1,96
 928.5 538 928.5 538 902.5 516 c 0,97,98
 877.5 494 877.5 494 843 484 c 128,-1,99
 808.5 474 808.5 474 750.5 474 c 2,100,-1
 436.5 474 l 5,79,-1
EndSplineSet
EndChar

StartChar: U
Encoding: 85 85 61
Width: 1336
Flags: W
LayerCount: 2
Fore
SplineSet
891 536 m 1,0,-1
 891 0 l 1,1,-1
 819 0 l 1,2,-1
 806 71 l 1,3,-1
 802 71 l 1,4,5
 785 43 785 43 758 25 c 128,-1,6
 731 7 731 7 699 -1.5 c 128,-1,7
 667 -10 667 -10 632 -10 c 0,8,9
 568 -10 568 -10 524.5 10.5 c 128,-1,10
 481 31 481 31 459 74 c 128,-1,11
 437 117 437 117 437 185 c 2,12,-1
 437 536 l 1,13,-1
 526 536 l 1,14,-1
 526 191 l 2,15,16
 526 127 526 127 555 95 c 128,-1,17
 584 63 584 63 645 63 c 0,18,19
 705 63 705 63 739.5 85.5 c 128,-1,20
 774 108 774 108 788.5 151.5 c 128,-1,21
 803 195 803 195 803 257 c 2,22,-1
 803 536 l 1,23,-1
 891 536 l 1,0,-1
806 -116 m 0,24,25
 806 -138 806 -138 818 -149.5 c 128,-1,26
 830 -161 830 -161 851 -161 c 0,27,28
 868 -161 868 -161 879.5 -158.5 c 128,-1,29
 891 -156 891 -156 899 -155 c 1,30,-1
 899 -211 l 1,31,32
 885 -215 885 -215 871 -217.5 c 128,-1,33
 857 -220 857 -220 837 -220 c 0,34,35
 784 -220 784 -220 759 -195 c 128,-1,36
 734 -170 734 -170 734 -126 c 0,37,38
 734 -97 734 -97 748.5 -70 c 128,-1,39
 763 -43 763 -43 784.5 -21 c 128,-1,40
 806 1 806 1 826 15 c 1,41,-1
 874 0 l 1,42,43
 840 -32 840 -32 823 -58.5 c 128,-1,44
 806 -85 806 -85 806 -116 c 0,24,25
EndSplineSet
EndChar

StartChar: V
Encoding: 86 86 62
Width: 1336
Flags: W
LayerCount: 2
Fore
SplineSet
656 737 m 4,0,1
 676 737 676 737 691.5 723.5 c 132,-1,2
 707 710 707 710 707 681 c 4,3,4
 707 653 707 653 691.5 639 c 132,-1,5
 676 625 676 625 656 625 c 4,6,7
 634 625 634 625 619 639 c 132,-1,8
 604 653 604 653 604 681 c 4,9,10
 604 710 604 710 619 723.5 c 132,-1,11
 634 737 634 737 656 737 c 4,0,1
615 0 m 1,12,-1
 425 536 l 1,13,-1
 516 536 l 1,14,-1
 613 247 l 2,15,16
 621 223 621 223 633 190 c 128,-1,17
 645 157 645 157 655.5 125.5 c 128,-1,18
 666 94 666 94 671 74 c 1,19,-1
 675 74 l 1,20,21
 732 137 732 137 764.5 206.5 c 128,-1,22
 797 276 797 276 810.5 357.5 c 128,-1,23
 824 439 824 439 824 536 c 1,24,-1
 911 536 l 1,25,26
 911 431 911 431 893 340.5 c 128,-1,27
 875 250 875 250 831.5 166.5 c 128,-1,28
 788 83 788 83 710 0 c 1,29,-1
 615 0 l 1,12,-1
EndSplineSet
EndChar

StartChar: W
Encoding: 87 87 63
Width: 1336
Flags: W
LayerCount: 2
Fore
SplineSet
524 -10 m 0,0,1
 462 -10 462 -10 419.5 24 c 128,-1,2
 377 58 377 58 355 119 c 128,-1,3
 333 180 333 180 333 260 c 0,4,5
 333 322 333 322 344.5 467 c 128,-1,6
 356 612 356 612 375 652 c 5,7,-1
 261 652 l 5,8,-1
 261 725 l 5,9,-1
 1075 725 l 5,10,-1
 1075 652 l 5,11,-1
 961 652 l 5,12,13
 981 612 981 612 992 467 c 128,-1,14
 1003 322 1003 322 1003 260 c 0,15,16
 1003 180 1003 180 981 119 c 128,-1,17
 959 58 959 58 916.5 24 c 128,-1,18
 874 -10 874 -10 812 -10 c 0,19,20
 757 -10 757 -10 722 15.5 c 128,-1,21
 687 41 687 41 670 100 c 1,22,-1
 665 100 l 1,23,24
 655 61 655 61 636 36.5 c 128,-1,25
 617 12 617 12 589 1 c 128,-1,26
 561 -10 561 -10 524 -10 c 0,0,1
530 63 m 0,27,28
 563 63 563 63 584.5 80 c 128,-1,29
 606 97 606 97 616 126.5 c 128,-1,30
 626 156 626 156 626 193 c 2,31,-1
 626 344 l 1,32,-1
 710 344 l 1,33,-1
 710 193 l 2,34,35
 710 152 710 152 721.5 122.5 c 128,-1,36
 733 93 733 93 754 78 c 128,-1,37
 775 63 775 63 805 63 c 0,38,39
 839 63 839 63 863.5 85 c 128,-1,40
 888 107 888 107 901.5 151 c 128,-1,41
 915 195 915 195 915 259 c 0,42,43
 915 322 915 322 904 467 c 128,-1,44
 893 612 893 612 873 652 c 5,45,-1
 464 652 l 5,46,47
 445 612 445 612 433 467 c 128,-1,48
 421 322 421 322 421 259 c 0,49,50
 421 162 421 162 451 112.5 c 128,-1,51
 481 63 481 63 530 63 c 0,27,28
EndSplineSet
EndChar

StartChar: X
Encoding: 88 88 64
Width: 1336
Flags: W
LayerCount: 2
Fore
SplineSet
659 722 m 0,0,1
 679 722 679 722 694.5 708.5 c 128,-1,2
 710 695 710 695 710 666 c 0,3,4
 710 638 710 638 694.5 624 c 128,-1,5
 679 610 679 610 659 610 c 0,6,7
 637 610 637 610 622 624 c 128,-1,8
 607 638 607 638 607 666 c 0,9,10
 607 695 607 695 622 708.5 c 128,-1,11
 637 722 637 722 659 722 c 0,0,1
839 574 m 1,12,-1
 889 523 l 1,13,-1
 719 353 l 1,14,-1
 888 183 l 1,15,-1
 838 132 l 1,16,-1
 667 301 l 1,17,-1
 500 132 l 1,18,-1
 448 183 l 1,19,-1
 617 353 l 1,20,-1
 447 522 l 1,21,-1
 499 574 l 1,22,-1
 668 403 l 1,23,-1
 839 574 l 1,12,-1
EndSplineSet
EndChar

StartChar: Y
Encoding: 89 89 65
Width: 1336
Flags: W
LayerCount: 2
Fore
SplineSet
671.5 744 m 4,0,1
 691.5 744 691.5 744 707 730.5 c 132,-1,2
 722.5 717 722.5 717 722.5 688 c 4,3,4
 722.5 660 722.5 660 707 646 c 132,-1,5
 691.5 632 691.5 632 671.5 632 c 4,6,7
 649.5 632 649.5 632 634.5 646 c 132,-1,8
 619.5 660 619.5 660 619.5 688 c 4,9,10
 619.5 717 619.5 717 634.5 730.5 c 132,-1,11
 649.5 744 649.5 744 671.5 744 c 4,0,1
413.5 536 m 1,12,-1
 507.5 536 l 1,13,-1
 623.5 231 l 2,14,15
 633.5 204 633.5 204 642 179 c 128,-1,16
 650.5 154 650.5 154 657.5 130.5 c 128,-1,17
 664.5 107 664.5 107 668.5 85 c 1,18,-1
 672.5 85 l 1,19,20
 678.5 110 678.5 110 691.5 150.5 c 128,-1,21
 704.5 191 704.5 191 718.5 232 c 2,22,-1
 827.5 536 l 1,23,-1
 922.5 536 l 1,24,-1
 691.5 -74 l 2,25,26
 672.5 -124 672.5 -124 647 -161.5 c 128,-1,27
 621.5 -199 621.5 -199 585 -219.5 c 128,-1,28
 548.5 -240 548.5 -240 496.5 -240 c 0,29,30
 472.5 -240 472.5 -240 454.5 -237.5 c 128,-1,31
 436.5 -235 436.5 -235 423.5 -232 c 1,32,-1
 423.5 -162 l 1,33,34
 434.5 -164 434.5 -164 450 -166 c 128,-1,35
 465.5 -168 465.5 -168 482.5 -168 c 0,36,37
 513.5 -168 513.5 -168 536 -156.5 c 128,-1,38
 558.5 -145 558.5 -145 574.5 -123.5 c 128,-1,39
 590.5 -102 590.5 -102 601.5 -73 c 2,40,-1
 629.5 -2 l 1,41,-1
 413.5 536 l 1,12,-1
EndSplineSet
EndChar

StartChar: Z
Encoding: 90 90 66
Width: 1336
Flags: W
LayerCount: 2
Fore
SplineSet
457 0 m 1,0,-1
 457 56 l 1,1,-1
 760 499 l 1,2,-1
 468 499 l 1,3,-1
 468 572 l 1,4,-1
 871 572 l 1,5,-1
 871 515 l 1,6,-1
 568 73 l 1,7,-1
 879 73 l 1,8,-1
 879 0 l 1,9,-1
 457 0 l 1,0,-1
673 773 m 0,10,11
 693 773 693 773 708.5 759.5 c 128,-1,12
 724 746 724 746 724 717 c 0,13,14
 724 689 724 689 708.5 675 c 128,-1,15
 693 661 693 661 673 661 c 0,16,17
 651 661 651 661 636 675 c 128,-1,18
 621 689 621 689 621 717 c 0,19,20
 621 746 621 746 636 759.5 c 128,-1,21
 651 773 651 773 673 773 c 0,10,11
EndSplineSet
EndChar

StartChar: a
Encoding: 97 97 67
Width: 1336
Flags: W
LayerCount: 2
Fore
SplineSet
693 545 m 0,0,1
 791 545 791 545 838 502 c 128,-1,2
 885 459 885 459 885 365 c 2,3,-1
 885 0 l 1,4,-1
 821 0 l 1,5,-1
 804 76 l 1,6,-1
 800 76 l 1,7,8
 777 47 777 47 752.5 27.5 c 128,-1,9
 728 8 728 8 696.5 -1 c 128,-1,10
 665 -10 665 -10 620 -10 c 0,11,12
 572 -10 572 -10 533.5 7 c 128,-1,13
 495 24 495 24 473 59.5 c 128,-1,14
 451 95 451 95 451 149 c 0,15,16
 451 229 451 229 514 272.5 c 128,-1,17
 577 316 577 316 708 320 c 2,18,-1
 799 323 l 1,19,-1
 799 355 l 2,20,21
 799 422 799 422 770 448 c 128,-1,22
 741 474 741 474 688 474 c 0,23,24
 646 474 646 474 608 461.5 c 128,-1,25
 570 449 570 449 537 433 c 1,26,-1
 510 499 l 1,27,28
 545 518 545 518 593 531.5 c 128,-1,29
 641 545 641 545 693 545 c 0,0,1
719 259 m 2,30,31
 619 255 619 255 580.5 227 c 128,-1,32
 542 199 542 199 542 148 c 0,33,34
 542 103 542 103 569.5 82 c 128,-1,35
 597 61 597 61 640 61 c 0,36,37
 708 61 708 61 753 98.5 c 128,-1,38
 798 136 798 136 798 214 c 2,39,-1
 798 262 l 1,40,-1
 719 259 l 2,30,31
EndSplineSet
EndChar

StartChar: b
Encoding: 98 98 68
Width: 1336
Flags: W
AnchorPoint: "Anchor-0" 668.5 -24 basechar 0
LayerCount: 2
Fore
SplineSet
830.5 -12 m 0,0,1
 791.5 -12 791.5 -12 760 -0.5 c 128,-1,2
 728.5 11 728.5 11 702.5 37 c 128,-1,3
 676.5 63 676.5 63 652.5 105 c 1,4,-1
 684.5 104 l 1,5,6
 661.5 59 661.5 59 634 34 c 128,-1,7
 606.5 9 606.5 9 572 -1.5 c 128,-1,8
 537.5 -12 537.5 -12 491.5 -12 c 0,9,10
 435.5 -12 435.5 -12 397.5 9.5 c 128,-1,11
 359.5 31 359.5 31 341 65 c 128,-1,12
 322.5 99 322.5 99 322.5 136 c 0,13,14
 322.5 179 322.5 179 339 210 c 128,-1,15
 355.5 241 355.5 241 386.5 267.5 c 128,-1,16
 417.5 294 417.5 294 460.5 321 c 0,17,18
 498.5 346 498.5 346 521.5 368 c 128,-1,19
 544.5 390 544.5 390 544.5 422 c 0,20,21
 544.5 443 544.5 443 536.5 458.5 c 128,-1,22
 528.5 474 528.5 474 511 482 c 128,-1,23
 493.5 490 493.5 490 463.5 490 c 0,24,25
 420.5 490 420.5 490 400.5 471.5 c 128,-1,26
 380.5 453 380.5 453 380.5 422 c 0,27,28
 380.5 406 380.5 406 385.5 391.5 c 128,-1,29
 390.5 377 390.5 377 400.5 363 c 1,30,-1
 330.5 332 l 1,31,32
 314.5 357 314.5 357 307 381.5 c 128,-1,33
 299.5 406 299.5 406 299.5 431 c 0,34,35
 299.5 466 299.5 466 317.5 496 c 128,-1,36
 335.5 526 335.5 526 372 544.5 c 128,-1,37
 408.5 563 408.5 563 464.5 563 c 0,38,39
 526.5 563 526.5 563 561.5 541.5 c 128,-1,40
 596.5 520 596.5 520 611 488 c 128,-1,41
 625.5 456 625.5 456 625.5 423 c 0,42,43
 625.5 387 625.5 387 610 358.5 c 128,-1,44
 594.5 330 594.5 330 566 305 c 128,-1,45
 537.5 280 537.5 280 497.5 254 c 0,46,47
 451.5 224 451.5 224 428 201 c 128,-1,48
 404.5 178 404.5 178 404.5 141 c 0,49,50
 404.5 102 404.5 102 430.5 84.5 c 128,-1,51
 456.5 67 456.5 67 496.5 67 c 0,52,53
 563.5 67 563.5 67 595.5 102 c 128,-1,54
 627.5 137 627.5 137 631.5 195 c 1,55,-1
 707.5 195 l 1,56,57
 712.5 128 712.5 128 749 97.5 c 128,-1,58
 785.5 67 785.5 67 834.5 67 c 0,59,60
 889.5 67 889.5 67 922 106 c 128,-1,61
 954.5 145 954.5 145 954.5 210 c 0,62,63
 954.5 280 954.5 280 930 333 c 128,-1,64
 905.5 386 905.5 386 861.5 424.5 c 128,-1,65
 817.5 463 817.5 463 758.5 488 c 1,66,-1
 801.5 565 l 1,67,68
 869.5 532 869.5 532 922.5 482 c 128,-1,69
 975.5 432 975.5 432 1006 365 c 128,-1,70
 1036.5 298 1036.5 298 1036.5 215 c 0,71,72
 1036.5 147 1036.5 147 1012.5 96 c 128,-1,73
 988.5 45 988.5 45 942.5 16.5 c 128,-1,74
 896.5 -12 896.5 -12 830.5 -12 c 0,0,1
EndSplineSet
EndChar

StartChar: c
Encoding: 99 99 69
Width: 1336
Flags: W
AnchorPoint: "Anchor-1" 668 536 basechar 0
AnchorPoint: "Anchor-0" 668 0 basechar 0
LayerCount: 2
Fore
SplineSet
724 -10 m 0,0,1
 606 -10 606 -10 541 57 c 128,-1,2
 476 124 476 124 476 245 c 0,3,4
 476 325 476 325 505 380.5 c 128,-1,5
 534 436 534 436 588 465 c 1,6,-1
 455 465 l 1,7,-1
 455 537 l 1,8,-1
 881 537 l 1,9,-1
 881 465 l 1,10,-1
 768 465 l 2,11,12
 674 465 674 465 620.5 411.5 c 128,-1,13
 567 358 567 358 567 252 c 0,14,15
 567 165 567 165 610 114.5 c 128,-1,16
 653 64 653 64 733 64 c 0,17,18
 770 64 770 64 804 73.5 c 128,-1,19
 838 83 838 83 870 99 c 1,20,-1
 870 21 l 1,21,22
 841 5 841 5 806 -2.5 c 128,-1,23
 771 -10 771 -10 724 -10 c 0,0,1
EndSplineSet
EndChar

StartChar: d
Encoding: 100 100 70
Width: 1336
Flags: W
AnchorPoint: "Anchor-0" 664.5 -24 basechar 0
LayerCount: 2
Fore
SplineSet
498.5 -12 m 0,0,1
 420.5 -12 420.5 -12 372.5 46 c 128,-1,2
 324.5 104 324.5 104 324.5 220 c 0,3,4
 324.5 282 324.5 282 342 334 c 128,-1,5
 359.5 386 359.5 386 394.5 425.5 c 128,-1,6
 429.5 465 429.5 465 479.5 487 c 1,7,-1
 494.5 474 l 1,8,-1
 324.5 474 l 1,9,-1
 324.5 551 l 1,10,-1
 800.5 551 l 2,11,12
 853.5 551 853.5 551 876 556 c 128,-1,13
 898.5 561 898.5 561 908.5 569 c 0,14,15
 922.5 579 922.5 579 926.5 591.5 c 128,-1,16
 930.5 604 930.5 604 930.5 618 c 0,17,18
 930.5 651 930.5 651 914.5 682.5 c 128,-1,19
 898.5 714 898.5 714 865.5 747 c 1,20,-1
 930.5 790 l 1,21,22
 977.5 738 977.5 738 994.5 696.5 c 128,-1,23
 1011.5 655 1011.5 655 1011.5 612 c 0,24,25
 1011.5 593 1011.5 593 1003.5 565.5 c 128,-1,26
 995.5 538 995.5 538 970.5 516 c 0,27,28
 960.5 507 960.5 507 946 499 c 128,-1,29
 931.5 491 931.5 491 913.5 485.5 c 128,-1,30
 895.5 480 895.5 480 871.5 477 c 1,31,-1
 874.5 488 l 1,32,33
 909.5 474 909.5 474 931.5 450 c 128,-1,34
 953.5 426 953.5 426 964 397 c 128,-1,35
 974.5 368 974.5 368 974.5 337 c 0,36,37
 974.5 319 974.5 319 972 305 c 128,-1,38
 969.5 291 969.5 291 961.5 275 c 0,39,40
 959.5 271 959.5 271 954.5 268 c 128,-1,41
 949.5 265 949.5 265 947.5 261 c 0,42,43
 930.5 232 930.5 232 899.5 213 c 128,-1,44
 868.5 194 868.5 194 824.5 194 c 0,45,46
 791.5 194 791.5 194 764 205.5 c 128,-1,47
 736.5 217 736.5 217 719.5 241 c 128,-1,48
 702.5 265 702.5 265 702.5 301 c 0,49,50
 702.5 353 702.5 353 737 377.5 c 128,-1,51
 771.5 402 771.5 402 816.5 402 c 0,52,53
 850.5 402 850.5 402 874 393.5 c 128,-1,54
 897.5 385 897.5 385 915.5 372 c 0,55,56
 960.5 347 960.5 347 986 296.5 c 128,-1,57
 1011.5 246 1011.5 246 1011.5 184 c 0,58,59
 1011.5 125 1011.5 125 988 81 c 128,-1,60
 964.5 37 964.5 37 924.5 12.5 c 128,-1,61
 884.5 -12 884.5 -12 832.5 -12 c 0,62,63
 764.5 -12 764.5 -12 724 14.5 c 128,-1,64
 683.5 41 683.5 41 648.5 104 c 1,65,-1
 680.5 109 l 1,66,67
 657.5 58 657.5 58 629 32 c 128,-1,68
 600.5 6 600.5 6 567.5 -3 c 128,-1,69
 534.5 -12 534.5 -12 498.5 -12 c 0,0,1
509.5 67 m 0,70,71
 559.5 67 559.5 67 588.5 100.5 c 128,-1,72
 617.5 134 617.5 134 626.5 184 c 1,73,-1
 702.5 184 l 1,74,75
 712.5 123 712.5 123 746 95 c 128,-1,76
 779.5 67 779.5 67 824.5 67 c 0,77,78
 854.5 67 854.5 67 880 79 c 128,-1,79
 905.5 91 905.5 91 921 117 c 128,-1,80
 936.5 143 936.5 143 936.5 185 c 0,81,82
 936.5 223 936.5 223 924.5 258.5 c 128,-1,83
 912.5 294 912.5 294 888 317.5 c 128,-1,84
 863.5 341 863.5 341 825.5 341 c 0,85,86
 804.5 341 804.5 341 791 330.5 c 128,-1,87
 777.5 320 777.5 320 777.5 301 c 0,88,89
 777.5 279 777.5 279 790.5 268 c 128,-1,90
 803.5 257 803.5 257 829.5 257 c 0,91,92
 845.5 257 845.5 257 863 264.5 c 128,-1,93
 880.5 272 880.5 272 892.5 289.5 c 128,-1,94
 904.5 307 904.5 307 904.5 337 c 256,95,96
 904.5 367 904.5 367 889 392.5 c 128,-1,97
 873.5 418 873.5 418 845 437 c 128,-1,98
 816.5 456 816.5 456 778 466 c 128,-1,99
 739.5 476 739.5 476 693.5 476 c 2,100,-1
 658.5 476 l 2,101,102
 596.5 476 596.5 476 549.5 457 c 128,-1,103
 502.5 438 502.5 438 470.5 403.5 c 128,-1,104
 438.5 369 438.5 369 422.5 322 c 128,-1,105
 406.5 275 406.5 275 406.5 220 c 0,106,107
 406.5 137 406.5 137 433.5 102 c 128,-1,108
 460.5 67 460.5 67 509.5 67 c 0,70,71
EndSplineSet
EndChar

StartChar: e
Encoding: 101 101 71
Width: 1336
Flags: W
LayerCount: 2
Fore
SplineSet
676 546 m 0,0,1
 745 546 745 546 794.5 516 c 128,-1,2
 844 486 844 486 870.5 431.5 c 128,-1,3
 897 377 897 377 897 304 c 2,4,-1
 897 251 l 1,5,-1
 530 251 l 1,6,7
 532 160 532 160 576.5 112.5 c 128,-1,8
 621 65 621 65 701 65 c 0,9,10
 752 65 752 65 791.5 74.5 c 128,-1,11
 831 84 831 84 873 102 c 1,12,-1
 873 25 l 1,13,14
 832 7 832 7 792 -1.5 c 128,-1,15
 752 -10 752 -10 697 -10 c 0,16,17
 621 -10 621 -10 562.5 21 c 128,-1,18
 504 52 504 52 471.5 113.5 c 128,-1,19
 439 175 439 175 439 264 c 0,20,21
 439 352 439 352 468.5 415 c 128,-1,22
 498 478 498 478 551.5 512 c 128,-1,23
 605 546 605 546 676 546 c 0,0,1
675 474 m 0,24,25
 612 474 612 474 575.5 433.5 c 128,-1,26
 539 393 539 393 532 321 c 1,27,-1
 805 321 l 1,28,29
 805 367 805 367 791 401 c 128,-1,30
 777 435 777 435 748.5 454.5 c 128,-1,31
 720 474 720 474 675 474 c 0,24,25
EndSplineSet
EndChar

StartChar: f
Encoding: 102 102 72
Width: 1336
Flags: W
AnchorPoint: "Anchor-0" 686.5 -24 basechar 0
LayerCount: 2
Fore
SplineSet
502.5 -12 m 0,0,1
 446.5 -12 446.5 -12 402 10 c 128,-1,2
 357.5 32 357.5 32 332.5 72 c 128,-1,3
 307.5 112 307.5 112 307.5 167 c 0,4,5
 307.5 211 307.5 211 325.5 246.5 c 128,-1,6
 343.5 282 343.5 282 377.5 303 c 128,-1,7
 411.5 324 411.5 324 459.5 324 c 0,8,9
 512.5 324 512.5 324 544.5 299 c 128,-1,10
 576.5 274 576.5 274 576.5 231 c 0,11,12
 576.5 215 576.5 215 573.5 199 c 128,-1,13
 570.5 183 570.5 183 563.5 172 c 1,14,-1
 495.5 178 l 1,15,16
 497.5 186 497.5 186 499.5 194.5 c 128,-1,17
 501.5 203 501.5 203 501.5 210 c 0,18,19
 501.5 232 501.5 232 489.5 243 c 128,-1,20
 477.5 254 477.5 254 456.5 254 c 0,21,22
 425.5 254 425.5 254 405 232.5 c 128,-1,23
 384.5 211 384.5 211 384.5 170 c 0,24,25
 384.5 125 384.5 125 415.5 96 c 128,-1,26
 446.5 67 446.5 67 510.5 67 c 0,27,28
 579.5 67 579.5 67 611.5 102 c 128,-1,29
 643.5 137 643.5 137 648.5 195 c 1,30,-1
 724.5 195 l 1,31,32
 729.5 128 729.5 128 764 97.5 c 128,-1,33
 798.5 67 798.5 67 846.5 67 c 0,34,35
 882.5 67 882.5 67 904.5 83 c 128,-1,36
 926.5 99 926.5 99 936.5 127.5 c 128,-1,37
 946.5 156 946.5 156 946.5 191 c 0,38,39
 946.5 237 946.5 237 928.5 284.5 c 128,-1,40
 910.5 332 910.5 332 862.5 387 c 1,41,-1
 933.5 435 l 1,42,43
 979.5 384 979.5 384 1004 326.5 c 128,-1,44
 1028.5 269 1028.5 269 1028.5 198 c 0,45,46
 1028.5 126 1028.5 126 1004 79.5 c 128,-1,47
 979.5 33 979.5 33 939.5 10.5 c 128,-1,48
 899.5 -12 899.5 -12 853.5 -12 c 0,49,50
 802.5 -12 802.5 -12 770.5 1 c 128,-1,51
 738.5 14 738.5 14 716.5 39.5 c 128,-1,52
 694.5 65 694.5 65 672.5 101 c 1,53,-1
 703.5 105 l 1,54,55
 677.5 57 677.5 57 648 32 c 128,-1,56
 618.5 7 618.5 7 583 -2.5 c 128,-1,57
 547.5 -12 547.5 -12 502.5 -12 c 0,0,1
640.5 -144 m 1,58,-1
 648.5 15 l 1,59,-1
 725.5 15 l 1,60,-1
 733.5 -144 l 1,61,-1
 640.5 -144 l 1,58,-1
677.5 297 m 0,62,63
 653.5 297 653.5 297 637 314 c 128,-1,64
 620.5 331 620.5 331 620.5 355 c 0,65,66
 620.5 381 620.5 381 637 398 c 128,-1,67
 653.5 415 653.5 415 677.5 415 c 0,68,69
 702.5 415 702.5 415 719.5 398 c 128,-1,70
 736.5 381 736.5 381 736.5 355 c 0,71,72
 736.5 331 736.5 331 719.5 314 c 128,-1,73
 702.5 297 702.5 297 677.5 297 c 0,62,63
395.5 474 m 5,74,-1
 395.5 551 l 5,75,-1
 817.5 551 l 2,76,77
 871.5 551 871.5 551 893.5 556 c 128,-1,78
 915.5 561 915.5 561 925.5 569 c 0,79,80
 939.5 579 939.5 579 943.5 591.5 c 128,-1,81
 947.5 604 947.5 604 947.5 618 c 0,82,83
 947.5 651 947.5 651 931.5 682.5 c 128,-1,84
 915.5 714 915.5 714 882.5 747 c 1,85,-1
 947.5 790 l 1,86,87
 994.5 738 994.5 738 1011.5 696.5 c 128,-1,88
 1028.5 655 1028.5 655 1028.5 612 c 0,89,90
 1028.5 593 1028.5 593 1021 565.5 c 128,-1,91
 1013.5 538 1013.5 538 987.5 516 c 0,92,93
 962.5 494 962.5 494 928 484 c 128,-1,94
 893.5 474 893.5 474 835.5 474 c 2,95,-1
 395.5 474 l 5,74,-1
EndSplineSet
EndChar

StartChar: g
Encoding: 103 103 73
Width: 1336
Flags: W
LayerCount: 2
Fore
SplineSet
650.5 546 m 0,0,1
 703.5 546 703.5 546 746 526 c 128,-1,2
 788.5 506 788.5 506 818.5 465 c 1,3,-1
 823.5 465 l 1,4,-1
 835.5 536 l 1,5,-1
 905.5 536 l 1,6,-1
 905.5 -9 l 2,7,8
 905.5 -85 905.5 -85 879.5 -136.5 c 128,-1,9
 853.5 -188 853.5 -188 800.5 -214 c 128,-1,10
 747.5 -240 747.5 -240 665.5 -240 c 0,11,12
 607.5 -240 607.5 -240 559 -231.5 c 128,-1,13
 510.5 -223 510.5 -223 472.5 -206 c 1,14,-1
 472.5 -125 l 1,15,16
 510.5 -145 510.5 -145 561.5 -156 c 128,-1,17
 612.5 -167 612.5 -167 670.5 -167 c 0,18,19
 739.5 -167 739.5 -167 779 -126.5 c 128,-1,20
 818.5 -86 818.5 -86 818.5 -16 c 2,21,-1
 818.5 5 l 2,22,23
 818.5 17 818.5 17 819.5 39.5 c 128,-1,24
 820.5 62 820.5 62 821.5 71 c 1,25,-1
 817.5 71 l 1,26,27
 789.5 30 789.5 30 748 10 c 128,-1,28
 706.5 -10 706.5 -10 651.5 -10 c 0,29,30
 547.5 -10 547.5 -10 489 63 c 128,-1,31
 430.5 136 430.5 136 430.5 267 c 0,32,33
 430.5 395 430.5 395 489 470.5 c 128,-1,34
 547.5 546 547.5 546 650.5 546 c 0,0,1
662.5 472 m 0,35,36
 617.5 472 617.5 472 586 448 c 128,-1,37
 554.5 424 554.5 424 538 378 c 128,-1,38
 521.5 332 521.5 332 521.5 266 c 0,39,40
 521.5 167 521.5 167 558 114.5 c 128,-1,41
 594.5 62 594.5 62 664.5 62 c 0,42,43
 705.5 62 705.5 62 734.5 72.5 c 128,-1,44
 763.5 83 763.5 83 782.5 105.5 c 128,-1,45
 801.5 128 801.5 128 810.5 163 c 128,-1,46
 819.5 198 819.5 198 819.5 246 c 2,47,-1
 819.5 267 l 2,48,49
 819.5 340 819.5 340 803 385 c 128,-1,50
 786.5 430 786.5 430 751.5 451 c 128,-1,51
 716.5 472 716.5 472 662.5 472 c 0,35,36
EndSplineSet
EndChar

StartChar: h
Encoding: 104 104 74
Width: 1336
Flags: W
LayerCount: 2
Fore
SplineSet
530 537 m 2,0,1
 530 518 530 518 528.5 498 c 128,-1,2
 527 478 527 478 525 462 c 1,3,-1
 531 462 l 1,4,5
 548 490 548 490 574 508 c 128,-1,6
 600 526 600 526 632 535.5 c 128,-1,7
 664 545 664 545 698 545 c 0,8,9
 763 545 763 545 806.5 524.5 c 128,-1,10
 850 504 850 504 872 461 c 128,-1,11
 894 418 894 418 894 349 c 2,12,-1
 894 0 l 1,13,-1
 807 0 l 1,14,-1
 807 343 l 2,15,16
 807 408 807 408 778 440 c 128,-1,17
 749 472 749 472 687 472 c 0,18,19
 627 472 627 472 593 449.5 c 128,-1,20
 559 427 559 427 544.5 383.5 c 128,-1,21
 530 340 530 340 530 277 c 2,22,-1
 530 0 l 1,23,-1
 442 0 l 1,24,-1
 442 760 l 1,25,-1
 530 760 l 1,26,-1
 530 537 l 2,0,1
EndSplineSet
EndChar

StartChar: i
Encoding: 105 105 75
Width: 1336
Flags: W
LayerCount: 2
Fore
SplineSet
711.5 536 m 1,0,-1
 711.5 0 l 1,1,-1
 623.5 0 l 1,2,-1
 623.5 536 l 1,3,-1
 711.5 536 l 1,0,-1
668.5 737 m 0,4,5
 688.5 737 688.5 737 704 723.5 c 128,-1,6
 719.5 710 719.5 710 719.5 681 c 0,7,8
 719.5 653 719.5 653 704 639 c 128,-1,9
 688.5 625 688.5 625 668.5 625 c 0,10,11
 646.5 625 646.5 625 631.5 639 c 128,-1,12
 616.5 653 616.5 653 616.5 681 c 0,13,14
 616.5 710 616.5 710 631.5 723.5 c 128,-1,15
 646.5 737 646.5 737 668.5 737 c 0,4,5
EndSplineSet
Substitution2: "Single Substitution lookup 193 subtable" dotlessi
Substitution2: "Single Substitution lookup 192 subtable" dotlessi
EndChar

StartChar: j
Encoding: 106 106 76
Width: 1336
Flags: W
AnchorPoint: "Anchor-1" 668 536 basechar 0
AnchorPoint: "Anchor-0" 668 0 basechar 0
LayerCount: 2
Fore
SplineSet
857 536 m 1,0,-1
 857 470 l 1,1,-1
 746 313 l 1,2,-1
 847 313 l 1,3,-1
 847 243 l 1,4,-1
 696 243 l 1,5,-1
 573 68 l 1,6,-1
 864 68 l 1,7,-1
 864 0 l 1,8,-1
 472 0 l 1,9,-1
 472 58 l 1,10,-1
 602 243 l 1,11,-1
 490 243 l 1,12,-1
 490 313 l 1,13,-1
 651 313 l 1,14,-1
 760 468 l 1,15,-1
 489 468 l 1,16,-1
 489 536 l 1,17,-1
 857 536 l 1,0,-1
EndSplineSet
Substitution2: "Single Substitution lookup 193 subtable" uni0237
Substitution2: "Single Substitution lookup 192 subtable" uni0237
EndChar

StartChar: k
Encoding: 107 107 77
Width: 1336
Flags: W
LayerCount: 2
Fore
SplineSet
535 363 m 2,0,1
 535 347 535 347 533.5 321 c 128,-1,2
 532 295 532 295 531 276 c 1,3,-1
 535 276 l 1,4,5
 541 284 541 284 553 299 c 128,-1,6
 565 314 565 314 577.5 329.5 c 128,-1,7
 590 345 590 345 599 355 c 2,8,-1
 770 536 l 1,9,-1
 873 536 l 1,10,-1
 656 307 l 1,11,-1
 888 0 l 1,12,-1
 782 0 l 1,13,-1
 596 250 l 1,14,-1
 535 197 l 1,15,-1
 535 0 l 1,16,-1
 448 0 l 1,17,-1
 448 760 l 1,18,-1
 535 760 l 1,19,-1
 535 363 l 2,0,1
EndSplineSet
EndChar

StartChar: l
Encoding: 108 108 78
Width: 1336
Flags: W
AnchorPoint: "Anchor-0" 667.5 -24 basechar 0
LayerCount: 2
Fore
SplineSet
663.5 -12 m 0,0,1
 555.5 -12 555.5 -12 480 29 c 128,-1,2
 404.5 70 404.5 70 365 142.5 c 128,-1,3
 325.5 215 325.5 215 325.5 308 c 0,4,5
 325.5 387 325.5 387 351 444 c 128,-1,6
 376.5 501 376.5 501 423 532 c 128,-1,7
 469.5 563 469.5 563 530.5 563 c 0,8,9
 575.5 563 575.5 563 607.5 547 c 128,-1,10
 639.5 531 639.5 531 656.5 501 c 128,-1,11
 673.5 471 673.5 471 673.5 429 c 0,12,13
 673.5 386 673.5 386 654 352 c 128,-1,14
 634.5 318 634.5 318 596 298 c 128,-1,15
 557.5 278 557.5 278 500.5 278 c 0,16,17
 478.5 278 478.5 278 459.5 282 c 128,-1,18
 440.5 286 440.5 286 425 293.5 c 128,-1,19
 409.5 301 409.5 301 396.5 309 c 1,20,-1
 406.5 380 l 1,21,22
 416.5 373 416.5 373 430 365.5 c 128,-1,23
 443.5 358 443.5 358 459.5 353 c 128,-1,24
 475.5 348 475.5 348 494.5 348 c 0,25,26
 547.5 348 547.5 348 571.5 370.5 c 128,-1,27
 595.5 393 595.5 393 595.5 427 c 0,28,29
 595.5 459 595.5 459 577.5 476 c 128,-1,30
 559.5 493 559.5 493 530.5 493 c 0,31,32
 497.5 493 497.5 493 468.5 475 c 128,-1,33
 439.5 457 439.5 457 421.5 416 c 128,-1,34
 403.5 375 403.5 375 403.5 306 c 0,35,36
 403.5 241 403.5 241 433.5 187 c 128,-1,37
 463.5 133 463.5 133 522 101 c 128,-1,38
 580.5 69 580.5 69 666.5 69 c 0,39,40
 750.5 69 750.5 69 809 94 c 128,-1,41
 867.5 119 867.5 119 898 166.5 c 128,-1,42
 928.5 214 928.5 214 928.5 281 c 0,43,44
 928.5 352 928.5 352 888.5 403.5 c 128,-1,45
 848.5 455 848.5 455 780.5 491 c 1,46,-1
 826.5 565 l 1,47,48
 913.5 518 913.5 518 962 448 c 128,-1,49
 1010.5 378 1010.5 378 1010.5 281 c 0,50,51
 1010.5 201 1010.5 201 975 134.5 c 128,-1,52
 939.5 68 939.5 68 863 28 c 128,-1,53
 786.5 -12 786.5 -12 663.5 -12 c 0,0,1
EndSplineSet
EndChar

StartChar: m
Encoding: 109 109 79
Width: 1336
Flags: W
AnchorPoint: "Anchor-0" 671 -24 basechar 0
LayerCount: 2
Fore
SplineSet
319 -12 m 0,0,1
 263 -12 263 -12 218.5 10 c 128,-1,2
 174 32 174 32 149 72 c 128,-1,3
 124 112 124 112 124 167 c 0,4,5
 124 211 124 211 142 246.5 c 128,-1,6
 160 282 160 282 194 303 c 128,-1,7
 228 324 228 324 276 324 c 0,8,9
 329 324 329 324 361 299 c 128,-1,10
 393 274 393 274 393 231 c 0,11,12
 393 215 393 215 390 199 c 128,-1,13
 387 183 387 183 380 172 c 1,14,-1
 312 178 l 1,15,16
 314 184 314 184 316 193.5 c 128,-1,17
 318 203 318 203 318 210 c 0,18,19
 318 232 318 232 306 243 c 128,-1,20
 294 254 294 254 273 254 c 0,21,22
 242 254 242 254 221 232.5 c 128,-1,23
 200 211 200 211 200 170 c 0,24,25
 200 125 200 125 231.5 96 c 128,-1,26
 263 67 263 67 327 67 c 0,27,28
 396 67 396 67 428 102 c 128,-1,29
 460 137 460 137 465 195 c 1,30,-1
 541 195 l 1,31,32
 546 128 546 128 580.5 97.5 c 128,-1,33
 615 67 615 67 663 67 c 0,34,35
 719 67 719 67 741 103.5 c 128,-1,36
 763 140 763 140 763 191 c 0,37,38
 763 250 763 250 742.5 299.5 c 128,-1,39
 722 349 722 349 688 387 c 128,-1,40
 654 425 654 425 613 448 c 128,-1,41
 572 471 572 471 531 477 c 1,42,-1
 684 483 l 1,43,44
 735 451 735 451 771 407 c 128,-1,45
 807 363 807 363 826 310.5 c 128,-1,46
 845 258 845 258 845 198 c 0,47,48
 845 126 845 126 820.5 79.5 c 128,-1,49
 796 33 796 33 756 10.5 c 128,-1,50
 716 -12 716 -12 670 -12 c 0,51,52
 619 -12 619 -12 587 1 c 128,-1,53
 555 14 555 14 533 39.5 c 128,-1,54
 511 65 511 65 489 101 c 1,55,-1
 520 105 l 1,56,57
 494 57 494 57 464.5 32 c 128,-1,58
 435 7 435 7 399.5 -2.5 c 128,-1,59
 364 -12 364 -12 319 -12 c 0,0,1
229 474 m 5,60,-1
 229 551 l 5,61,-1
 634 551 l 2,62,63
 688 551 688 551 710 556 c 128,-1,64
 732 561 732 561 742 569 c 0,65,66
 756 579 756 579 760 591.5 c 128,-1,67
 764 604 764 604 764 618 c 0,68,69
 764 651 764 651 748 682.5 c 128,-1,70
 732 714 732 714 699 747 c 1,71,-1
 764 790 l 1,72,73
 811 738 811 738 828 696.5 c 128,-1,74
 845 655 845 655 845 612 c 0,75,76
 845 593 845 593 837.5 565.5 c 128,-1,77
 830 538 830 538 804 516 c 0,78,79
 779 494 779 494 744.5 484 c 128,-1,80
 710 474 710 474 652 474 c 2,81,-1
 229 474 l 5,60,-1
1001 -12 m 0,82,83
 925 -12 925 -12 868 26.5 c 128,-1,84
 811 65 811 65 766 123 c 1,85,-1
 817 177 l 1,86,87
 859 124 859 124 902.5 95.5 c 128,-1,88
 946 67 946 67 1004 67 c 0,89,90
 1064 67 1064 67 1097 106 c 128,-1,91
 1130 145 1130 145 1130 210 c 0,92,93
 1130 280 1130 280 1105 333 c 128,-1,94
 1080 386 1080 386 1036 424.5 c 128,-1,95
 992 463 992 463 934 488 c 1,96,-1
 977 565 l 1,97,98
 1045 532 1045 532 1098 482 c 128,-1,99
 1151 432 1151 432 1181.5 365 c 128,-1,100
 1212 298 1212 298 1212 215 c 0,101,102
 1212 150 1212 150 1189 98.5 c 128,-1,103
 1166 47 1166 47 1119 17.5 c 128,-1,104
 1072 -12 1072 -12 1001 -12 c 0,82,83
EndSplineSet
EndChar

StartChar: n
Encoding: 110 110 80
Width: 1336
Flags: W
AnchorPoint: "Anchor-0" 673 -24 basechar 0
LayerCount: 2
Fore
SplineSet
801 -12 m 0,0,1
 748 -12 748 -12 713.5 8 c 128,-1,2
 679 28 679 28 655.5 59.5 c 128,-1,3
 632 91 632 91 612 125 c 0,4,5
 587 169 587 169 569 191 c 128,-1,6
 551 213 551 213 535.5 221 c 128,-1,7
 520 229 520 229 500 229 c 0,8,9
 466 229 466 229 447.5 207.5 c 128,-1,10
 429 186 429 186 429 148 c 0,11,12
 429 116 429 116 443 82.5 c 128,-1,13
 457 49 457 49 480 17 c 1,14,-1
 402 -14 l 1,15,16
 379 18 379 18 364 60 c 128,-1,17
 349 102 349 102 349 145 c 0,18,19
 349 192 349 192 369 228 c 128,-1,20
 389 264 389 264 423 284.5 c 128,-1,21
 457 305 457 305 499 305 c 0,22,23
 561 305 561 305 597 276 c 0,24,25
 630 249 630 249 667 187 c 0,26,27
 690 148 690 148 709 121 c 128,-1,28
 728 94 728 94 751.5 80.5 c 128,-1,29
 775 67 775 67 810 67 c 0,30,31
 862 67 862 67 883.5 103.5 c 128,-1,32
 905 140 905 140 905 190 c 0,33,34
 905 260 905 260 875.5 320 c 128,-1,35
 846 380 846 380 796.5 420.5 c 128,-1,36
 747 461 747 461 685 474 c 1,37,-1
 382 474 l 5,38,-1
 382 551 l 5,39,-1
 776 551 l 2,40,41
 830 551 830 551 851.5 556 c 128,-1,42
 873 561 873 561 884 569 c 0,43,44
 897 579 897 579 901.5 591.5 c 128,-1,45
 906 604 906 604 906 618 c 0,46,47
 906 651 906 651 890 682.5 c 128,-1,48
 874 714 874 714 841 747 c 1,49,-1
 906 790 l 1,50,51
 953 738 953 738 970 696.5 c 128,-1,52
 987 655 987 655 987 612 c 0,53,54
 987 593 987 593 979 565.5 c 128,-1,55
 971 538 971 538 946 516 c 256,56,57
 921 494 921 494 886 484 c 128,-1,58
 851 474 851 474 793 474 c 2,59,-1
 769 474 l 1,60,-1
 826 483 l 1,61,62
 877 451 877 451 913 407 c 128,-1,63
 949 363 949 363 968 310.5 c 128,-1,64
 987 258 987 258 987 198 c 0,65,66
 987 100 987 100 938.5 44 c 128,-1,67
 890 -12 890 -12 801 -12 c 0,0,1
EndSplineSet
EndChar

StartChar: o
Encoding: 111 111 81
Width: 1336
Flags: W
LayerCount: 2
Fore
SplineSet
916 269 m 0,0,1
 916 202 916 202 898.5 150.5 c 128,-1,2
 881 99 881 99 848.5 63 c 128,-1,3
 816 27 816 27 769.5 8.5 c 128,-1,4
 723 -10 723 -10 666 -10 c 0,5,6
 613 -10 613 -10 568 8.5 c 128,-1,7
 523 27 523 27 490 63 c 128,-1,8
 457 99 457 99 438.5 150.5 c 128,-1,9
 420 202 420 202 420 269 c 0,10,11
 420 358 420 358 450 419.5 c 128,-1,12
 480 481 480 481 536 513.5 c 128,-1,13
 592 546 592 546 669 546 c 0,14,15
 742 546 742 546 797.5 513.5 c 128,-1,16
 853 481 853 481 884.5 419.5 c 128,-1,17
 916 358 916 358 916 269 c 0,0,1
511 269 m 0,18,19
 511 206 511 206 527.5 159.5 c 128,-1,20
 544 113 544 113 579 88 c 128,-1,21
 614 63 614 63 668 63 c 256,22,23
 722 63 722 63 757 88 c 128,-1,24
 792 113 792 113 808.5 159.5 c 128,-1,25
 825 206 825 206 825 269 c 0,26,27
 825 333 825 333 808 378 c 128,-1,28
 791 423 791 423 756.5 447.5 c 128,-1,29
 722 472 722 472 667 472 c 0,30,31
 585 472 585 472 548 418 c 128,-1,32
 511 364 511 364 511 269 c 0,18,19
EndSplineSet
EndChar

StartChar: p
Encoding: 112 112 82
Width: 1336
Flags: W
AnchorPoint: "Anchor-0" 686.5 -24 basechar 0
LayerCount: 2
Fore
SplineSet
502.5 -12 m 0,0,1
 446.5 -12 446.5 -12 402 10 c 128,-1,2
 357.5 32 357.5 32 332.5 72 c 128,-1,3
 307.5 112 307.5 112 307.5 167 c 0,4,5
 307.5 211 307.5 211 325.5 246.5 c 128,-1,6
 343.5 282 343.5 282 377.5 303 c 128,-1,7
 411.5 324 411.5 324 459.5 324 c 0,8,9
 512.5 324 512.5 324 544.5 299 c 128,-1,10
 576.5 274 576.5 274 576.5 231 c 0,11,12
 576.5 215 576.5 215 573.5 199 c 128,-1,13
 570.5 183 570.5 183 563.5 172 c 1,14,-1
 495.5 178 l 1,15,16
 497.5 186 497.5 186 499.5 194.5 c 128,-1,17
 501.5 203 501.5 203 501.5 210 c 0,18,19
 501.5 232 501.5 232 489.5 243 c 128,-1,20
 477.5 254 477.5 254 456.5 254 c 0,21,22
 425.5 254 425.5 254 405 232.5 c 128,-1,23
 384.5 211 384.5 211 384.5 170 c 0,24,25
 384.5 125 384.5 125 415.5 96 c 128,-1,26
 446.5 67 446.5 67 510.5 67 c 0,27,28
 579.5 67 579.5 67 611.5 102 c 128,-1,29
 643.5 137 643.5 137 648.5 195 c 1,30,-1
 724.5 195 l 1,31,32
 729.5 128 729.5 128 764 97.5 c 128,-1,33
 798.5 67 798.5 67 846.5 67 c 0,34,35
 882.5 67 882.5 67 904.5 83 c 128,-1,36
 926.5 99 926.5 99 936.5 127.5 c 128,-1,37
 946.5 156 946.5 156 946.5 191 c 0,38,39
 946.5 237 946.5 237 928.5 284.5 c 128,-1,40
 910.5 332 910.5 332 862.5 387 c 1,41,-1
 933.5 435 l 1,42,43
 979.5 384 979.5 384 1004 326.5 c 128,-1,44
 1028.5 269 1028.5 269 1028.5 198 c 0,45,46
 1028.5 126 1028.5 126 1004 79.5 c 128,-1,47
 979.5 33 979.5 33 939.5 10.5 c 128,-1,48
 899.5 -12 899.5 -12 853.5 -12 c 0,49,50
 802.5 -12 802.5 -12 770.5 1 c 128,-1,51
 738.5 14 738.5 14 716.5 39.5 c 128,-1,52
 694.5 65 694.5 65 672.5 101 c 1,53,-1
 703.5 105 l 1,54,55
 677.5 57 677.5 57 648 32 c 128,-1,56
 618.5 7 618.5 7 583 -2.5 c 128,-1,57
 547.5 -12 547.5 -12 502.5 -12 c 0,0,1
677.5 297 m 0,58,59
 653.5 297 653.5 297 637 314 c 128,-1,60
 620.5 331 620.5 331 620.5 355 c 0,61,62
 620.5 381 620.5 381 637 398 c 128,-1,63
 653.5 415 653.5 415 677.5 415 c 0,64,65
 702.5 415 702.5 415 719.5 398 c 128,-1,66
 736.5 381 736.5 381 736.5 355 c 0,67,68
 736.5 331 736.5 331 719.5 314 c 128,-1,69
 702.5 297 702.5 297 677.5 297 c 0,58,59
385.5 474 m 5,70,-1
 385.5 551 l 5,71,-1
 817.5 551 l 2,72,73
 871.5 551 871.5 551 893.5 556 c 128,-1,74
 915.5 561 915.5 561 925.5 569 c 0,75,76
 939.5 579 939.5 579 943.5 591.5 c 128,-1,77
 947.5 604 947.5 604 947.5 618 c 0,78,79
 947.5 651 947.5 651 931.5 682.5 c 128,-1,80
 915.5 714 915.5 714 882.5 747 c 1,81,-1
 947.5 790 l 1,82,83
 994.5 738 994.5 738 1011.5 696.5 c 128,-1,84
 1028.5 655 1028.5 655 1028.5 612 c 0,85,86
 1028.5 593 1028.5 593 1021 565.5 c 128,-1,87
 1013.5 538 1013.5 538 987.5 516 c 0,88,89
 962.5 494 962.5 494 928 484 c 128,-1,90
 893.5 474 893.5 474 835.5 474 c 2,91,-1
 385.5 474 l 5,70,-1
EndSplineSet
EndChar

StartChar: q
Encoding: 113 113 83
Width: 1336
Flags: W
AnchorPoint: "Anchor-1" 630 765 basechar 0
AnchorPoint: "Anchor-0" 630 0 basechar 0
LayerCount: 2
Fore
SplineSet
569 765 m 0,0,1
 588 765 588 765 606 761 c 128,-1,2
 624 757 624 757 634 752 c 1,3,-1
 634 679 l 1,4,5
 627 682 627 682 613 685.5 c 128,-1,6
 599 689 599 689 582 689 c 0,7,8
 560 689 560 689 547.5 676 c 128,-1,9
 535 663 535 663 535 631 c 2,10,-1
 535 363 l 2,11,12
 535 347 535 347 534 321 c 128,-1,13
 533 295 533 295 531 276 c 1,14,-1
 535 276 l 1,15,16
 541 285 541 285 553 299.5 c 128,-1,17
 565 314 565 314 577.5 329.5 c 128,-1,18
 590 345 590 345 599 355 c 2,19,-1
 770 536 l 1,20,-1
 873 536 l 1,21,-1
 656 307 l 1,22,-1
 888 0 l 1,23,-1
 782 0 l 1,24,-1
 596 250 l 1,25,-1
 535 197 l 1,26,-1
 535 0 l 1,27,-1
 448 0 l 1,28,-1
 448 625 l 2,29,30
 448 765 448 765 569 765 c 0,0,1
EndSplineSet
EndChar

StartChar: r
Encoding: 114 114 84
Width: 1336
Flags: W
AnchorPoint: "Anchor-0" 668 -24 basechar 0
LayerCount: 2
Fore
SplineSet
668 -12 m 0,0,1
 587 -12 587 -12 522.5 19 c 128,-1,2
 458 50 458 50 421 109.5 c 128,-1,3
 384 169 384 169 384 255 c 0,4,5
 384 312 384 312 399.5 356 c 128,-1,6
 415 400 415 400 443 433 c 128,-1,7
 471 466 471 466 510 488 c 1,8,-1
 528 474 l 1,9,-1
 384 474 l 1,10,-1
 384 551 l 1,11,-1
 740 551 l 2,12,13
 794 551 794 551 816 556 c 128,-1,14
 838 561 838 561 849 569 c 0,15,16
 862 579 862 579 866.5 591.5 c 128,-1,17
 871 604 871 604 871 618 c 0,18,19
 871 651 871 651 855 682.5 c 128,-1,20
 839 714 839 714 806 747 c 1,21,-1
 871 790 l 1,22,23
 918 738 918 738 935 696.5 c 128,-1,24
 952 655 952 655 952 612 c 0,25,26
 952 593 952 593 944 565.5 c 128,-1,27
 936 538 936 538 911 516 c 0,28,29
 898 504 898 504 880 494.5 c 128,-1,30
 862 485 862 485 838 480 c 1,31,-1
 833 488 l 1,32,33
 871 464 871 464 897.5 431.5 c 128,-1,34
 924 399 924 399 938 356 c 128,-1,35
 952 313 952 313 952 255 c 0,36,37
 952 177 952 177 918 117 c 128,-1,38
 884 57 884 57 820.5 22.5 c 128,-1,39
 757 -12 757 -12 668 -12 c 0,0,1
669 69 m 0,40,41
 737 69 737 69 781.5 96 c 128,-1,42
 826 123 826 123 848 169.5 c 128,-1,43
 870 216 870 216 870 272 c 0,44,45
 870 337 870 337 843.5 382.5 c 128,-1,46
 817 428 817 428 772 452 c 128,-1,47
 727 476 727 476 670 476 c 0,48,49
 608 476 608 476 562 450.5 c 128,-1,50
 516 425 516 425 491 379.5 c 128,-1,51
 466 334 466 334 466 272 c 0,52,53
 466 175 466 175 521.5 122 c 128,-1,54
 577 69 577 69 669 69 c 0,40,41
EndSplineSet
EndChar

StartChar: s
Encoding: 115 115 85
Width: 1336
Flags: W
AnchorPoint: "Anchor-0" 671.5 -24 basechar 0
LayerCount: 2
Fore
SplineSet
800.5 -12 m 0,0,1
 747.5 -12 747.5 -12 713 8 c 128,-1,2
 678.5 28 678.5 28 655 59.5 c 128,-1,3
 631.5 91 631.5 91 611.5 125 c 0,4,5
 586.5 169 586.5 169 568.5 191 c 128,-1,6
 550.5 213 550.5 213 535 221 c 128,-1,7
 519.5 229 519.5 229 499.5 229 c 0,8,9
 465.5 229 465.5 229 447 207.5 c 128,-1,10
 428.5 186 428.5 186 428.5 148 c 0,11,12
 428.5 116 428.5 116 442.5 82.5 c 128,-1,13
 456.5 49 456.5 49 479.5 17 c 1,14,-1
 401.5 -14 l 1,15,16
 378.5 18 378.5 18 363.5 60.5 c 128,-1,17
 348.5 103 348.5 103 348.5 146 c 0,18,19
 348.5 192 348.5 192 368.5 228 c 128,-1,20
 388.5 264 388.5 264 422.5 284.5 c 128,-1,21
 456.5 305 456.5 305 498.5 305 c 256,22,23
 540.5 305 540.5 305 569.5 292 c 128,-1,24
 598.5 279 598.5 279 621 253 c 128,-1,25
 643.5 227 643.5 227 666.5 187 c 0,26,27
 689.5 148 689.5 148 709 121 c 128,-1,28
 728.5 94 728.5 94 751.5 80.5 c 128,-1,29
 774.5 67 774.5 67 807.5 67 c 0,30,31
 857.5 67 857.5 67 881.5 103 c 128,-1,32
 905.5 139 905.5 139 905.5 194 c 0,33,34
 905.5 239 905.5 239 887.5 286 c 128,-1,35
 869.5 333 869.5 333 821.5 387 c 1,36,-1
 889.5 435 l 1,37,38
 936.5 384 936.5 384 962 327 c 128,-1,39
 987.5 270 987.5 270 987.5 203 c 0,40,41
 987.5 101 987.5 101 938.5 44.5 c 128,-1,42
 889.5 -12 889.5 -12 800.5 -12 c 0,0,1
658.5 315 m 0,43,44
 634.5 315 634.5 315 617.5 332 c 128,-1,45
 600.5 349 600.5 349 600.5 374 c 256,46,47
 600.5 399 600.5 399 617.5 416 c 128,-1,48
 634.5 433 634.5 433 658.5 433 c 0,49,50
 683.5 433 683.5 433 700 416 c 128,-1,51
 716.5 399 716.5 399 716.5 374 c 256,52,53
 716.5 349 716.5 349 700 332 c 128,-1,54
 683.5 315 683.5 315 658.5 315 c 0,43,44
398.5 474 m 5,55,-1
 398.5 551 l 5,56,-1
 775.5 551 l 2,57,58
 829.5 551 829.5 551 851.5 556 c 128,-1,59
 873.5 561 873.5 561 884.5 569 c 0,60,61
 897.5 579 897.5 579 902 591.5 c 128,-1,62
 906.5 604 906.5 604 906.5 618 c 0,63,64
 906.5 651 906.5 651 890.5 682.5 c 128,-1,65
 874.5 714 874.5 714 841.5 747 c 1,66,-1
 906.5 790 l 1,67,68
 953.5 738 953.5 738 970.5 696.5 c 128,-1,69
 987.5 655 987.5 655 987.5 612 c 0,70,71
 987.5 593 987.5 593 979.5 565.5 c 128,-1,72
 971.5 538 971.5 538 946.5 516 c 0,73,74
 920.5 494 920.5 494 886 484 c 128,-1,75
 851.5 474 851.5 474 794.5 474 c 2,76,-1
 398.5 474 l 5,55,-1
EndSplineSet
EndChar

StartChar: t
Encoding: 116 116 86
Width: 1336
Flags: W
AnchorPoint: "Anchor-0" 689.5 -24 basechar 0
LayerCount: 2
Fore
SplineSet
500.5 -12 m 0,0,1
 455.5 -12 455.5 -12 418.5 2.5 c 128,-1,2
 381.5 17 381.5 17 354 46 c 128,-1,3
 326.5 75 326.5 75 312 117.5 c 128,-1,4
 297.5 160 297.5 160 297.5 216 c 0,5,6
 297.5 288 297.5 288 322.5 344 c 128,-1,7
 347.5 400 347.5 400 393 432 c 128,-1,8
 438.5 464 438.5 464 500.5 464 c 0,9,10
 541.5 464 541.5 464 572 449 c 128,-1,11
 602.5 434 602.5 434 619.5 407 c 128,-1,12
 636.5 380 636.5 380 636.5 342 c 0,13,14
 636.5 303 636.5 303 618 273 c 128,-1,15
 599.5 243 599.5 243 563 226 c 128,-1,16
 526.5 209 526.5 209 472.5 209 c 0,17,18
 420.5 209 420.5 209 385.5 230 c 128,-1,19
 350.5 251 350.5 251 331.5 274 c 1,20,-1
 351.5 340 l 1,21,22
 364.5 322 364.5 322 392.5 300.5 c 128,-1,23
 420.5 279 420.5 279 465.5 279 c 0,24,25
 514.5 279 514.5 279 536.5 295 c 128,-1,26
 558.5 311 558.5 311 558.5 338 c 256,27,28
 558.5 365 558.5 365 541.5 379.5 c 128,-1,29
 524.5 394 524.5 394 498.5 394 c 0,30,31
 456.5 394 456.5 394 429.5 369 c 128,-1,32
 402.5 344 402.5 344 390 303 c 128,-1,33
 377.5 262 377.5 262 377.5 215 c 2,34,-1
 377.5 205 l 2,35,36
 377.5 165 377.5 165 388 138.5 c 128,-1,37
 398.5 112 398.5 112 416.5 96.5 c 128,-1,38
 434.5 81 434.5 81 459 74 c 128,-1,39
 483.5 67 483.5 67 510.5 67 c 0,40,41
 577.5 67 577.5 67 610 103.5 c 128,-1,42
 642.5 140 642.5 140 651.5 195 c 1,43,-1
 728.5 195 l 1,44,45
 734.5 128 734.5 128 770.5 97.5 c 128,-1,46
 806.5 67 806.5 67 854.5 67 c 0,47,48
 909.5 67 909.5 67 933 95 c 128,-1,49
 956.5 123 956.5 123 956.5 162 c 256,50,51
 956.5 201 956.5 201 938 231 c 128,-1,52
 919.5 261 919.5 261 889.5 280.5 c 128,-1,53
 859.5 300 859.5 300 823.5 307 c 1,54,-1
 891.5 352 l 1,55,56
 941.5 332 941.5 332 974 303 c 128,-1,57
 1006.5 274 1006.5 274 1022.5 237 c 128,-1,58
 1038.5 200 1038.5 200 1038.5 156 c 0,59,60
 1038.5 83 1038.5 83 995 35.5 c 128,-1,61
 951.5 -12 951.5 -12 859.5 -12 c 0,62,63
 816.5 -12 816.5 -12 783.5 0 c 128,-1,64
 750.5 12 750.5 12 724 37.5 c 128,-1,65
 697.5 63 697.5 63 674.5 102 c 1,66,-1
 707.5 103 l 1,67,68
 677.5 60 677.5 60 648 34.5 c 128,-1,69
 618.5 9 618.5 9 583 -1.5 c 128,-1,70
 547.5 -12 547.5 -12 500.5 -12 c 0,0,1
446.5 412 m 1,71,72
 392.5 429 392.5 429 367.5 465 c 128,-1,73
 342.5 501 342.5 501 342.5 536 c 0,74,75
 342.5 567 342.5 567 358 592.5 c 128,-1,76
 373.5 618 373.5 618 409.5 634.5 c 128,-1,77
 445.5 651 445.5 651 505.5 653 c 1,78,-1
 513.5 575 l 1,79,80
 464.5 574 464.5 574 443 561.5 c 128,-1,81
 421.5 549 421.5 549 421.5 525 c 0,82,83
 421.5 502 421.5 502 442 485 c 128,-1,84
 462.5 468 462.5 468 503.5 458 c 1,85,-1
 446.5 412 l 1,71,72
755.5 306 m 1,86,-1
 755.5 381 l 1,87,-1
 812.5 381 l 2,88,89
 855.5 381 855.5 381 879.5 387 c 128,-1,90
 903.5 393 903.5 393 916.5 406 c 0,91,92
 927.5 417 927.5 417 932.5 430.5 c 128,-1,93
 937.5 444 937.5 444 937.5 460 c 0,94,95
 937.5 493 937.5 493 916 520 c 128,-1,96
 894.5 547 894.5 547 827.5 560 c 1,97,-1
 855.5 636 l 1,98,99
 938.5 618 938.5 618 979 573 c 128,-1,100
 1019.5 528 1019.5 528 1019.5 469 c 0,101,102
 1019.5 425 1019.5 425 994.5 383 c 128,-1,103
 969.5 341 969.5 341 910.5 320 c 0,104,105
 897.5 316 897.5 316 887.5 312.5 c 128,-1,106
 877.5 309 877.5 309 866 307.5 c 128,-1,107
 854.5 306 854.5 306 834.5 306 c 2,108,-1
 755.5 306 l 1,86,-1
EndSplineSet
EndChar

StartChar: u
Encoding: 117 117 87
Width: 1336
Flags: W
LayerCount: 2
Fore
SplineSet
895 536 m 1,0,-1
 895 0 l 1,1,-1
 823 0 l 1,2,-1
 810 71 l 1,3,-1
 806 71 l 1,4,5
 789 43 789 43 762 25 c 128,-1,6
 735 7 735 7 703 -1.5 c 128,-1,7
 671 -10 671 -10 636 -10 c 0,8,9
 572 -10 572 -10 528.5 10.5 c 128,-1,10
 485 31 485 31 463 74 c 128,-1,11
 441 117 441 117 441 185 c 2,12,-1
 441 536 l 1,13,-1
 530 536 l 1,14,-1
 530 191 l 2,15,16
 530 127 530 127 559 95 c 128,-1,17
 588 63 588 63 649 63 c 0,18,19
 709 63 709 63 743.5 85.5 c 128,-1,20
 778 108 778 108 792.5 151.5 c 128,-1,21
 807 195 807 195 807 257 c 2,22,-1
 807 536 l 1,23,-1
 895 536 l 1,0,-1
EndSplineSet
EndChar

StartChar: v
Encoding: 118 118 88
Width: 1336
Flags: W
LayerCount: 2
Fore
SplineSet
617 0 m 1,0,-1
 414 536 l 1,1,-1
 508 536 l 1,2,-1
 622 220 l 2,3,4
 630 198 630 198 639 171 c 128,-1,5
 648 144 648 144 655 119.5 c 128,-1,6
 662 95 662 95 665 78 c 1,7,-1
 669 78 l 1,8,9
 673 95 673 95 680.5 120 c 128,-1,10
 688 145 688 145 697.5 172 c 128,-1,11
 707 199 707 199 714 220 c 2,12,-1
 828 536 l 1,13,-1
 922 536 l 1,14,-1
 718 0 l 1,15,-1
 617 0 l 1,0,-1
EndSplineSet
EndChar

StartChar: w
Encoding: 119 119 89
Width: 1336
Flags: W
AnchorPoint: "Anchor-1" 658.5 536 basechar 0
AnchorPoint: "Anchor-0" 657.5 0 basechar 0
LayerCount: 2
Fore
SplineSet
597.5 766 m 5,0,1
 608.5 744 608.5 744 625 716.5 c 132,-1,2
 641.5 689 641.5 689 660 663 c 132,-1,3
 678.5 637 678.5 637 693.5 618 c 5,4,-1
 693.5 606 l 5,5,-1
 634.5 606 l 5,6,7
 617.5 620 617.5 620 596.5 639.5 c 132,-1,8
 575.5 659 575.5 659 555 680.5 c 132,-1,9
 534.5 702 534.5 702 518 722 c 132,-1,10
 501.5 742 501.5 742 492.5 756 c 5,11,-1
 492.5 766 l 5,12,-1
 597.5 766 l 5,0,1
895.5 541 m 0,13,14
 907.5 541 907.5 541 917.5 539 c 128,-1,15
 927.5 537 927.5 537 936.5 535 c 1,16,-1
 936.5 467 l 1,17,18
 923.5 472 923.5 472 902.5 472 c 0,19,20
 880.5 472 880.5 472 866.5 452 c 128,-1,21
 852.5 432 852.5 432 838.5 390 c 2,22,-1
 715.5 0 l 1,23,-1
 598.5 0 l 1,24,-1
 399.5 536 l 1,25,-1
 491.5 536 l 1,26,-1
 618.5 181 l 2,27,28
 633.5 139 633.5 139 643.5 107.5 c 128,-1,29
 653.5 76 653.5 76 655.5 62 c 1,30,-1
 659.5 62 l 1,31,32
 663.5 83 663.5 83 671.5 119 c 128,-1,33
 679.5 155 679.5 155 690.5 189 c 2,34,-1
 760.5 407 l 2,35,36
 777.5 459 777.5 459 794 488 c 128,-1,37
 810.5 517 810.5 517 834 529 c 128,-1,38
 857.5 541 857.5 541 895.5 541 c 0,13,14
EndSplineSet
EndChar

StartChar: x
Encoding: 120 120 90
Width: 1336
Flags: W
LayerCount: 2
Fore
SplineSet
615.5 274 m 1,0,-1
 430.5 536 l 1,1,-1
 530.5 536 l 1,2,-1
 668.5 334 l 1,3,-1
 805.5 536 l 1,4,-1
 904.5 536 l 1,5,-1
 719.5 274 l 1,6,-1
 914.5 0 l 1,7,-1
 814.5 0 l 1,8,-1
 668.5 214 l 1,9,-1
 520.5 0 l 1,10,-1
 421.5 0 l 1,11,-1
 615.5 274 l 1,0,-1
EndSplineSet
EndChar

StartChar: y
Encoding: 121 121 91
Width: 1336
Flags: W
AnchorPoint: "Anchor-0" 667.5 -24 basechar 0
LayerCount: 2
Fore
SplineSet
306.5 -12 m 0,0,1
 232.5 -12 232.5 -12 181.5 14 c 128,-1,2
 130.5 40 130.5 40 99 83 c 128,-1,3
 67.5 126 67.5 126 53 177 c 128,-1,4
 38.5 228 38.5 228 38.5 279 c 0,5,6
 38.5 360 38.5 360 71.5 424.5 c 128,-1,7
 104.5 489 104.5 489 164.5 526 c 128,-1,8
 224.5 563 224.5 563 304.5 563 c 0,9,10
 379.5 563 379.5 563 430.5 536.5 c 128,-1,11
 481.5 510 481.5 510 512.5 467 c 128,-1,12
 543.5 424 543.5 424 557 373.5 c 128,-1,13
 570.5 323 570.5 323 570.5 276 c 0,14,15
 570.5 191 570.5 191 537.5 126 c 128,-1,16
 504.5 61 504.5 61 445.5 24.5 c 128,-1,17
 386.5 -12 386.5 -12 306.5 -12 c 0,0,1
304.5 67 m 0,18,19
 360.5 67 360.5 67 401.5 91.5 c 128,-1,20
 442.5 116 442.5 116 465.5 163.5 c 128,-1,21
 488.5 211 488.5 211 488.5 279 c 0,22,23
 488.5 340 488.5 340 467.5 386 c 128,-1,24
 446.5 432 446.5 432 405.5 458 c 128,-1,25
 364.5 484 364.5 484 303.5 484 c 0,26,27
 251.5 484 251.5 484 210 461 c 128,-1,28
 168.5 438 168.5 438 144.5 392 c 128,-1,29
 120.5 346 120.5 346 120.5 277 c 0,30,31
 120.5 209 120.5 209 142.5 162 c 128,-1,32
 164.5 115 164.5 115 206 91 c 128,-1,33
 247.5 67 247.5 67 304.5 67 c 0,18,19
719.5 -12 m 0,34,35
 643.5 -12 643.5 -12 586.5 26.5 c 128,-1,36
 529.5 65 529.5 65 484.5 123 c 1,37,-1
 536.5 177 l 1,38,39
 577.5 124 577.5 124 621.5 95.5 c 128,-1,40
 665.5 67 665.5 67 720.5 67 c 0,41,42
 782.5 67 782.5 67 815.5 106 c 128,-1,43
 848.5 145 848.5 145 848.5 210 c 0,44,45
 848.5 276 848.5 276 823 329.5 c 128,-1,46
 797.5 383 797.5 383 751 421 c 128,-1,47
 704.5 459 704.5 459 642.5 477 c 1,48,-1
 780.5 481 l 1,49,50
 828.5 451 828.5 451 862 412.5 c 128,-1,51
 895.5 374 895.5 374 913 325 c 128,-1,52
 930.5 276 930.5 276 930.5 215 c 0,53,54
 930.5 175 930.5 175 920 134.5 c 128,-1,55
 909.5 94 909.5 94 885.5 61 c 128,-1,56
 861.5 28 861.5 28 820.5 8 c 128,-1,57
 779.5 -12 779.5 -12 719.5 -12 c 0,34,35
1086.5 -12 m 0,58,59
 1010.5 -12 1010.5 -12 954 26.5 c 128,-1,60
 897.5 65 897.5 65 851.5 123 c 1,61,-1
 902.5 177 l 1,62,63
 944.5 124 944.5 124 988.5 95.5 c 128,-1,64
 1032.5 67 1032.5 67 1089.5 67 c 0,65,66
 1149.5 67 1149.5 67 1182.5 106 c 128,-1,67
 1215.5 145 1215.5 145 1215.5 210 c 0,68,69
 1215.5 280 1215.5 280 1190.5 333 c 128,-1,70
 1165.5 386 1165.5 386 1121.5 424.5 c 128,-1,71
 1077.5 463 1077.5 463 1019.5 488 c 1,72,-1
 1062.5 565 l 1,73,74
 1130.5 532 1130.5 532 1183.5 482 c 128,-1,75
 1236.5 432 1236.5 432 1267 365 c 128,-1,76
 1297.5 298 1297.5 298 1297.5 215 c 0,77,78
 1297.5 150 1297.5 150 1274.5 98.5 c 128,-1,79
 1251.5 47 1251.5 47 1205 17.5 c 128,-1,80
 1158.5 -12 1158.5 -12 1086.5 -12 c 0,58,59
921.5 612 m 0,81,82
 921.5 593 921.5 593 914 565.5 c 128,-1,83
 906.5 538 906.5 538 880.5 516 c 0,84,85
 855.5 494 855.5 494 821 484 c 128,-1,86
 786.5 474 786.5 474 728.5 474 c 2,87,-1
 598.5 474 l 1,88,-1
 598.5 551 l 1,89,-1
 710.5 551 l 2,90,91
 764.5 551 764.5 551 786.5 556 c 128,-1,92
 808.5 561 808.5 561 818.5 569 c 0,93,94
 831.5 579 831.5 579 836 591.5 c 128,-1,95
 840.5 604 840.5 604 840.5 618 c 0,96,97
 840.5 651 840.5 651 824.5 682.5 c 128,-1,98
 808.5 714 808.5 714 775.5 747 c 1,99,-1
 840.5 790 l 1,100,101
 887.5 738 887.5 738 904.5 696.5 c 128,-1,102
 921.5 655 921.5 655 921.5 612 c 0,81,82
EndSplineSet
EndChar

StartChar: z
Encoding: 122 122 92
Width: 1336
Flags: W
LayerCount: 2
Fore
SplineSet
864 0 m 1,0,-1
 472 0 l 1,1,-1
 472 58 l 1,2,-1
 760 468 l 1,3,-1
 489 468 l 1,4,-1
 489 536 l 1,5,-1
 857 536 l 1,6,-1
 857 470 l 1,7,-1
 573 68 l 1,8,-1
 864 68 l 1,9,-1
 864 0 l 1,0,-1
EndSplineSet
EndChar

StartChar: at
Encoding: 64 64 93
Width: 1336
Flags: W
LayerCount: 2
Fore
SplineSet
1059.5 357 m 0,0,1
 1059.5 311 1059.5 311 1049 267 c 128,-1,2
 1038.5 223 1038.5 223 1016.5 187.5 c 128,-1,3
 994.5 152 994.5 152 962.5 130.5 c 128,-1,4
 930.5 109 930.5 109 886.5 109 c 0,5,6
 840.5 109 840.5 109 814 135.5 c 128,-1,7
 787.5 162 787.5 162 781.5 196 c 1,8,-1
 776.5 196 l 1,9,10
 758.5 159 758.5 159 723.5 134 c 128,-1,11
 688.5 109 688.5 109 635.5 109 c 0,12,13
 559.5 109 559.5 109 518 160 c 128,-1,14
 476.5 211 476.5 211 476.5 295 c 0,15,16
 476.5 361 476.5 361 502.5 411.5 c 128,-1,17
 528.5 462 528.5 462 576 491 c 128,-1,18
 623.5 520 623.5 520 688.5 520 c 0,19,20
 732.5 520 732.5 520 775 512.5 c 128,-1,21
 817.5 505 817.5 505 841.5 496 c 1,22,-1
 831.5 293 l 2,23,24
 830.5 275 830.5 275 830.5 267.5 c 128,-1,25
 830.5 260 830.5 260 830.5 257 c 0,26,27
 830.5 205 830.5 205 849 188 c 128,-1,28
 867.5 171 867.5 171 892.5 171 c 0,29,30
 923.5 171 923.5 171 945 196.5 c 128,-1,31
 966.5 222 966.5 222 978 264.5 c 128,-1,32
 989.5 307 989.5 307 989.5 358 c 0,33,34
 989.5 451 989.5 451 952 515.5 c 128,-1,35
 914.5 580 914.5 580 849 614 c 128,-1,36
 783.5 648 783.5 648 700.5 648 c 0,37,38
 615.5 648 615.5 648 549.5 621 c 128,-1,39
 483.5 594 483.5 594 439 545 c 128,-1,40
 394.5 496 394.5 496 371.5 429.5 c 128,-1,41
 348.5 363 348.5 363 348.5 283 c 0,42,43
 348.5 185 348.5 185 383.5 116.5 c 128,-1,44
 418.5 48 418.5 48 486 12.5 c 128,-1,45
 553.5 -23 553.5 -23 651.5 -23 c 0,46,47
 712.5 -23 712.5 -23 768 -9.5 c 128,-1,48
 823.5 4 823.5 4 866.5 20 c 1,49,-1
 866.5 -48 l 1,50,51
 823.5 -66 823.5 -66 770 -77.5 c 128,-1,52
 716.5 -89 716.5 -89 651.5 -89 c 0,53,54
 533.5 -89 533.5 -89 449.5 -45 c 128,-1,55
 365.5 -1 365.5 -1 321 81.5 c 128,-1,56
 276.5 164 276.5 164 276.5 280 c 0,57,58
 276.5 373 276.5 373 305.5 452.5 c 128,-1,59
 334.5 532 334.5 532 389.5 590.5 c 128,-1,60
 444.5 649 444.5 649 523 681.5 c 128,-1,61
 601.5 714 601.5 714 700.5 714 c 0,62,63
 778.5 714 778.5 714 844 689.5 c 128,-1,64
 909.5 665 909.5 665 958 618.5 c 128,-1,65
 1006.5 572 1006.5 572 1033 506 c 128,-1,66
 1059.5 440 1059.5 440 1059.5 357 c 0,0,1
554.5 293 m 0,67,68
 554.5 229 554.5 229 580 200 c 128,-1,69
 605.5 171 605.5 171 648.5 171 c 0,70,71
 704.5 171 704.5 171 729 213 c 128,-1,72
 753.5 255 753.5 255 757.5 322 c 2,73,-1
 763.5 447 l 1,74,75
 750.5 451 750.5 451 730.5 454 c 128,-1,76
 710.5 457 710.5 457 689.5 457 c 0,77,78
 640.5 457 640.5 457 610.5 433 c 128,-1,79
 580.5 409 580.5 409 567.5 371.5 c 128,-1,80
 554.5 334 554.5 334 554.5 293 c 0,67,68
EndSplineSet
EndChar

StartChar: ampersand
Encoding: 38 38 94
Width: 1336
Flags: W
LayerCount: 2
Fore
SplineSet
580.5 725 m 0,0,1
 634.5 725 634.5 725 673 706.5 c 128,-1,2
 711.5 688 711.5 688 732.5 654 c 128,-1,3
 753.5 620 753.5 620 753.5 571 c 0,4,5
 753.5 508 753.5 508 713 464 c 128,-1,6
 672.5 420 672.5 420 610.5 384 c 1,7,-1
 803.5 198 l 1,8,9
 829.5 229 829.5 229 846 269.5 c 128,-1,10
 862.5 310 862.5 310 873.5 357 c 1,11,-1
 962.5 357 l 1,12,13
 946.5 293 946.5 293 922.5 238 c 128,-1,14
 898.5 183 898.5 183 860.5 142 c 1,15,-1
 1006.5 0 l 1,16,-1
 887.5 0 l 1,17,-1
 800.5 84 l 1,18,19
 769.5 56 769.5 56 733.5 35 c 128,-1,20
 697.5 14 697.5 14 654 2 c 128,-1,21
 610.5 -10 610.5 -10 554.5 -10 c 0,22,23
 485.5 -10 485.5 -10 435 12.5 c 128,-1,24
 384.5 35 384.5 35 357 79 c 128,-1,25
 329.5 123 329.5 123 329.5 186 c 0,26,27
 329.5 237 329.5 237 348 274 c 128,-1,28
 366.5 311 366.5 311 401.5 340 c 128,-1,29
 436.5 369 436.5 369 483.5 396 c 1,30,31
 462.5 420 462.5 420 442.5 446 c 128,-1,32
 422.5 472 422.5 472 409.5 502.5 c 128,-1,33
 396.5 533 396.5 533 396.5 569 c 0,34,35
 396.5 618 396.5 618 418.5 653 c 128,-1,36
 440.5 688 440.5 688 482 706.5 c 128,-1,37
 523.5 725 523.5 725 580.5 725 c 0,0,1
536.5 341 m 1,38,39
 500.5 320 500.5 320 475 298.5 c 128,-1,40
 449.5 277 449.5 277 435.5 251 c 128,-1,41
 421.5 225 421.5 225 421.5 189 c 0,42,43
 421.5 134 421.5 134 458.5 101 c 128,-1,44
 495.5 68 495.5 68 557.5 68 c 0,45,46
 621.5 68 621.5 68 667.5 89 c 128,-1,47
 713.5 110 713.5 110 744.5 139 c 1,48,-1
 536.5 341 l 1,38,39
577.5 653 m 0,49,50
 535.5 653 535.5 653 509 631 c 128,-1,51
 482.5 609 482.5 609 482.5 570 c 0,52,53
 482.5 534 482.5 534 501.5 503.5 c 128,-1,54
 520.5 473 520.5 473 556.5 436 c 1,55,56
 615.5 470 615.5 470 641 500.5 c 128,-1,57
 666.5 531 666.5 531 666.5 571 c 0,58,59
 666.5 607 666.5 607 642.5 630 c 128,-1,60
 618.5 653 618.5 653 577.5 653 c 0,49,50
EndSplineSet
EndChar

StartChar: dollar
Encoding: 36 36 95
Width: 1336
Flags: W
LayerCount: 2
Fore
SplineSet
632 49 m 1,0,1
 577 50 577 50 525 58.5 c 128,-1,2
 473 67 473 67 441 82 c 1,3,-1
 441 167 l 1,4,5
 475 151 475 151 528 139 c 128,-1,6
 581 127 581 127 632 126 c 1,7,-1
 632 328 l 1,8,9
 566 346 566 346 524 369.5 c 128,-1,10
 482 393 482 393 461.5 427 c 128,-1,11
 441 461 441 461 441 508 c 0,12,13
 441 557 441 557 464.5 592 c 128,-1,14
 488 627 488 627 531 647.5 c 128,-1,15
 574 668 574 668 632 671 c 1,16,-1
 632 759 l 1,17,-1
 696 759 l 1,18,-1
 696 672 l 1,19,20
 749 671 749 671 792.5 660.5 c 128,-1,21
 836 650 836 650 872 635 c 1,22,-1
 845 561 l 1,23,24
 813 574 813 574 774.5 583.5 c 128,-1,25
 736 593 736 593 696 596 c 1,26,-1
 696 395 l 1,27,28
 762 376 762 376 806 354.5 c 128,-1,29
 850 333 850 333 872.5 301.5 c 128,-1,30
 895 270 895 270 895 220 c 0,31,32
 895 150 895 150 843 106.5 c 128,-1,33
 791 63 791 63 696 53 c 1,34,-1
 696 -58 l 1,35,-1
 632 -58 l 1,36,-1
 632 49 l 1,0,1
696 131 m 1,37,38
 755 137 755 137 782 158.5 c 128,-1,39
 809 180 809 180 809 214 c 0,40,41
 809 239 809 239 799 255.5 c 128,-1,42
 789 272 789 272 764.5 284 c 128,-1,43
 740 296 740 296 696 307 c 1,44,-1
 696 131 l 1,37,38
632 594 m 1,45,46
 596 592 596 592 573 581.5 c 128,-1,47
 550 571 550 571 538.5 554 c 128,-1,48
 527 537 527 537 527 515 c 0,49,50
 527 489 527 489 536.5 470.5 c 128,-1,51
 546 452 546 452 569 439.5 c 128,-1,52
 592 427 592 427 632 417 c 1,53,-1
 632 594 l 1,45,46
EndSplineSet
EndChar

StartChar: grave
Encoding: 96 96 96
Width: 1336
Flags: W
LayerCount: 2
Fore
SplineSet
672.5 766 m 1,0,1
 683.5 744 683.5 744 700 716.5 c 128,-1,2
 716.5 689 716.5 689 735 663 c 128,-1,3
 753.5 637 753.5 637 768.5 618 c 1,4,-1
 768.5 606 l 1,5,-1
 709.5 606 l 1,6,7
 692.5 620 692.5 620 671.5 639.5 c 128,-1,8
 650.5 659 650.5 659 630 680.5 c 128,-1,9
 609.5 702 609.5 702 593 722 c 128,-1,10
 576.5 742 576.5 742 567.5 756 c 1,11,-1
 567.5 766 l 1,12,-1
 672.5 766 l 1,0,1
EndSplineSet
EndChar

StartChar: uni0080
Encoding: 128 128 97
Width: 1336
Flags: W
LayerCount: 2
Fore
SplineSet
462.5 85 m 0,0,1
 462.5 103 462.5 103 478 118 c 128,-1,2
 493.5 133 493.5 133 521.5 144.5 c 128,-1,3
 549.5 156 549.5 156 587 162.5 c 128,-1,4
 624.5 169 624.5 169 667.5 169 c 0,5,6
 711.5 169 711.5 169 749 162.5 c 128,-1,7
 786.5 156 786.5 156 814 144.5 c 128,-1,8
 841.5 133 841.5 133 857.5 118 c 128,-1,9
 873.5 103 873.5 103 873.5 85 c 0,10,11
 873.5 68 873.5 68 857.5 53 c 128,-1,12
 841.5 38 841.5 38 814 27 c 128,-1,13
 786.5 16 786.5 16 749 9.5 c 128,-1,14
 711.5 3 711.5 3 667.5 3 c 0,15,16
 624.5 3 624.5 3 587 9.5 c 128,-1,17
 549.5 16 549.5 16 521.5 27 c 128,-1,18
 493.5 38 493.5 38 478 53 c 128,-1,19
 462.5 68 462.5 68 462.5 85 c 0,0,1
542.5 85 m 256,20,21
 542.5 74 542.5 74 552 64.5 c 128,-1,22
 561.5 55 561.5 55 578.5 48.5 c 128,-1,23
 595.5 42 595.5 42 618.5 38 c 128,-1,24
 641.5 34 641.5 34 667.5 34 c 0,25,26
 694.5 34 694.5 34 717 38 c 128,-1,27
 739.5 42 739.5 42 756.5 48.5 c 128,-1,28
 773.5 55 773.5 55 783 64.5 c 128,-1,29
 792.5 74 792.5 74 792.5 85 c 256,30,31
 792.5 96 792.5 96 783 105.5 c 128,-1,32
 773.5 115 773.5 115 756.5 122 c 128,-1,33
 739.5 129 739.5 129 717 133 c 128,-1,34
 694.5 137 694.5 137 667.5 137 c 0,35,36
 641.5 137 641.5 137 618.5 133 c 128,-1,37
 595.5 129 595.5 129 578.5 122 c 128,-1,38
 561.5 115 561.5 115 552 105.5 c 128,-1,39
 542.5 96 542.5 96 542.5 85 c 256,20,21
462.5 272 m 0,40,41
 462.5 290 462.5 290 478 305 c 128,-1,42
 493.5 320 493.5 320 521.5 331.5 c 128,-1,43
 549.5 343 549.5 343 587 349 c 128,-1,44
 624.5 355 624.5 355 667.5 355 c 0,45,46
 711.5 355 711.5 355 749 349 c 128,-1,47
 786.5 343 786.5 343 814 331.5 c 128,-1,48
 841.5 320 841.5 320 857.5 305 c 128,-1,49
 873.5 290 873.5 290 873.5 272 c 0,50,51
 873.5 255 873.5 255 857.5 240 c 128,-1,52
 841.5 225 841.5 225 814 214 c 128,-1,53
 786.5 203 786.5 203 749 196 c 128,-1,54
 711.5 189 711.5 189 667.5 189 c 0,55,56
 624.5 189 624.5 189 587 196 c 128,-1,57
 549.5 203 549.5 203 521.5 214 c 128,-1,58
 493.5 225 493.5 225 478 240 c 128,-1,59
 462.5 255 462.5 255 462.5 272 c 0,40,41
542.5 272 m 256,60,61
 542.5 261 542.5 261 552 251.5 c 128,-1,62
 561.5 242 561.5 242 578.5 235 c 128,-1,63
 595.5 228 595.5 228 618.5 224 c 128,-1,64
 641.5 220 641.5 220 667.5 220 c 0,65,66
 694.5 220 694.5 220 717 224 c 128,-1,67
 739.5 228 739.5 228 756.5 235 c 128,-1,68
 773.5 242 773.5 242 783 251.5 c 128,-1,69
 792.5 261 792.5 261 792.5 272 c 256,70,71
 792.5 283 792.5 283 783 292.5 c 128,-1,72
 773.5 302 773.5 302 756.5 309 c 128,-1,73
 739.5 316 739.5 316 717 320 c 128,-1,74
 694.5 324 694.5 324 667.5 324 c 0,75,76
 641.5 324 641.5 324 618.5 320 c 128,-1,77
 595.5 316 595.5 316 578.5 309 c 128,-1,78
 561.5 302 561.5 302 552 292.5 c 128,-1,79
 542.5 283 542.5 283 542.5 272 c 256,60,61
462.5 461 m 256,80,81
 462.5 478 462.5 478 478 493.5 c 128,-1,82
 493.5 509 493.5 509 521.5 520 c 128,-1,83
 549.5 531 549.5 531 587 537.5 c 128,-1,84
 624.5 544 624.5 544 667.5 544 c 0,85,86
 711.5 544 711.5 544 749 537.5 c 128,-1,87
 786.5 531 786.5 531 814 520 c 128,-1,88
 841.5 509 841.5 509 857.5 493.5 c 128,-1,89
 873.5 478 873.5 478 873.5 461 c 256,90,91
 873.5 444 873.5 444 857.5 429 c 128,-1,92
 841.5 414 841.5 414 814 402.5 c 128,-1,93
 786.5 391 786.5 391 749 384.5 c 128,-1,94
 711.5 378 711.5 378 667.5 378 c 0,95,96
 624.5 378 624.5 378 587 384.5 c 128,-1,97
 549.5 391 549.5 391 521.5 402.5 c 128,-1,98
 493.5 414 493.5 414 478 429 c 128,-1,99
 462.5 444 462.5 444 462.5 461 c 256,80,81
542.5 461 m 256,100,101
 542.5 450 542.5 450 552 440.5 c 128,-1,102
 561.5 431 561.5 431 578.5 424 c 128,-1,103
 595.5 417 595.5 417 618.5 413 c 128,-1,104
 641.5 409 641.5 409 667.5 409 c 0,105,106
 694.5 409 694.5 409 717 413 c 128,-1,107
 739.5 417 739.5 417 756.5 424 c 128,-1,108
 773.5 431 773.5 431 783 440.5 c 128,-1,109
 792.5 450 792.5 450 792.5 461 c 256,110,111
 792.5 472 792.5 472 783 481.5 c 128,-1,112
 773.5 491 773.5 491 756.5 498 c 128,-1,113
 739.5 505 739.5 505 717 509 c 128,-1,114
 694.5 513 694.5 513 667.5 513 c 0,115,116
 641.5 513 641.5 513 618.5 509 c 128,-1,117
 595.5 505 595.5 505 578.5 498 c 128,-1,118
 561.5 491 561.5 491 552 481.5 c 128,-1,119
 542.5 472 542.5 472 542.5 461 c 256,100,101
462.5 648 m 256,120,121
 462.5 665 462.5 665 478 680.5 c 128,-1,122
 493.5 696 493.5 696 521.5 707 c 128,-1,123
 549.5 718 549.5 718 587 724.5 c 128,-1,124
 624.5 731 624.5 731 667.5 731 c 0,125,126
 711.5 731 711.5 731 749 724.5 c 128,-1,127
 786.5 718 786.5 718 814 707 c 128,-1,128
 841.5 696 841.5 696 857.5 680.5 c 128,-1,129
 873.5 665 873.5 665 873.5 648 c 256,130,131
 873.5 631 873.5 631 857.5 616 c 128,-1,132
 841.5 601 841.5 601 814 589.5 c 128,-1,133
 786.5 578 786.5 578 749 571.5 c 128,-1,134
 711.5 565 711.5 565 667.5 565 c 0,135,136
 624.5 565 624.5 565 587 571.5 c 128,-1,137
 549.5 578 549.5 578 521.5 589.5 c 128,-1,138
 493.5 601 493.5 601 478 616 c 128,-1,139
 462.5 631 462.5 631 462.5 648 c 256,120,121
542.5 648 m 0,140,141
 542.5 637 542.5 637 552 627.5 c 128,-1,142
 561.5 618 561.5 618 578.5 611 c 128,-1,143
 595.5 604 595.5 604 618.5 600 c 128,-1,144
 641.5 596 641.5 596 667.5 596 c 0,145,146
 694.5 596 694.5 596 717 600 c 128,-1,147
 739.5 604 739.5 604 756.5 611 c 128,-1,148
 773.5 618 773.5 618 783 627.5 c 128,-1,149
 792.5 637 792.5 637 792.5 648 c 0,150,151
 792.5 658 792.5 658 783 668 c 128,-1,152
 773.5 678 773.5 678 756.5 685 c 128,-1,153
 739.5 692 739.5 692 717 696 c 128,-1,154
 694.5 700 694.5 700 667.5 700 c 0,155,156
 641.5 700 641.5 700 618.5 696 c 128,-1,157
 595.5 692 595.5 692 578.5 685 c 128,-1,158
 561.5 678 561.5 678 552 668 c 128,-1,159
 542.5 658 542.5 658 542.5 648 c 0,140,141
EndSplineSet
EndChar

StartChar: uni0081
Encoding: 129 129 98
Width: 1336
Flags: W
LayerCount: 2
Fore
SplineSet
462.5 85 m 0,0,1
 462.5 103 462.5 103 478 118 c 128,-1,2
 493.5 133 493.5 133 521.5 144.5 c 128,-1,3
 549.5 156 549.5 156 587 162.5 c 128,-1,4
 624.5 169 624.5 169 667.5 169 c 0,5,6
 711.5 169 711.5 169 749 162.5 c 128,-1,7
 786.5 156 786.5 156 814 144.5 c 128,-1,8
 841.5 133 841.5 133 857.5 118 c 128,-1,9
 873.5 103 873.5 103 873.5 85 c 0,10,11
 873.5 68 873.5 68 857.5 53 c 128,-1,12
 841.5 38 841.5 38 814 27 c 128,-1,13
 786.5 16 786.5 16 749 9.5 c 128,-1,14
 711.5 3 711.5 3 667.5 3 c 0,15,16
 624.5 3 624.5 3 587 9.5 c 128,-1,17
 549.5 16 549.5 16 521.5 27 c 128,-1,18
 493.5 38 493.5 38 478 53 c 128,-1,19
 462.5 68 462.5 68 462.5 85 c 0,0,1
462.5 272 m 0,20,21
 462.5 290 462.5 290 478 305 c 128,-1,22
 493.5 320 493.5 320 521.5 331.5 c 128,-1,23
 549.5 343 549.5 343 587 349 c 128,-1,24
 624.5 355 624.5 355 667.5 355 c 0,25,26
 711.5 355 711.5 355 749 349 c 128,-1,27
 786.5 343 786.5 343 814 331.5 c 128,-1,28
 841.5 320 841.5 320 857.5 305 c 128,-1,29
 873.5 290 873.5 290 873.5 272 c 0,30,31
 873.5 255 873.5 255 857.5 240 c 128,-1,32
 841.5 225 841.5 225 814 214 c 128,-1,33
 786.5 203 786.5 203 749 196 c 128,-1,34
 711.5 189 711.5 189 667.5 189 c 0,35,36
 624.5 189 624.5 189 587 196 c 128,-1,37
 549.5 203 549.5 203 521.5 214 c 128,-1,38
 493.5 225 493.5 225 478 240 c 128,-1,39
 462.5 255 462.5 255 462.5 272 c 0,20,21
542.5 272 m 256,40,41
 542.5 261 542.5 261 552 251.5 c 128,-1,42
 561.5 242 561.5 242 578.5 235 c 128,-1,43
 595.5 228 595.5 228 618.5 224 c 128,-1,44
 641.5 220 641.5 220 667.5 220 c 0,45,46
 694.5 220 694.5 220 717 224 c 128,-1,47
 739.5 228 739.5 228 756.5 235 c 128,-1,48
 773.5 242 773.5 242 783 251.5 c 128,-1,49
 792.5 261 792.5 261 792.5 272 c 256,50,51
 792.5 283 792.5 283 783 292.5 c 128,-1,52
 773.5 302 773.5 302 756.5 309 c 128,-1,53
 739.5 316 739.5 316 717 320 c 128,-1,54
 694.5 324 694.5 324 667.5 324 c 0,55,56
 641.5 324 641.5 324 618.5 320 c 128,-1,57
 595.5 316 595.5 316 578.5 309 c 128,-1,58
 561.5 302 561.5 302 552 292.5 c 128,-1,59
 542.5 283 542.5 283 542.5 272 c 256,40,41
462.5 461 m 256,60,61
 462.5 478 462.5 478 478 493.5 c 128,-1,62
 493.5 509 493.5 509 521.5 520 c 128,-1,63
 549.5 531 549.5 531 587 537.5 c 128,-1,64
 624.5 544 624.5 544 667.5 544 c 0,65,66
 711.5 544 711.5 544 749 537.5 c 128,-1,67
 786.5 531 786.5 531 814 520 c 128,-1,68
 841.5 509 841.5 509 857.5 493.5 c 128,-1,69
 873.5 478 873.5 478 873.5 461 c 256,70,71
 873.5 444 873.5 444 857.5 429 c 128,-1,72
 841.5 414 841.5 414 814 402.5 c 128,-1,73
 786.5 391 786.5 391 749 384.5 c 128,-1,74
 711.5 378 711.5 378 667.5 378 c 0,75,76
 624.5 378 624.5 378 587 384.5 c 128,-1,77
 549.5 391 549.5 391 521.5 402.5 c 128,-1,78
 493.5 414 493.5 414 478 429 c 128,-1,79
 462.5 444 462.5 444 462.5 461 c 256,60,61
542.5 461 m 256,80,81
 542.5 450 542.5 450 552 440.5 c 128,-1,82
 561.5 431 561.5 431 578.5 424 c 128,-1,83
 595.5 417 595.5 417 618.5 413 c 128,-1,84
 641.5 409 641.5 409 667.5 409 c 0,85,86
 694.5 409 694.5 409 717 413 c 128,-1,87
 739.5 417 739.5 417 756.5 424 c 128,-1,88
 773.5 431 773.5 431 783 440.5 c 128,-1,89
 792.5 450 792.5 450 792.5 461 c 256,90,91
 792.5 472 792.5 472 783 481.5 c 128,-1,92
 773.5 491 773.5 491 756.5 498 c 128,-1,93
 739.5 505 739.5 505 717 509 c 128,-1,94
 694.5 513 694.5 513 667.5 513 c 0,95,96
 641.5 513 641.5 513 618.5 509 c 128,-1,97
 595.5 505 595.5 505 578.5 498 c 128,-1,98
 561.5 491 561.5 491 552 481.5 c 128,-1,99
 542.5 472 542.5 472 542.5 461 c 256,80,81
462.5 648 m 256,100,101
 462.5 665 462.5 665 478 680.5 c 128,-1,102
 493.5 696 493.5 696 521.5 707 c 128,-1,103
 549.5 718 549.5 718 587 724.5 c 128,-1,104
 624.5 731 624.5 731 667.5 731 c 0,105,106
 711.5 731 711.5 731 749 724.5 c 128,-1,107
 786.5 718 786.5 718 814 707 c 128,-1,108
 841.5 696 841.5 696 857.5 680.5 c 128,-1,109
 873.5 665 873.5 665 873.5 648 c 256,110,111
 873.5 631 873.5 631 857.5 616 c 128,-1,112
 841.5 601 841.5 601 814 589.5 c 128,-1,113
 786.5 578 786.5 578 749 571.5 c 128,-1,114
 711.5 565 711.5 565 667.5 565 c 0,115,116
 624.5 565 624.5 565 587 571.5 c 128,-1,117
 549.5 578 549.5 578 521.5 589.5 c 128,-1,118
 493.5 601 493.5 601 478 616 c 128,-1,119
 462.5 631 462.5 631 462.5 648 c 256,100,101
542.5 648 m 0,120,121
 542.5 637 542.5 637 552 627.5 c 128,-1,122
 561.5 618 561.5 618 578.5 611 c 128,-1,123
 595.5 604 595.5 604 618.5 600 c 128,-1,124
 641.5 596 641.5 596 667.5 596 c 0,125,126
 694.5 596 694.5 596 717 600 c 128,-1,127
 739.5 604 739.5 604 756.5 611 c 128,-1,128
 773.5 618 773.5 618 783 627.5 c 128,-1,129
 792.5 637 792.5 637 792.5 648 c 0,130,131
 792.5 658 792.5 658 783 668 c 128,-1,132
 773.5 678 773.5 678 756.5 685 c 128,-1,133
 739.5 692 739.5 692 717 696 c 128,-1,134
 694.5 700 694.5 700 667.5 700 c 0,135,136
 641.5 700 641.5 700 618.5 696 c 128,-1,137
 595.5 692 595.5 692 578.5 685 c 128,-1,138
 561.5 678 561.5 678 552 668 c 128,-1,139
 542.5 658 542.5 658 542.5 648 c 0,120,121
EndSplineSet
EndChar

StartChar: uni0082
Encoding: 130 130 99
Width: 1336
Flags: W
LayerCount: 2
Fore
SplineSet
462.5 85 m 0,0,1
 462.5 103 462.5 103 478 118 c 128,-1,2
 493.5 133 493.5 133 521.5 144.5 c 128,-1,3
 549.5 156 549.5 156 587 162.5 c 128,-1,4
 624.5 169 624.5 169 667.5 169 c 0,5,6
 711.5 169 711.5 169 749 162.5 c 128,-1,7
 786.5 156 786.5 156 814 144.5 c 128,-1,8
 841.5 133 841.5 133 857.5 118 c 128,-1,9
 873.5 103 873.5 103 873.5 85 c 0,10,11
 873.5 68 873.5 68 857.5 53 c 128,-1,12
 841.5 38 841.5 38 814 27 c 128,-1,13
 786.5 16 786.5 16 749 9.5 c 128,-1,14
 711.5 3 711.5 3 667.5 3 c 0,15,16
 624.5 3 624.5 3 587 9.5 c 128,-1,17
 549.5 16 549.5 16 521.5 27 c 128,-1,18
 493.5 38 493.5 38 478 53 c 128,-1,19
 462.5 68 462.5 68 462.5 85 c 0,0,1
542.5 85 m 256,20,21
 542.5 74 542.5 74 552 64.5 c 128,-1,22
 561.5 55 561.5 55 578.5 48.5 c 128,-1,23
 595.5 42 595.5 42 618.5 38 c 128,-1,24
 641.5 34 641.5 34 667.5 34 c 0,25,26
 694.5 34 694.5 34 717 38 c 128,-1,27
 739.5 42 739.5 42 756.5 48.5 c 128,-1,28
 773.5 55 773.5 55 783 64.5 c 128,-1,29
 792.5 74 792.5 74 792.5 85 c 256,30,31
 792.5 96 792.5 96 783 105.5 c 128,-1,32
 773.5 115 773.5 115 756.5 122 c 128,-1,33
 739.5 129 739.5 129 717 133 c 128,-1,34
 694.5 137 694.5 137 667.5 137 c 0,35,36
 641.5 137 641.5 137 618.5 133 c 128,-1,37
 595.5 129 595.5 129 578.5 122 c 128,-1,38
 561.5 115 561.5 115 552 105.5 c 128,-1,39
 542.5 96 542.5 96 542.5 85 c 256,20,21
462.5 272 m 0,40,41
 462.5 290 462.5 290 478 305 c 128,-1,42
 493.5 320 493.5 320 521.5 331.5 c 128,-1,43
 549.5 343 549.5 343 587 349 c 128,-1,44
 624.5 355 624.5 355 667.5 355 c 0,45,46
 711.5 355 711.5 355 749 349 c 128,-1,47
 786.5 343 786.5 343 814 331.5 c 128,-1,48
 841.5 320 841.5 320 857.5 305 c 128,-1,49
 873.5 290 873.5 290 873.5 272 c 0,50,51
 873.5 255 873.5 255 857.5 240 c 128,-1,52
 841.5 225 841.5 225 814 214 c 128,-1,53
 786.5 203 786.5 203 749 196 c 128,-1,54
 711.5 189 711.5 189 667.5 189 c 0,55,56
 624.5 189 624.5 189 587 196 c 128,-1,57
 549.5 203 549.5 203 521.5 214 c 128,-1,58
 493.5 225 493.5 225 478 240 c 128,-1,59
 462.5 255 462.5 255 462.5 272 c 0,40,41
462.5 461 m 256,60,61
 462.5 478 462.5 478 478 493.5 c 128,-1,62
 493.5 509 493.5 509 521.5 520 c 128,-1,63
 549.5 531 549.5 531 587 537.5 c 128,-1,64
 624.5 544 624.5 544 667.5 544 c 0,65,66
 711.5 544 711.5 544 749 537.5 c 128,-1,67
 786.5 531 786.5 531 814 520 c 128,-1,68
 841.5 509 841.5 509 857.5 493.5 c 128,-1,69
 873.5 478 873.5 478 873.5 461 c 256,70,71
 873.5 444 873.5 444 857.5 429 c 128,-1,72
 841.5 414 841.5 414 814 402.5 c 128,-1,73
 786.5 391 786.5 391 749 384.5 c 128,-1,74
 711.5 378 711.5 378 667.5 378 c 0,75,76
 624.5 378 624.5 378 587 384.5 c 128,-1,77
 549.5 391 549.5 391 521.5 402.5 c 128,-1,78
 493.5 414 493.5 414 478 429 c 128,-1,79
 462.5 444 462.5 444 462.5 461 c 256,60,61
542.5 461 m 256,80,81
 542.5 450 542.5 450 552 440.5 c 128,-1,82
 561.5 431 561.5 431 578.5 424 c 128,-1,83
 595.5 417 595.5 417 618.5 413 c 128,-1,84
 641.5 409 641.5 409 667.5 409 c 0,85,86
 694.5 409 694.5 409 717 413 c 128,-1,87
 739.5 417 739.5 417 756.5 424 c 128,-1,88
 773.5 431 773.5 431 783 440.5 c 128,-1,89
 792.5 450 792.5 450 792.5 461 c 256,90,91
 792.5 472 792.5 472 783 481.5 c 128,-1,92
 773.5 491 773.5 491 756.5 498 c 128,-1,93
 739.5 505 739.5 505 717 509 c 128,-1,94
 694.5 513 694.5 513 667.5 513 c 0,95,96
 641.5 513 641.5 513 618.5 509 c 128,-1,97
 595.5 505 595.5 505 578.5 498 c 128,-1,98
 561.5 491 561.5 491 552 481.5 c 128,-1,99
 542.5 472 542.5 472 542.5 461 c 256,80,81
462.5 648 m 256,100,101
 462.5 665 462.5 665 478 680.5 c 128,-1,102
 493.5 696 493.5 696 521.5 707 c 128,-1,103
 549.5 718 549.5 718 587 724.5 c 128,-1,104
 624.5 731 624.5 731 667.5 731 c 0,105,106
 711.5 731 711.5 731 749 724.5 c 128,-1,107
 786.5 718 786.5 718 814 707 c 128,-1,108
 841.5 696 841.5 696 857.5 680.5 c 128,-1,109
 873.5 665 873.5 665 873.5 648 c 256,110,111
 873.5 631 873.5 631 857.5 616 c 128,-1,112
 841.5 601 841.5 601 814 589.5 c 128,-1,113
 786.5 578 786.5 578 749 571.5 c 128,-1,114
 711.5 565 711.5 565 667.5 565 c 0,115,116
 624.5 565 624.5 565 587 571.5 c 128,-1,117
 549.5 578 549.5 578 521.5 589.5 c 128,-1,118
 493.5 601 493.5 601 478 616 c 128,-1,119
 462.5 631 462.5 631 462.5 648 c 256,100,101
542.5 648 m 0,120,121
 542.5 637 542.5 637 552 627.5 c 128,-1,122
 561.5 618 561.5 618 578.5 611 c 128,-1,123
 595.5 604 595.5 604 618.5 600 c 128,-1,124
 641.5 596 641.5 596 667.5 596 c 0,125,126
 694.5 596 694.5 596 717 600 c 128,-1,127
 739.5 604 739.5 604 756.5 611 c 128,-1,128
 773.5 618 773.5 618 783 627.5 c 128,-1,129
 792.5 637 792.5 637 792.5 648 c 0,130,131
 792.5 658 792.5 658 783 668 c 128,-1,132
 773.5 678 773.5 678 756.5 685 c 128,-1,133
 739.5 692 739.5 692 717 696 c 128,-1,134
 694.5 700 694.5 700 667.5 700 c 0,135,136
 641.5 700 641.5 700 618.5 696 c 128,-1,137
 595.5 692 595.5 692 578.5 685 c 128,-1,138
 561.5 678 561.5 678 552 668 c 128,-1,139
 542.5 658 542.5 658 542.5 648 c 0,120,121
EndSplineSet
EndChar

StartChar: uni0083
Encoding: 131 131 100
Width: 1336
Flags: W
LayerCount: 2
Fore
SplineSet
462.5 85 m 0,0,1
 462.5 103 462.5 103 478 118 c 128,-1,2
 493.5 133 493.5 133 521.5 144.5 c 128,-1,3
 549.5 156 549.5 156 587 162.5 c 128,-1,4
 624.5 169 624.5 169 667.5 169 c 0,5,6
 711.5 169 711.5 169 749 162.5 c 128,-1,7
 786.5 156 786.5 156 814 144.5 c 128,-1,8
 841.5 133 841.5 133 857.5 118 c 128,-1,9
 873.5 103 873.5 103 873.5 85 c 0,10,11
 873.5 68 873.5 68 857.5 53 c 128,-1,12
 841.5 38 841.5 38 814 27 c 128,-1,13
 786.5 16 786.5 16 749 9.5 c 128,-1,14
 711.5 3 711.5 3 667.5 3 c 0,15,16
 624.5 3 624.5 3 587 9.5 c 128,-1,17
 549.5 16 549.5 16 521.5 27 c 128,-1,18
 493.5 38 493.5 38 478 53 c 128,-1,19
 462.5 68 462.5 68 462.5 85 c 0,0,1
462.5 272 m 0,20,21
 462.5 290 462.5 290 478 305 c 128,-1,22
 493.5 320 493.5 320 521.5 331.5 c 128,-1,23
 549.5 343 549.5 343 587 349 c 128,-1,24
 624.5 355 624.5 355 667.5 355 c 0,25,26
 711.5 355 711.5 355 749 349 c 128,-1,27
 786.5 343 786.5 343 814 331.5 c 128,-1,28
 841.5 320 841.5 320 857.5 305 c 128,-1,29
 873.5 290 873.5 290 873.5 272 c 0,30,31
 873.5 255 873.5 255 857.5 240 c 128,-1,32
 841.5 225 841.5 225 814 214 c 128,-1,33
 786.5 203 786.5 203 749 196 c 128,-1,34
 711.5 189 711.5 189 667.5 189 c 0,35,36
 624.5 189 624.5 189 587 196 c 128,-1,37
 549.5 203 549.5 203 521.5 214 c 128,-1,38
 493.5 225 493.5 225 478 240 c 128,-1,39
 462.5 255 462.5 255 462.5 272 c 0,20,21
462.5 461 m 256,40,41
 462.5 478 462.5 478 478 493.5 c 128,-1,42
 493.5 509 493.5 509 521.5 520 c 128,-1,43
 549.5 531 549.5 531 587 537.5 c 128,-1,44
 624.5 544 624.5 544 667.5 544 c 0,45,46
 711.5 544 711.5 544 749 537.5 c 128,-1,47
 786.5 531 786.5 531 814 520 c 128,-1,48
 841.5 509 841.5 509 857.5 493.5 c 128,-1,49
 873.5 478 873.5 478 873.5 461 c 256,50,51
 873.5 444 873.5 444 857.5 429 c 128,-1,52
 841.5 414 841.5 414 814 402.5 c 128,-1,53
 786.5 391 786.5 391 749 384.5 c 128,-1,54
 711.5 378 711.5 378 667.5 378 c 0,55,56
 624.5 378 624.5 378 587 384.5 c 128,-1,57
 549.5 391 549.5 391 521.5 402.5 c 128,-1,58
 493.5 414 493.5 414 478 429 c 128,-1,59
 462.5 444 462.5 444 462.5 461 c 256,40,41
542.5 461 m 256,60,61
 542.5 450 542.5 450 552 440.5 c 128,-1,62
 561.5 431 561.5 431 578.5 424 c 128,-1,63
 595.5 417 595.5 417 618.5 413 c 128,-1,64
 641.5 409 641.5 409 667.5 409 c 0,65,66
 694.5 409 694.5 409 717 413 c 128,-1,67
 739.5 417 739.5 417 756.5 424 c 128,-1,68
 773.5 431 773.5 431 783 440.5 c 128,-1,69
 792.5 450 792.5 450 792.5 461 c 256,70,71
 792.5 472 792.5 472 783 481.5 c 128,-1,72
 773.5 491 773.5 491 756.5 498 c 128,-1,73
 739.5 505 739.5 505 717 509 c 128,-1,74
 694.5 513 694.5 513 667.5 513 c 0,75,76
 641.5 513 641.5 513 618.5 509 c 128,-1,77
 595.5 505 595.5 505 578.5 498 c 128,-1,78
 561.5 491 561.5 491 552 481.5 c 128,-1,79
 542.5 472 542.5 472 542.5 461 c 256,60,61
462.5 648 m 256,80,81
 462.5 665 462.5 665 478 680.5 c 128,-1,82
 493.5 696 493.5 696 521.5 707 c 128,-1,83
 549.5 718 549.5 718 587 724.5 c 128,-1,84
 624.5 731 624.5 731 667.5 731 c 0,85,86
 711.5 731 711.5 731 749 724.5 c 128,-1,87
 786.5 718 786.5 718 814 707 c 128,-1,88
 841.5 696 841.5 696 857.5 680.5 c 128,-1,89
 873.5 665 873.5 665 873.5 648 c 256,90,91
 873.5 631 873.5 631 857.5 616 c 128,-1,92
 841.5 601 841.5 601 814 589.5 c 128,-1,93
 786.5 578 786.5 578 749 571.5 c 128,-1,94
 711.5 565 711.5 565 667.5 565 c 0,95,96
 624.5 565 624.5 565 587 571.5 c 128,-1,97
 549.5 578 549.5 578 521.5 589.5 c 128,-1,98
 493.5 601 493.5 601 478 616 c 128,-1,99
 462.5 631 462.5 631 462.5 648 c 256,80,81
542.5 648 m 0,100,101
 542.5 637 542.5 637 552 627.5 c 128,-1,102
 561.5 618 561.5 618 578.5 611 c 128,-1,103
 595.5 604 595.5 604 618.5 600 c 128,-1,104
 641.5 596 641.5 596 667.5 596 c 0,105,106
 694.5 596 694.5 596 717 600 c 128,-1,107
 739.5 604 739.5 604 756.5 611 c 128,-1,108
 773.5 618 773.5 618 783 627.5 c 128,-1,109
 792.5 637 792.5 637 792.5 648 c 0,110,111
 792.5 658 792.5 658 783 668 c 128,-1,112
 773.5 678 773.5 678 756.5 685 c 128,-1,113
 739.5 692 739.5 692 717 696 c 128,-1,114
 694.5 700 694.5 700 667.5 700 c 0,115,116
 641.5 700 641.5 700 618.5 696 c 128,-1,117
 595.5 692 595.5 692 578.5 685 c 128,-1,118
 561.5 678 561.5 678 552 668 c 128,-1,119
 542.5 658 542.5 658 542.5 648 c 0,100,101
EndSplineSet
EndChar

StartChar: uni0084
Encoding: 132 132 101
Width: 1336
Flags: W
LayerCount: 2
Fore
SplineSet
462.5 85 m 0,0,1
 462.5 103 462.5 103 478 118 c 128,-1,2
 493.5 133 493.5 133 521.5 144.5 c 128,-1,3
 549.5 156 549.5 156 587 162.5 c 128,-1,4
 624.5 169 624.5 169 667.5 169 c 0,5,6
 711.5 169 711.5 169 749 162.5 c 128,-1,7
 786.5 156 786.5 156 814 144.5 c 128,-1,8
 841.5 133 841.5 133 857.5 118 c 128,-1,9
 873.5 103 873.5 103 873.5 85 c 0,10,11
 873.5 68 873.5 68 857.5 53 c 128,-1,12
 841.5 38 841.5 38 814 27 c 128,-1,13
 786.5 16 786.5 16 749 9.5 c 128,-1,14
 711.5 3 711.5 3 667.5 3 c 0,15,16
 624.5 3 624.5 3 587 9.5 c 128,-1,17
 549.5 16 549.5 16 521.5 27 c 128,-1,18
 493.5 38 493.5 38 478 53 c 128,-1,19
 462.5 68 462.5 68 462.5 85 c 0,0,1
542.5 85 m 256,20,21
 542.5 74 542.5 74 552 64.5 c 128,-1,22
 561.5 55 561.5 55 578.5 48.5 c 128,-1,23
 595.5 42 595.5 42 618.5 38 c 128,-1,24
 641.5 34 641.5 34 667.5 34 c 0,25,26
 694.5 34 694.5 34 717 38 c 128,-1,27
 739.5 42 739.5 42 756.5 48.5 c 128,-1,28
 773.5 55 773.5 55 783 64.5 c 128,-1,29
 792.5 74 792.5 74 792.5 85 c 256,30,31
 792.5 96 792.5 96 783 105.5 c 128,-1,32
 773.5 115 773.5 115 756.5 122 c 128,-1,33
 739.5 129 739.5 129 717 133 c 128,-1,34
 694.5 137 694.5 137 667.5 137 c 0,35,36
 641.5 137 641.5 137 618.5 133 c 128,-1,37
 595.5 129 595.5 129 578.5 122 c 128,-1,38
 561.5 115 561.5 115 552 105.5 c 128,-1,39
 542.5 96 542.5 96 542.5 85 c 256,20,21
462.5 272 m 0,40,41
 462.5 290 462.5 290 478 305 c 128,-1,42
 493.5 320 493.5 320 521.5 331.5 c 128,-1,43
 549.5 343 549.5 343 587 349 c 128,-1,44
 624.5 355 624.5 355 667.5 355 c 0,45,46
 711.5 355 711.5 355 749 349 c 128,-1,47
 786.5 343 786.5 343 814 331.5 c 128,-1,48
 841.5 320 841.5 320 857.5 305 c 128,-1,49
 873.5 290 873.5 290 873.5 272 c 0,50,51
 873.5 255 873.5 255 857.5 240 c 128,-1,52
 841.5 225 841.5 225 814 214 c 128,-1,53
 786.5 203 786.5 203 749 196 c 128,-1,54
 711.5 189 711.5 189 667.5 189 c 0,55,56
 624.5 189 624.5 189 587 196 c 128,-1,57
 549.5 203 549.5 203 521.5 214 c 128,-1,58
 493.5 225 493.5 225 478 240 c 128,-1,59
 462.5 255 462.5 255 462.5 272 c 0,40,41
542.5 272 m 256,60,61
 542.5 261 542.5 261 552 251.5 c 128,-1,62
 561.5 242 561.5 242 578.5 235 c 128,-1,63
 595.5 228 595.5 228 618.5 224 c 128,-1,64
 641.5 220 641.5 220 667.5 220 c 0,65,66
 694.5 220 694.5 220 717 224 c 128,-1,67
 739.5 228 739.5 228 756.5 235 c 128,-1,68
 773.5 242 773.5 242 783 251.5 c 128,-1,69
 792.5 261 792.5 261 792.5 272 c 256,70,71
 792.5 283 792.5 283 783 292.5 c 128,-1,72
 773.5 302 773.5 302 756.5 309 c 128,-1,73
 739.5 316 739.5 316 717 320 c 128,-1,74
 694.5 324 694.5 324 667.5 324 c 0,75,76
 641.5 324 641.5 324 618.5 320 c 128,-1,77
 595.5 316 595.5 316 578.5 309 c 128,-1,78
 561.5 302 561.5 302 552 292.5 c 128,-1,79
 542.5 283 542.5 283 542.5 272 c 256,60,61
462.5 461 m 256,80,81
 462.5 478 462.5 478 478 493.5 c 128,-1,82
 493.5 509 493.5 509 521.5 520 c 128,-1,83
 549.5 531 549.5 531 587 537.5 c 128,-1,84
 624.5 544 624.5 544 667.5 544 c 0,85,86
 711.5 544 711.5 544 749 537.5 c 128,-1,87
 786.5 531 786.5 531 814 520 c 128,-1,88
 841.5 509 841.5 509 857.5 493.5 c 128,-1,89
 873.5 478 873.5 478 873.5 461 c 256,90,91
 873.5 444 873.5 444 857.5 429 c 128,-1,92
 841.5 414 841.5 414 814 402.5 c 128,-1,93
 786.5 391 786.5 391 749 384.5 c 128,-1,94
 711.5 378 711.5 378 667.5 378 c 0,95,96
 624.5 378 624.5 378 587 384.5 c 128,-1,97
 549.5 391 549.5 391 521.5 402.5 c 128,-1,98
 493.5 414 493.5 414 478 429 c 128,-1,99
 462.5 444 462.5 444 462.5 461 c 256,80,81
462.5 648 m 256,100,101
 462.5 665 462.5 665 478 680.5 c 128,-1,102
 493.5 696 493.5 696 521.5 707 c 128,-1,103
 549.5 718 549.5 718 587 724.5 c 128,-1,104
 624.5 731 624.5 731 667.5 731 c 0,105,106
 711.5 731 711.5 731 749 724.5 c 128,-1,107
 786.5 718 786.5 718 814 707 c 128,-1,108
 841.5 696 841.5 696 857.5 680.5 c 128,-1,109
 873.5 665 873.5 665 873.5 648 c 256,110,111
 873.5 631 873.5 631 857.5 616 c 128,-1,112
 841.5 601 841.5 601 814 589.5 c 128,-1,113
 786.5 578 786.5 578 749 571.5 c 128,-1,114
 711.5 565 711.5 565 667.5 565 c 0,115,116
 624.5 565 624.5 565 587 571.5 c 128,-1,117
 549.5 578 549.5 578 521.5 589.5 c 128,-1,118
 493.5 601 493.5 601 478 616 c 128,-1,119
 462.5 631 462.5 631 462.5 648 c 256,100,101
542.5 648 m 0,120,121
 542.5 637 542.5 637 552 627.5 c 128,-1,122
 561.5 618 561.5 618 578.5 611 c 128,-1,123
 595.5 604 595.5 604 618.5 600 c 128,-1,124
 641.5 596 641.5 596 667.5 596 c 0,125,126
 694.5 596 694.5 596 717 600 c 128,-1,127
 739.5 604 739.5 604 756.5 611 c 128,-1,128
 773.5 618 773.5 618 783 627.5 c 128,-1,129
 792.5 637 792.5 637 792.5 648 c 0,130,131
 792.5 658 792.5 658 783 668 c 128,-1,132
 773.5 678 773.5 678 756.5 685 c 128,-1,133
 739.5 692 739.5 692 717 696 c 128,-1,134
 694.5 700 694.5 700 667.5 700 c 0,135,136
 641.5 700 641.5 700 618.5 696 c 128,-1,137
 595.5 692 595.5 692 578.5 685 c 128,-1,138
 561.5 678 561.5 678 552 668 c 128,-1,139
 542.5 658 542.5 658 542.5 648 c 0,120,121
EndSplineSet
EndChar

StartChar: uni0085
Encoding: 133 133 102
Width: 1336
Flags: W
LayerCount: 2
Fore
SplineSet
462.5 85 m 0,0,1
 462.5 103 462.5 103 478 118 c 128,-1,2
 493.5 133 493.5 133 521.5 144.5 c 128,-1,3
 549.5 156 549.5 156 587 162.5 c 128,-1,4
 624.5 169 624.5 169 667.5 169 c 0,5,6
 711.5 169 711.5 169 749 162.5 c 128,-1,7
 786.5 156 786.5 156 814 144.5 c 128,-1,8
 841.5 133 841.5 133 857.5 118 c 128,-1,9
 873.5 103 873.5 103 873.5 85 c 0,10,11
 873.5 68 873.5 68 857.5 53 c 128,-1,12
 841.5 38 841.5 38 814 27 c 128,-1,13
 786.5 16 786.5 16 749 9.5 c 128,-1,14
 711.5 3 711.5 3 667.5 3 c 0,15,16
 624.5 3 624.5 3 587 9.5 c 128,-1,17
 549.5 16 549.5 16 521.5 27 c 128,-1,18
 493.5 38 493.5 38 478 53 c 128,-1,19
 462.5 68 462.5 68 462.5 85 c 0,0,1
462.5 272 m 0,20,21
 462.5 290 462.5 290 478 305 c 128,-1,22
 493.5 320 493.5 320 521.5 331.5 c 128,-1,23
 549.5 343 549.5 343 587 349 c 128,-1,24
 624.5 355 624.5 355 667.5 355 c 0,25,26
 711.5 355 711.5 355 749 349 c 128,-1,27
 786.5 343 786.5 343 814 331.5 c 128,-1,28
 841.5 320 841.5 320 857.5 305 c 128,-1,29
 873.5 290 873.5 290 873.5 272 c 0,30,31
 873.5 255 873.5 255 857.5 240 c 128,-1,32
 841.5 225 841.5 225 814 214 c 128,-1,33
 786.5 203 786.5 203 749 196 c 128,-1,34
 711.5 189 711.5 189 667.5 189 c 0,35,36
 624.5 189 624.5 189 587 196 c 128,-1,37
 549.5 203 549.5 203 521.5 214 c 128,-1,38
 493.5 225 493.5 225 478 240 c 128,-1,39
 462.5 255 462.5 255 462.5 272 c 0,20,21
542.5 272 m 256,40,41
 542.5 261 542.5 261 552 251.5 c 128,-1,42
 561.5 242 561.5 242 578.5 235 c 128,-1,43
 595.5 228 595.5 228 618.5 224 c 128,-1,44
 641.5 220 641.5 220 667.5 220 c 0,45,46
 694.5 220 694.5 220 717 224 c 128,-1,47
 739.5 228 739.5 228 756.5 235 c 128,-1,48
 773.5 242 773.5 242 783 251.5 c 128,-1,49
 792.5 261 792.5 261 792.5 272 c 256,50,51
 792.5 283 792.5 283 783 292.5 c 128,-1,52
 773.5 302 773.5 302 756.5 309 c 128,-1,53
 739.5 316 739.5 316 717 320 c 128,-1,54
 694.5 324 694.5 324 667.5 324 c 0,55,56
 641.5 324 641.5 324 618.5 320 c 128,-1,57
 595.5 316 595.5 316 578.5 309 c 128,-1,58
 561.5 302 561.5 302 552 292.5 c 128,-1,59
 542.5 283 542.5 283 542.5 272 c 256,40,41
462.5 461 m 256,60,61
 462.5 478 462.5 478 478 493.5 c 128,-1,62
 493.5 509 493.5 509 521.5 520 c 128,-1,63
 549.5 531 549.5 531 587 537.5 c 128,-1,64
 624.5 544 624.5 544 667.5 544 c 0,65,66
 711.5 544 711.5 544 749 537.5 c 128,-1,67
 786.5 531 786.5 531 814 520 c 128,-1,68
 841.5 509 841.5 509 857.5 493.5 c 128,-1,69
 873.5 478 873.5 478 873.5 461 c 256,70,71
 873.5 444 873.5 444 857.5 429 c 128,-1,72
 841.5 414 841.5 414 814 402.5 c 128,-1,73
 786.5 391 786.5 391 749 384.5 c 128,-1,74
 711.5 378 711.5 378 667.5 378 c 0,75,76
 624.5 378 624.5 378 587 384.5 c 128,-1,77
 549.5 391 549.5 391 521.5 402.5 c 128,-1,78
 493.5 414 493.5 414 478 429 c 128,-1,79
 462.5 444 462.5 444 462.5 461 c 256,60,61
462.5 648 m 256,80,81
 462.5 665 462.5 665 478 680.5 c 128,-1,82
 493.5 696 493.5 696 521.5 707 c 128,-1,83
 549.5 718 549.5 718 587 724.5 c 128,-1,84
 624.5 731 624.5 731 667.5 731 c 0,85,86
 711.5 731 711.5 731 749 724.5 c 128,-1,87
 786.5 718 786.5 718 814 707 c 128,-1,88
 841.5 696 841.5 696 857.5 680.5 c 128,-1,89
 873.5 665 873.5 665 873.5 648 c 256,90,91
 873.5 631 873.5 631 857.5 616 c 128,-1,92
 841.5 601 841.5 601 814 589.5 c 128,-1,93
 786.5 578 786.5 578 749 571.5 c 128,-1,94
 711.5 565 711.5 565 667.5 565 c 0,95,96
 624.5 565 624.5 565 587 571.5 c 128,-1,97
 549.5 578 549.5 578 521.5 589.5 c 128,-1,98
 493.5 601 493.5 601 478 616 c 128,-1,99
 462.5 631 462.5 631 462.5 648 c 256,80,81
542.5 648 m 0,100,101
 542.5 637 542.5 637 552 627.5 c 128,-1,102
 561.5 618 561.5 618 578.5 611 c 128,-1,103
 595.5 604 595.5 604 618.5 600 c 128,-1,104
 641.5 596 641.5 596 667.5 596 c 0,105,106
 694.5 596 694.5 596 717 600 c 128,-1,107
 739.5 604 739.5 604 756.5 611 c 128,-1,108
 773.5 618 773.5 618 783 627.5 c 128,-1,109
 792.5 637 792.5 637 792.5 648 c 0,110,111
 792.5 658 792.5 658 783 668 c 128,-1,112
 773.5 678 773.5 678 756.5 685 c 128,-1,113
 739.5 692 739.5 692 717 696 c 128,-1,114
 694.5 700 694.5 700 667.5 700 c 0,115,116
 641.5 700 641.5 700 618.5 696 c 128,-1,117
 595.5 692 595.5 692 578.5 685 c 128,-1,118
 561.5 678 561.5 678 552 668 c 128,-1,119
 542.5 658 542.5 658 542.5 648 c 0,100,101
EndSplineSet
EndChar

StartChar: uni0086
Encoding: 134 134 103
Width: 1336
Flags: W
LayerCount: 2
Fore
SplineSet
462.5 85 m 0,0,1
 462.5 103 462.5 103 478 118 c 128,-1,2
 493.5 133 493.5 133 521.5 144.5 c 128,-1,3
 549.5 156 549.5 156 587 162.5 c 128,-1,4
 624.5 169 624.5 169 667.5 169 c 0,5,6
 711.5 169 711.5 169 749 162.5 c 128,-1,7
 786.5 156 786.5 156 814 144.5 c 128,-1,8
 841.5 133 841.5 133 857.5 118 c 128,-1,9
 873.5 103 873.5 103 873.5 85 c 0,10,11
 873.5 68 873.5 68 857.5 53 c 128,-1,12
 841.5 38 841.5 38 814 27 c 128,-1,13
 786.5 16 786.5 16 749 9.5 c 128,-1,14
 711.5 3 711.5 3 667.5 3 c 0,15,16
 624.5 3 624.5 3 587 9.5 c 128,-1,17
 549.5 16 549.5 16 521.5 27 c 128,-1,18
 493.5 38 493.5 38 478 53 c 128,-1,19
 462.5 68 462.5 68 462.5 85 c 0,0,1
542.5 85 m 256,20,21
 542.5 74 542.5 74 552 64.5 c 128,-1,22
 561.5 55 561.5 55 578.5 48.5 c 128,-1,23
 595.5 42 595.5 42 618.5 38 c 128,-1,24
 641.5 34 641.5 34 667.5 34 c 0,25,26
 694.5 34 694.5 34 717 38 c 128,-1,27
 739.5 42 739.5 42 756.5 48.5 c 128,-1,28
 773.5 55 773.5 55 783 64.5 c 128,-1,29
 792.5 74 792.5 74 792.5 85 c 256,30,31
 792.5 96 792.5 96 783 105.5 c 128,-1,32
 773.5 115 773.5 115 756.5 122 c 128,-1,33
 739.5 129 739.5 129 717 133 c 128,-1,34
 694.5 137 694.5 137 667.5 137 c 0,35,36
 641.5 137 641.5 137 618.5 133 c 128,-1,37
 595.5 129 595.5 129 578.5 122 c 128,-1,38
 561.5 115 561.5 115 552 105.5 c 128,-1,39
 542.5 96 542.5 96 542.5 85 c 256,20,21
462.5 272 m 0,40,41
 462.5 290 462.5 290 478 305 c 128,-1,42
 493.5 320 493.5 320 521.5 331.5 c 128,-1,43
 549.5 343 549.5 343 587 349 c 128,-1,44
 624.5 355 624.5 355 667.5 355 c 0,45,46
 711.5 355 711.5 355 749 349 c 128,-1,47
 786.5 343 786.5 343 814 331.5 c 128,-1,48
 841.5 320 841.5 320 857.5 305 c 128,-1,49
 873.5 290 873.5 290 873.5 272 c 0,50,51
 873.5 255 873.5 255 857.5 240 c 128,-1,52
 841.5 225 841.5 225 814 214 c 128,-1,53
 786.5 203 786.5 203 749 196 c 128,-1,54
 711.5 189 711.5 189 667.5 189 c 0,55,56
 624.5 189 624.5 189 587 196 c 128,-1,57
 549.5 203 549.5 203 521.5 214 c 128,-1,58
 493.5 225 493.5 225 478 240 c 128,-1,59
 462.5 255 462.5 255 462.5 272 c 0,40,41
462.5 461 m 256,60,61
 462.5 478 462.5 478 478 493.5 c 128,-1,62
 493.5 509 493.5 509 521.5 520 c 128,-1,63
 549.5 531 549.5 531 587 537.5 c 128,-1,64
 624.5 544 624.5 544 667.5 544 c 0,65,66
 711.5 544 711.5 544 749 537.5 c 128,-1,67
 786.5 531 786.5 531 814 520 c 128,-1,68
 841.5 509 841.5 509 857.5 493.5 c 128,-1,69
 873.5 478 873.5 478 873.5 461 c 256,70,71
 873.5 444 873.5 444 857.5 429 c 128,-1,72
 841.5 414 841.5 414 814 402.5 c 128,-1,73
 786.5 391 786.5 391 749 384.5 c 128,-1,74
 711.5 378 711.5 378 667.5 378 c 0,75,76
 624.5 378 624.5 378 587 384.5 c 128,-1,77
 549.5 391 549.5 391 521.5 402.5 c 128,-1,78
 493.5 414 493.5 414 478 429 c 128,-1,79
 462.5 444 462.5 444 462.5 461 c 256,60,61
462.5 648 m 256,80,81
 462.5 665 462.5 665 478 680.5 c 128,-1,82
 493.5 696 493.5 696 521.5 707 c 128,-1,83
 549.5 718 549.5 718 587 724.5 c 128,-1,84
 624.5 731 624.5 731 667.5 731 c 0,85,86
 711.5 731 711.5 731 749 724.5 c 128,-1,87
 786.5 718 786.5 718 814 707 c 128,-1,88
 841.5 696 841.5 696 857.5 680.5 c 128,-1,89
 873.5 665 873.5 665 873.5 648 c 256,90,91
 873.5 631 873.5 631 857.5 616 c 128,-1,92
 841.5 601 841.5 601 814 589.5 c 128,-1,93
 786.5 578 786.5 578 749 571.5 c 128,-1,94
 711.5 565 711.5 565 667.5 565 c 0,95,96
 624.5 565 624.5 565 587 571.5 c 128,-1,97
 549.5 578 549.5 578 521.5 589.5 c 128,-1,98
 493.5 601 493.5 601 478 616 c 128,-1,99
 462.5 631 462.5 631 462.5 648 c 256,80,81
542.5 648 m 0,100,101
 542.5 637 542.5 637 552 627.5 c 128,-1,102
 561.5 618 561.5 618 578.5 611 c 128,-1,103
 595.5 604 595.5 604 618.5 600 c 128,-1,104
 641.5 596 641.5 596 667.5 596 c 0,105,106
 694.5 596 694.5 596 717 600 c 128,-1,107
 739.5 604 739.5 604 756.5 611 c 128,-1,108
 773.5 618 773.5 618 783 627.5 c 128,-1,109
 792.5 637 792.5 637 792.5 648 c 0,110,111
 792.5 658 792.5 658 783 668 c 128,-1,112
 773.5 678 773.5 678 756.5 685 c 128,-1,113
 739.5 692 739.5 692 717 696 c 128,-1,114
 694.5 700 694.5 700 667.5 700 c 0,115,116
 641.5 700 641.5 700 618.5 696 c 128,-1,117
 595.5 692 595.5 692 578.5 685 c 128,-1,118
 561.5 678 561.5 678 552 668 c 128,-1,119
 542.5 658 542.5 658 542.5 648 c 0,100,101
EndSplineSet
EndChar

StartChar: uni0087
Encoding: 135 135 104
Width: 1336
Flags: W
LayerCount: 2
Fore
SplineSet
462.5 85 m 0,0,1
 462.5 103 462.5 103 478 118 c 128,-1,2
 493.5 133 493.5 133 521.5 144.5 c 128,-1,3
 549.5 156 549.5 156 587 162.5 c 128,-1,4
 624.5 169 624.5 169 667.5 169 c 0,5,6
 711.5 169 711.5 169 749 162.5 c 128,-1,7
 786.5 156 786.5 156 814 144.5 c 128,-1,8
 841.5 133 841.5 133 857.5 118 c 128,-1,9
 873.5 103 873.5 103 873.5 85 c 0,10,11
 873.5 68 873.5 68 857.5 53 c 128,-1,12
 841.5 38 841.5 38 814 27 c 128,-1,13
 786.5 16 786.5 16 749 9.5 c 128,-1,14
 711.5 3 711.5 3 667.5 3 c 0,15,16
 624.5 3 624.5 3 587 9.5 c 128,-1,17
 549.5 16 549.5 16 521.5 27 c 128,-1,18
 493.5 38 493.5 38 478 53 c 128,-1,19
 462.5 68 462.5 68 462.5 85 c 0,0,1
462.5 272 m 0,20,21
 462.5 290 462.5 290 478 305 c 128,-1,22
 493.5 320 493.5 320 521.5 331.5 c 128,-1,23
 549.5 343 549.5 343 587 349 c 128,-1,24
 624.5 355 624.5 355 667.5 355 c 0,25,26
 711.5 355 711.5 355 749 349 c 128,-1,27
 786.5 343 786.5 343 814 331.5 c 128,-1,28
 841.5 320 841.5 320 857.5 305 c 128,-1,29
 873.5 290 873.5 290 873.5 272 c 0,30,31
 873.5 255 873.5 255 857.5 240 c 128,-1,32
 841.5 225 841.5 225 814 214 c 128,-1,33
 786.5 203 786.5 203 749 196 c 128,-1,34
 711.5 189 711.5 189 667.5 189 c 0,35,36
 624.5 189 624.5 189 587 196 c 128,-1,37
 549.5 203 549.5 203 521.5 214 c 128,-1,38
 493.5 225 493.5 225 478 240 c 128,-1,39
 462.5 255 462.5 255 462.5 272 c 0,20,21
462.5 461 m 256,40,41
 462.5 478 462.5 478 478 493.5 c 128,-1,42
 493.5 509 493.5 509 521.5 520 c 128,-1,43
 549.5 531 549.5 531 587 537.5 c 128,-1,44
 624.5 544 624.5 544 667.5 544 c 0,45,46
 711.5 544 711.5 544 749 537.5 c 128,-1,47
 786.5 531 786.5 531 814 520 c 128,-1,48
 841.5 509 841.5 509 857.5 493.5 c 128,-1,49
 873.5 478 873.5 478 873.5 461 c 256,50,51
 873.5 444 873.5 444 857.5 429 c 128,-1,52
 841.5 414 841.5 414 814 402.5 c 128,-1,53
 786.5 391 786.5 391 749 384.5 c 128,-1,54
 711.5 378 711.5 378 667.5 378 c 0,55,56
 624.5 378 624.5 378 587 384.5 c 128,-1,57
 549.5 391 549.5 391 521.5 402.5 c 128,-1,58
 493.5 414 493.5 414 478 429 c 128,-1,59
 462.5 444 462.5 444 462.5 461 c 256,40,41
462.5 648 m 256,60,61
 462.5 665 462.5 665 478 680.5 c 128,-1,62
 493.5 696 493.5 696 521.5 707 c 128,-1,63
 549.5 718 549.5 718 587 724.5 c 128,-1,64
 624.5 731 624.5 731 667.5 731 c 0,65,66
 711.5 731 711.5 731 749 724.5 c 128,-1,67
 786.5 718 786.5 718 814 707 c 128,-1,68
 841.5 696 841.5 696 857.5 680.5 c 128,-1,69
 873.5 665 873.5 665 873.5 648 c 256,70,71
 873.5 631 873.5 631 857.5 616 c 128,-1,72
 841.5 601 841.5 601 814 589.5 c 128,-1,73
 786.5 578 786.5 578 749 571.5 c 128,-1,74
 711.5 565 711.5 565 667.5 565 c 0,75,76
 624.5 565 624.5 565 587 571.5 c 128,-1,77
 549.5 578 549.5 578 521.5 589.5 c 128,-1,78
 493.5 601 493.5 601 478 616 c 128,-1,79
 462.5 631 462.5 631 462.5 648 c 256,60,61
542.5 648 m 0,80,81
 542.5 637 542.5 637 552 627.5 c 128,-1,82
 561.5 618 561.5 618 578.5 611 c 128,-1,83
 595.5 604 595.5 604 618.5 600 c 128,-1,84
 641.5 596 641.5 596 667.5 596 c 0,85,86
 694.5 596 694.5 596 717 600 c 128,-1,87
 739.5 604 739.5 604 756.5 611 c 128,-1,88
 773.5 618 773.5 618 783 627.5 c 128,-1,89
 792.5 637 792.5 637 792.5 648 c 0,90,91
 792.5 658 792.5 658 783 668 c 128,-1,92
 773.5 678 773.5 678 756.5 685 c 128,-1,93
 739.5 692 739.5 692 717 696 c 128,-1,94
 694.5 700 694.5 700 667.5 700 c 0,95,96
 641.5 700 641.5 700 618.5 696 c 128,-1,97
 595.5 692 595.5 692 578.5 685 c 128,-1,98
 561.5 678 561.5 678 552 668 c 128,-1,99
 542.5 658 542.5 658 542.5 648 c 0,80,81
EndSplineSet
EndChar

StartChar: uni0088
Encoding: 136 136 105
Width: 1336
Flags: W
LayerCount: 2
Fore
SplineSet
462.5 85 m 0,0,1
 462.5 103 462.5 103 478 118 c 128,-1,2
 493.5 133 493.5 133 521.5 144.5 c 128,-1,3
 549.5 156 549.5 156 587 162.5 c 128,-1,4
 624.5 169 624.5 169 667.5 169 c 0,5,6
 711.5 169 711.5 169 749 162.5 c 128,-1,7
 786.5 156 786.5 156 814 144.5 c 128,-1,8
 841.5 133 841.5 133 857.5 118 c 128,-1,9
 873.5 103 873.5 103 873.5 85 c 0,10,11
 873.5 68 873.5 68 857.5 53 c 128,-1,12
 841.5 38 841.5 38 814 27 c 128,-1,13
 786.5 16 786.5 16 749 9.5 c 128,-1,14
 711.5 3 711.5 3 667.5 3 c 0,15,16
 624.5 3 624.5 3 587 9.5 c 128,-1,17
 549.5 16 549.5 16 521.5 27 c 128,-1,18
 493.5 38 493.5 38 478 53 c 128,-1,19
 462.5 68 462.5 68 462.5 85 c 0,0,1
542.5 85 m 256,20,21
 542.5 74 542.5 74 552 64.5 c 128,-1,22
 561.5 55 561.5 55 578.5 48.5 c 128,-1,23
 595.5 42 595.5 42 618.5 38 c 128,-1,24
 641.5 34 641.5 34 667.5 34 c 0,25,26
 694.5 34 694.5 34 717 38 c 128,-1,27
 739.5 42 739.5 42 756.5 48.5 c 128,-1,28
 773.5 55 773.5 55 783 64.5 c 128,-1,29
 792.5 74 792.5 74 792.5 85 c 256,30,31
 792.5 96 792.5 96 783 105.5 c 128,-1,32
 773.5 115 773.5 115 756.5 122 c 128,-1,33
 739.5 129 739.5 129 717 133 c 128,-1,34
 694.5 137 694.5 137 667.5 137 c 0,35,36
 641.5 137 641.5 137 618.5 133 c 128,-1,37
 595.5 129 595.5 129 578.5 122 c 128,-1,38
 561.5 115 561.5 115 552 105.5 c 128,-1,39
 542.5 96 542.5 96 542.5 85 c 256,20,21
462.5 272 m 0,40,41
 462.5 290 462.5 290 478 305 c 128,-1,42
 493.5 320 493.5 320 521.5 331.5 c 128,-1,43
 549.5 343 549.5 343 587 349 c 128,-1,44
 624.5 355 624.5 355 667.5 355 c 0,45,46
 711.5 355 711.5 355 749 349 c 128,-1,47
 786.5 343 786.5 343 814 331.5 c 128,-1,48
 841.5 320 841.5 320 857.5 305 c 128,-1,49
 873.5 290 873.5 290 873.5 272 c 0,50,51
 873.5 255 873.5 255 857.5 240 c 128,-1,52
 841.5 225 841.5 225 814 214 c 128,-1,53
 786.5 203 786.5 203 749 196 c 128,-1,54
 711.5 189 711.5 189 667.5 189 c 0,55,56
 624.5 189 624.5 189 587 196 c 128,-1,57
 549.5 203 549.5 203 521.5 214 c 128,-1,58
 493.5 225 493.5 225 478 240 c 128,-1,59
 462.5 255 462.5 255 462.5 272 c 0,40,41
542.5 272 m 256,60,61
 542.5 261 542.5 261 552 251.5 c 128,-1,62
 561.5 242 561.5 242 578.5 235 c 128,-1,63
 595.5 228 595.5 228 618.5 224 c 128,-1,64
 641.5 220 641.5 220 667.5 220 c 0,65,66
 694.5 220 694.5 220 717 224 c 128,-1,67
 739.5 228 739.5 228 756.5 235 c 128,-1,68
 773.5 242 773.5 242 783 251.5 c 128,-1,69
 792.5 261 792.5 261 792.5 272 c 256,70,71
 792.5 283 792.5 283 783 292.5 c 128,-1,72
 773.5 302 773.5 302 756.5 309 c 128,-1,73
 739.5 316 739.5 316 717 320 c 128,-1,74
 694.5 324 694.5 324 667.5 324 c 0,75,76
 641.5 324 641.5 324 618.5 320 c 128,-1,77
 595.5 316 595.5 316 578.5 309 c 128,-1,78
 561.5 302 561.5 302 552 292.5 c 128,-1,79
 542.5 283 542.5 283 542.5 272 c 256,60,61
462.5 461 m 256,80,81
 462.5 478 462.5 478 478 493.5 c 128,-1,82
 493.5 509 493.5 509 521.5 520 c 128,-1,83
 549.5 531 549.5 531 587 537.5 c 128,-1,84
 624.5 544 624.5 544 667.5 544 c 0,85,86
 711.5 544 711.5 544 749 537.5 c 128,-1,87
 786.5 531 786.5 531 814 520 c 128,-1,88
 841.5 509 841.5 509 857.5 493.5 c 128,-1,89
 873.5 478 873.5 478 873.5 461 c 256,90,91
 873.5 444 873.5 444 857.5 429 c 128,-1,92
 841.5 414 841.5 414 814 402.5 c 128,-1,93
 786.5 391 786.5 391 749 384.5 c 128,-1,94
 711.5 378 711.5 378 667.5 378 c 0,95,96
 624.5 378 624.5 378 587 384.5 c 128,-1,97
 549.5 391 549.5 391 521.5 402.5 c 128,-1,98
 493.5 414 493.5 414 478 429 c 128,-1,99
 462.5 444 462.5 444 462.5 461 c 256,80,81
542.5 461 m 256,100,101
 542.5 450 542.5 450 552 440.5 c 128,-1,102
 561.5 431 561.5 431 578.5 424 c 128,-1,103
 595.5 417 595.5 417 618.5 413 c 128,-1,104
 641.5 409 641.5 409 667.5 409 c 0,105,106
 694.5 409 694.5 409 717 413 c 128,-1,107
 739.5 417 739.5 417 756.5 424 c 128,-1,108
 773.5 431 773.5 431 783 440.5 c 128,-1,109
 792.5 450 792.5 450 792.5 461 c 256,110,111
 792.5 472 792.5 472 783 481.5 c 128,-1,112
 773.5 491 773.5 491 756.5 498 c 128,-1,113
 739.5 505 739.5 505 717 509 c 128,-1,114
 694.5 513 694.5 513 667.5 513 c 0,115,116
 641.5 513 641.5 513 618.5 509 c 128,-1,117
 595.5 505 595.5 505 578.5 498 c 128,-1,118
 561.5 491 561.5 491 552 481.5 c 128,-1,119
 542.5 472 542.5 472 542.5 461 c 256,100,101
462.5 648 m 256,120,121
 462.5 665 462.5 665 478 680.5 c 128,-1,122
 493.5 696 493.5 696 521.5 707 c 128,-1,123
 549.5 718 549.5 718 587 724.5 c 128,-1,124
 624.5 731 624.5 731 667.5 731 c 0,125,126
 711.5 731 711.5 731 749 724.5 c 128,-1,127
 786.5 718 786.5 718 814 707 c 128,-1,128
 841.5 696 841.5 696 857.5 680.5 c 128,-1,129
 873.5 665 873.5 665 873.5 648 c 256,130,131
 873.5 631 873.5 631 857.5 616 c 128,-1,132
 841.5 601 841.5 601 814 589.5 c 128,-1,133
 786.5 578 786.5 578 749 571.5 c 128,-1,134
 711.5 565 711.5 565 667.5 565 c 0,135,136
 624.5 565 624.5 565 587 571.5 c 128,-1,137
 549.5 578 549.5 578 521.5 589.5 c 128,-1,138
 493.5 601 493.5 601 478 616 c 128,-1,139
 462.5 631 462.5 631 462.5 648 c 256,120,121
EndSplineSet
EndChar

StartChar: uni0089
Encoding: 137 137 106
Width: 1336
Flags: W
LayerCount: 2
Fore
SplineSet
462.5 85 m 0,0,1
 462.5 103 462.5 103 478 118 c 128,-1,2
 493.5 133 493.5 133 521.5 144.5 c 128,-1,3
 549.5 156 549.5 156 587 162.5 c 128,-1,4
 624.5 169 624.5 169 667.5 169 c 0,5,6
 711.5 169 711.5 169 749 162.5 c 128,-1,7
 786.5 156 786.5 156 814 144.5 c 128,-1,8
 841.5 133 841.5 133 857.5 118 c 128,-1,9
 873.5 103 873.5 103 873.5 85 c 0,10,11
 873.5 68 873.5 68 857.5 53 c 128,-1,12
 841.5 38 841.5 38 814 27 c 128,-1,13
 786.5 16 786.5 16 749 9.5 c 128,-1,14
 711.5 3 711.5 3 667.5 3 c 0,15,16
 624.5 3 624.5 3 587 9.5 c 128,-1,17
 549.5 16 549.5 16 521.5 27 c 128,-1,18
 493.5 38 493.5 38 478 53 c 128,-1,19
 462.5 68 462.5 68 462.5 85 c 0,0,1
462.5 272 m 0,20,21
 462.5 290 462.5 290 478 305 c 128,-1,22
 493.5 320 493.5 320 521.5 331.5 c 128,-1,23
 549.5 343 549.5 343 587 349 c 128,-1,24
 624.5 355 624.5 355 667.5 355 c 0,25,26
 711.5 355 711.5 355 749 349 c 128,-1,27
 786.5 343 786.5 343 814 331.5 c 128,-1,28
 841.5 320 841.5 320 857.5 305 c 128,-1,29
 873.5 290 873.5 290 873.5 272 c 0,30,31
 873.5 255 873.5 255 857.5 240 c 128,-1,32
 841.5 225 841.5 225 814 214 c 128,-1,33
 786.5 203 786.5 203 749 196 c 128,-1,34
 711.5 189 711.5 189 667.5 189 c 0,35,36
 624.5 189 624.5 189 587 196 c 128,-1,37
 549.5 203 549.5 203 521.5 214 c 128,-1,38
 493.5 225 493.5 225 478 240 c 128,-1,39
 462.5 255 462.5 255 462.5 272 c 0,20,21
542.5 272 m 256,40,41
 542.5 261 542.5 261 552 251.5 c 128,-1,42
 561.5 242 561.5 242 578.5 235 c 128,-1,43
 595.5 228 595.5 228 618.5 224 c 128,-1,44
 641.5 220 641.5 220 667.5 220 c 0,45,46
 694.5 220 694.5 220 717 224 c 128,-1,47
 739.5 228 739.5 228 756.5 235 c 128,-1,48
 773.5 242 773.5 242 783 251.5 c 128,-1,49
 792.5 261 792.5 261 792.5 272 c 256,50,51
 792.5 283 792.5 283 783 292.5 c 128,-1,52
 773.5 302 773.5 302 756.5 309 c 128,-1,53
 739.5 316 739.5 316 717 320 c 128,-1,54
 694.5 324 694.5 324 667.5 324 c 0,55,56
 641.5 324 641.5 324 618.5 320 c 128,-1,57
 595.5 316 595.5 316 578.5 309 c 128,-1,58
 561.5 302 561.5 302 552 292.5 c 128,-1,59
 542.5 283 542.5 283 542.5 272 c 256,40,41
462.5 461 m 256,60,61
 462.5 478 462.5 478 478 493.5 c 128,-1,62
 493.5 509 493.5 509 521.5 520 c 128,-1,63
 549.5 531 549.5 531 587 537.5 c 128,-1,64
 624.5 544 624.5 544 667.5 544 c 0,65,66
 711.5 544 711.5 544 749 537.5 c 128,-1,67
 786.5 531 786.5 531 814 520 c 128,-1,68
 841.5 509 841.5 509 857.5 493.5 c 128,-1,69
 873.5 478 873.5 478 873.5 461 c 256,70,71
 873.5 444 873.5 444 857.5 429 c 128,-1,72
 841.5 414 841.5 414 814 402.5 c 128,-1,73
 786.5 391 786.5 391 749 384.5 c 128,-1,74
 711.5 378 711.5 378 667.5 378 c 0,75,76
 624.5 378 624.5 378 587 384.5 c 128,-1,77
 549.5 391 549.5 391 521.5 402.5 c 128,-1,78
 493.5 414 493.5 414 478 429 c 128,-1,79
 462.5 444 462.5 444 462.5 461 c 256,60,61
542.5 461 m 256,80,81
 542.5 450 542.5 450 552 440.5 c 128,-1,82
 561.5 431 561.5 431 578.5 424 c 128,-1,83
 595.5 417 595.5 417 618.5 413 c 128,-1,84
 641.5 409 641.5 409 667.5 409 c 0,85,86
 694.5 409 694.5 409 717 413 c 128,-1,87
 739.5 417 739.5 417 756.5 424 c 128,-1,88
 773.5 431 773.5 431 783 440.5 c 128,-1,89
 792.5 450 792.5 450 792.5 461 c 256,90,91
 792.5 472 792.5 472 783 481.5 c 128,-1,92
 773.5 491 773.5 491 756.5 498 c 128,-1,93
 739.5 505 739.5 505 717 509 c 128,-1,94
 694.5 513 694.5 513 667.5 513 c 0,95,96
 641.5 513 641.5 513 618.5 509 c 128,-1,97
 595.5 505 595.5 505 578.5 498 c 128,-1,98
 561.5 491 561.5 491 552 481.5 c 128,-1,99
 542.5 472 542.5 472 542.5 461 c 256,80,81
462.5 648 m 256,100,101
 462.5 665 462.5 665 478 680.5 c 128,-1,102
 493.5 696 493.5 696 521.5 707 c 128,-1,103
 549.5 718 549.5 718 587 724.5 c 128,-1,104
 624.5 731 624.5 731 667.5 731 c 0,105,106
 711.5 731 711.5 731 749 724.5 c 128,-1,107
 786.5 718 786.5 718 814 707 c 128,-1,108
 841.5 696 841.5 696 857.5 680.5 c 128,-1,109
 873.5 665 873.5 665 873.5 648 c 256,110,111
 873.5 631 873.5 631 857.5 616 c 128,-1,112
 841.5 601 841.5 601 814 589.5 c 128,-1,113
 786.5 578 786.5 578 749 571.5 c 128,-1,114
 711.5 565 711.5 565 667.5 565 c 0,115,116
 624.5 565 624.5 565 587 571.5 c 128,-1,117
 549.5 578 549.5 578 521.5 589.5 c 128,-1,118
 493.5 601 493.5 601 478 616 c 128,-1,119
 462.5 631 462.5 631 462.5 648 c 256,100,101
EndSplineSet
EndChar

StartChar: uni008A
Encoding: 138 138 107
Width: 1336
Flags: W
LayerCount: 2
Fore
SplineSet
462.5 85 m 0,0,1
 462.5 103 462.5 103 478 118 c 128,-1,2
 493.5 133 493.5 133 521.5 144.5 c 128,-1,3
 549.5 156 549.5 156 587 162.5 c 128,-1,4
 624.5 169 624.5 169 667.5 169 c 0,5,6
 711.5 169 711.5 169 749 162.5 c 128,-1,7
 786.5 156 786.5 156 814 144.5 c 128,-1,8
 841.5 133 841.5 133 857.5 118 c 128,-1,9
 873.5 103 873.5 103 873.5 85 c 0,10,11
 873.5 68 873.5 68 857.5 53 c 128,-1,12
 841.5 38 841.5 38 814 27 c 128,-1,13
 786.5 16 786.5 16 749 9.5 c 128,-1,14
 711.5 3 711.5 3 667.5 3 c 0,15,16
 624.5 3 624.5 3 587 9.5 c 128,-1,17
 549.5 16 549.5 16 521.5 27 c 128,-1,18
 493.5 38 493.5 38 478 53 c 128,-1,19
 462.5 68 462.5 68 462.5 85 c 0,0,1
542.5 85 m 256,20,21
 542.5 74 542.5 74 552 64.5 c 128,-1,22
 561.5 55 561.5 55 578.5 48.5 c 128,-1,23
 595.5 42 595.5 42 618.5 38 c 128,-1,24
 641.5 34 641.5 34 667.5 34 c 0,25,26
 694.5 34 694.5 34 717 38 c 128,-1,27
 739.5 42 739.5 42 756.5 48.5 c 128,-1,28
 773.5 55 773.5 55 783 64.5 c 128,-1,29
 792.5 74 792.5 74 792.5 85 c 256,30,31
 792.5 96 792.5 96 783 105.5 c 128,-1,32
 773.5 115 773.5 115 756.5 122 c 128,-1,33
 739.5 129 739.5 129 717 133 c 128,-1,34
 694.5 137 694.5 137 667.5 137 c 0,35,36
 641.5 137 641.5 137 618.5 133 c 128,-1,37
 595.5 129 595.5 129 578.5 122 c 128,-1,38
 561.5 115 561.5 115 552 105.5 c 128,-1,39
 542.5 96 542.5 96 542.5 85 c 256,20,21
462.5 272 m 0,40,41
 462.5 290 462.5 290 478 305 c 128,-1,42
 493.5 320 493.5 320 521.5 331.5 c 128,-1,43
 549.5 343 549.5 343 587 349 c 128,-1,44
 624.5 355 624.5 355 667.5 355 c 0,45,46
 711.5 355 711.5 355 749 349 c 128,-1,47
 786.5 343 786.5 343 814 331.5 c 128,-1,48
 841.5 320 841.5 320 857.5 305 c 128,-1,49
 873.5 290 873.5 290 873.5 272 c 0,50,51
 873.5 255 873.5 255 857.5 240 c 128,-1,52
 841.5 225 841.5 225 814 214 c 128,-1,53
 786.5 203 786.5 203 749 196 c 128,-1,54
 711.5 189 711.5 189 667.5 189 c 0,55,56
 624.5 189 624.5 189 587 196 c 128,-1,57
 549.5 203 549.5 203 521.5 214 c 128,-1,58
 493.5 225 493.5 225 478 240 c 128,-1,59
 462.5 255 462.5 255 462.5 272 c 0,40,41
462.5 461 m 256,60,61
 462.5 478 462.5 478 478 493.5 c 128,-1,62
 493.5 509 493.5 509 521.5 520 c 128,-1,63
 549.5 531 549.5 531 587 537.5 c 128,-1,64
 624.5 544 624.5 544 667.5 544 c 0,65,66
 711.5 544 711.5 544 749 537.5 c 128,-1,67
 786.5 531 786.5 531 814 520 c 128,-1,68
 841.5 509 841.5 509 857.5 493.5 c 128,-1,69
 873.5 478 873.5 478 873.5 461 c 256,70,71
 873.5 444 873.5 444 857.5 429 c 128,-1,72
 841.5 414 841.5 414 814 402.5 c 128,-1,73
 786.5 391 786.5 391 749 384.5 c 128,-1,74
 711.5 378 711.5 378 667.5 378 c 0,75,76
 624.5 378 624.5 378 587 384.5 c 128,-1,77
 549.5 391 549.5 391 521.5 402.5 c 128,-1,78
 493.5 414 493.5 414 478 429 c 128,-1,79
 462.5 444 462.5 444 462.5 461 c 256,60,61
542.5 461 m 256,80,81
 542.5 450 542.5 450 552 440.5 c 128,-1,82
 561.5 431 561.5 431 578.5 424 c 128,-1,83
 595.5 417 595.5 417 618.5 413 c 128,-1,84
 641.5 409 641.5 409 667.5 409 c 0,85,86
 694.5 409 694.5 409 717 413 c 128,-1,87
 739.5 417 739.5 417 756.5 424 c 128,-1,88
 773.5 431 773.5 431 783 440.5 c 128,-1,89
 792.5 450 792.5 450 792.5 461 c 256,90,91
 792.5 472 792.5 472 783 481.5 c 128,-1,92
 773.5 491 773.5 491 756.5 498 c 128,-1,93
 739.5 505 739.5 505 717 509 c 128,-1,94
 694.5 513 694.5 513 667.5 513 c 0,95,96
 641.5 513 641.5 513 618.5 509 c 128,-1,97
 595.5 505 595.5 505 578.5 498 c 128,-1,98
 561.5 491 561.5 491 552 481.5 c 128,-1,99
 542.5 472 542.5 472 542.5 461 c 256,80,81
462.5 648 m 256,100,101
 462.5 665 462.5 665 478 680.5 c 128,-1,102
 493.5 696 493.5 696 521.5 707 c 128,-1,103
 549.5 718 549.5 718 587 724.5 c 128,-1,104
 624.5 731 624.5 731 667.5 731 c 0,105,106
 711.5 731 711.5 731 749 724.5 c 128,-1,107
 786.5 718 786.5 718 814 707 c 128,-1,108
 841.5 696 841.5 696 857.5 680.5 c 128,-1,109
 873.5 665 873.5 665 873.5 648 c 256,110,111
 873.5 631 873.5 631 857.5 616 c 128,-1,112
 841.5 601 841.5 601 814 589.5 c 128,-1,113
 786.5 578 786.5 578 749 571.5 c 128,-1,114
 711.5 565 711.5 565 667.5 565 c 0,115,116
 624.5 565 624.5 565 587 571.5 c 128,-1,117
 549.5 578 549.5 578 521.5 589.5 c 128,-1,118
 493.5 601 493.5 601 478 616 c 128,-1,119
 462.5 631 462.5 631 462.5 648 c 256,100,101
EndSplineSet
EndChar

StartChar: uni008B
Encoding: 139 139 108
Width: 1336
Flags: W
LayerCount: 2
Fore
SplineSet
462.5 85 m 0,0,1
 462.5 103 462.5 103 478 118 c 128,-1,2
 493.5 133 493.5 133 521.5 144.5 c 128,-1,3
 549.5 156 549.5 156 587 162.5 c 128,-1,4
 624.5 169 624.5 169 667.5 169 c 0,5,6
 711.5 169 711.5 169 749 162.5 c 128,-1,7
 786.5 156 786.5 156 814 144.5 c 128,-1,8
 841.5 133 841.5 133 857.5 118 c 128,-1,9
 873.5 103 873.5 103 873.5 85 c 0,10,11
 873.5 68 873.5 68 857.5 53 c 128,-1,12
 841.5 38 841.5 38 814 27 c 128,-1,13
 786.5 16 786.5 16 749 9.5 c 128,-1,14
 711.5 3 711.5 3 667.5 3 c 0,15,16
 624.5 3 624.5 3 587 9.5 c 128,-1,17
 549.5 16 549.5 16 521.5 27 c 128,-1,18
 493.5 38 493.5 38 478 53 c 128,-1,19
 462.5 68 462.5 68 462.5 85 c 0,0,1
462.5 272 m 0,20,21
 462.5 290 462.5 290 478 305 c 128,-1,22
 493.5 320 493.5 320 521.5 331.5 c 128,-1,23
 549.5 343 549.5 343 587 349 c 128,-1,24
 624.5 355 624.5 355 667.5 355 c 0,25,26
 711.5 355 711.5 355 749 349 c 128,-1,27
 786.5 343 786.5 343 814 331.5 c 128,-1,28
 841.5 320 841.5 320 857.5 305 c 128,-1,29
 873.5 290 873.5 290 873.5 272 c 0,30,31
 873.5 255 873.5 255 857.5 240 c 128,-1,32
 841.5 225 841.5 225 814 214 c 128,-1,33
 786.5 203 786.5 203 749 196 c 128,-1,34
 711.5 189 711.5 189 667.5 189 c 0,35,36
 624.5 189 624.5 189 587 196 c 128,-1,37
 549.5 203 549.5 203 521.5 214 c 128,-1,38
 493.5 225 493.5 225 478 240 c 128,-1,39
 462.5 255 462.5 255 462.5 272 c 0,20,21
462.5 461 m 256,40,41
 462.5 478 462.5 478 478 493.5 c 128,-1,42
 493.5 509 493.5 509 521.5 520 c 128,-1,43
 549.5 531 549.5 531 587 537.5 c 128,-1,44
 624.5 544 624.5 544 667.5 544 c 0,45,46
 711.5 544 711.5 544 749 537.5 c 128,-1,47
 786.5 531 786.5 531 814 520 c 128,-1,48
 841.5 509 841.5 509 857.5 493.5 c 128,-1,49
 873.5 478 873.5 478 873.5 461 c 256,50,51
 873.5 444 873.5 444 857.5 429 c 128,-1,52
 841.5 414 841.5 414 814 402.5 c 128,-1,53
 786.5 391 786.5 391 749 384.5 c 128,-1,54
 711.5 378 711.5 378 667.5 378 c 0,55,56
 624.5 378 624.5 378 587 384.5 c 128,-1,57
 549.5 391 549.5 391 521.5 402.5 c 128,-1,58
 493.5 414 493.5 414 478 429 c 128,-1,59
 462.5 444 462.5 444 462.5 461 c 256,40,41
542.5 461 m 256,60,61
 542.5 450 542.5 450 552 440.5 c 128,-1,62
 561.5 431 561.5 431 578.5 424 c 128,-1,63
 595.5 417 595.5 417 618.5 413 c 128,-1,64
 641.5 409 641.5 409 667.5 409 c 0,65,66
 694.5 409 694.5 409 717 413 c 128,-1,67
 739.5 417 739.5 417 756.5 424 c 128,-1,68
 773.5 431 773.5 431 783 440.5 c 128,-1,69
 792.5 450 792.5 450 792.5 461 c 256,70,71
 792.5 472 792.5 472 783 481.5 c 128,-1,72
 773.5 491 773.5 491 756.5 498 c 128,-1,73
 739.5 505 739.5 505 717 509 c 128,-1,74
 694.5 513 694.5 513 667.5 513 c 0,75,76
 641.5 513 641.5 513 618.5 509 c 128,-1,77
 595.5 505 595.5 505 578.5 498 c 128,-1,78
 561.5 491 561.5 491 552 481.5 c 128,-1,79
 542.5 472 542.5 472 542.5 461 c 256,60,61
462.5 648 m 256,80,81
 462.5 665 462.5 665 478 680.5 c 128,-1,82
 493.5 696 493.5 696 521.5 707 c 128,-1,83
 549.5 718 549.5 718 587 724.5 c 128,-1,84
 624.5 731 624.5 731 667.5 731 c 0,85,86
 711.5 731 711.5 731 749 724.5 c 128,-1,87
 786.5 718 786.5 718 814 707 c 128,-1,88
 841.5 696 841.5 696 857.5 680.5 c 128,-1,89
 873.5 665 873.5 665 873.5 648 c 256,90,91
 873.5 631 873.5 631 857.5 616 c 128,-1,92
 841.5 601 841.5 601 814 589.5 c 128,-1,93
 786.5 578 786.5 578 749 571.5 c 128,-1,94
 711.5 565 711.5 565 667.5 565 c 0,95,96
 624.5 565 624.5 565 587 571.5 c 128,-1,97
 549.5 578 549.5 578 521.5 589.5 c 128,-1,98
 493.5 601 493.5 601 478 616 c 128,-1,99
 462.5 631 462.5 631 462.5 648 c 256,80,81
EndSplineSet
EndChar

StartChar: uni008C
Encoding: 140 140 109
Width: 1336
Flags: W
LayerCount: 2
Fore
SplineSet
462.5 85 m 0,0,1
 462.5 103 462.5 103 478 118 c 128,-1,2
 493.5 133 493.5 133 521.5 144.5 c 128,-1,3
 549.5 156 549.5 156 587 162.5 c 128,-1,4
 624.5 169 624.5 169 667.5 169 c 0,5,6
 711.5 169 711.5 169 749 162.5 c 128,-1,7
 786.5 156 786.5 156 814 144.5 c 128,-1,8
 841.5 133 841.5 133 857.5 118 c 128,-1,9
 873.5 103 873.5 103 873.5 85 c 0,10,11
 873.5 68 873.5 68 857.5 53 c 128,-1,12
 841.5 38 841.5 38 814 27 c 128,-1,13
 786.5 16 786.5 16 749 9.5 c 128,-1,14
 711.5 3 711.5 3 667.5 3 c 0,15,16
 624.5 3 624.5 3 587 9.5 c 128,-1,17
 549.5 16 549.5 16 521.5 27 c 128,-1,18
 493.5 38 493.5 38 478 53 c 128,-1,19
 462.5 68 462.5 68 462.5 85 c 0,0,1
542.5 85 m 256,20,21
 542.5 74 542.5 74 552 64.5 c 128,-1,22
 561.5 55 561.5 55 578.5 48.5 c 128,-1,23
 595.5 42 595.5 42 618.5 38 c 128,-1,24
 641.5 34 641.5 34 667.5 34 c 0,25,26
 694.5 34 694.5 34 717 38 c 128,-1,27
 739.5 42 739.5 42 756.5 48.5 c 128,-1,28
 773.5 55 773.5 55 783 64.5 c 128,-1,29
 792.5 74 792.5 74 792.5 85 c 256,30,31
 792.5 96 792.5 96 783 105.5 c 128,-1,32
 773.5 115 773.5 115 756.5 122 c 128,-1,33
 739.5 129 739.5 129 717 133 c 128,-1,34
 694.5 137 694.5 137 667.5 137 c 0,35,36
 641.5 137 641.5 137 618.5 133 c 128,-1,37
 595.5 129 595.5 129 578.5 122 c 128,-1,38
 561.5 115 561.5 115 552 105.5 c 128,-1,39
 542.5 96 542.5 96 542.5 85 c 256,20,21
462.5 272 m 0,40,41
 462.5 290 462.5 290 478 305 c 128,-1,42
 493.5 320 493.5 320 521.5 331.5 c 128,-1,43
 549.5 343 549.5 343 587 349 c 128,-1,44
 624.5 355 624.5 355 667.5 355 c 0,45,46
 711.5 355 711.5 355 749 349 c 128,-1,47
 786.5 343 786.5 343 814 331.5 c 128,-1,48
 841.5 320 841.5 320 857.5 305 c 128,-1,49
 873.5 290 873.5 290 873.5 272 c 0,50,51
 873.5 255 873.5 255 857.5 240 c 128,-1,52
 841.5 225 841.5 225 814 214 c 128,-1,53
 786.5 203 786.5 203 749 196 c 128,-1,54
 711.5 189 711.5 189 667.5 189 c 0,55,56
 624.5 189 624.5 189 587 196 c 128,-1,57
 549.5 203 549.5 203 521.5 214 c 128,-1,58
 493.5 225 493.5 225 478 240 c 128,-1,59
 462.5 255 462.5 255 462.5 272 c 0,40,41
542.5 272 m 256,60,61
 542.5 261 542.5 261 552 251.5 c 128,-1,62
 561.5 242 561.5 242 578.5 235 c 128,-1,63
 595.5 228 595.5 228 618.5 224 c 128,-1,64
 641.5 220 641.5 220 667.5 220 c 0,65,66
 694.5 220 694.5 220 717 224 c 128,-1,67
 739.5 228 739.5 228 756.5 235 c 128,-1,68
 773.5 242 773.5 242 783 251.5 c 128,-1,69
 792.5 261 792.5 261 792.5 272 c 256,70,71
 792.5 283 792.5 283 783 292.5 c 128,-1,72
 773.5 302 773.5 302 756.5 309 c 128,-1,73
 739.5 316 739.5 316 717 320 c 128,-1,74
 694.5 324 694.5 324 667.5 324 c 0,75,76
 641.5 324 641.5 324 618.5 320 c 128,-1,77
 595.5 316 595.5 316 578.5 309 c 128,-1,78
 561.5 302 561.5 302 552 292.5 c 128,-1,79
 542.5 283 542.5 283 542.5 272 c 256,60,61
462.5 461 m 256,80,81
 462.5 478 462.5 478 478 493.5 c 128,-1,82
 493.5 509 493.5 509 521.5 520 c 128,-1,83
 549.5 531 549.5 531 587 537.5 c 128,-1,84
 624.5 544 624.5 544 667.5 544 c 0,85,86
 711.5 544 711.5 544 749 537.5 c 128,-1,87
 786.5 531 786.5 531 814 520 c 128,-1,88
 841.5 509 841.5 509 857.5 493.5 c 128,-1,89
 873.5 478 873.5 478 873.5 461 c 256,90,91
 873.5 444 873.5 444 857.5 429 c 128,-1,92
 841.5 414 841.5 414 814 402.5 c 128,-1,93
 786.5 391 786.5 391 749 384.5 c 128,-1,94
 711.5 378 711.5 378 667.5 378 c 0,95,96
 624.5 378 624.5 378 587 384.5 c 128,-1,97
 549.5 391 549.5 391 521.5 402.5 c 128,-1,98
 493.5 414 493.5 414 478 429 c 128,-1,99
 462.5 444 462.5 444 462.5 461 c 256,80,81
462.5 648 m 256,100,101
 462.5 665 462.5 665 478 680.5 c 128,-1,102
 493.5 696 493.5 696 521.5 707 c 128,-1,103
 549.5 718 549.5 718 587 724.5 c 128,-1,104
 624.5 731 624.5 731 667.5 731 c 0,105,106
 711.5 731 711.5 731 749 724.5 c 128,-1,107
 786.5 718 786.5 718 814 707 c 128,-1,108
 841.5 696 841.5 696 857.5 680.5 c 128,-1,109
 873.5 665 873.5 665 873.5 648 c 256,110,111
 873.5 631 873.5 631 857.5 616 c 128,-1,112
 841.5 601 841.5 601 814 589.5 c 128,-1,113
 786.5 578 786.5 578 749 571.5 c 128,-1,114
 711.5 565 711.5 565 667.5 565 c 0,115,116
 624.5 565 624.5 565 587 571.5 c 128,-1,117
 549.5 578 549.5 578 521.5 589.5 c 128,-1,118
 493.5 601 493.5 601 478 616 c 128,-1,119
 462.5 631 462.5 631 462.5 648 c 256,100,101
EndSplineSet
EndChar

StartChar: uni008D
Encoding: 141 141 110
Width: 1336
Flags: W
LayerCount: 2
Fore
SplineSet
462.5 85 m 0,0,1
 462.5 103 462.5 103 478 118 c 128,-1,2
 493.5 133 493.5 133 521.5 144.5 c 128,-1,3
 549.5 156 549.5 156 587 162.5 c 128,-1,4
 624.5 169 624.5 169 667.5 169 c 0,5,6
 711.5 169 711.5 169 749 162.5 c 128,-1,7
 786.5 156 786.5 156 814 144.5 c 128,-1,8
 841.5 133 841.5 133 857.5 118 c 128,-1,9
 873.5 103 873.5 103 873.5 85 c 0,10,11
 873.5 68 873.5 68 857.5 53 c 128,-1,12
 841.5 38 841.5 38 814 27 c 128,-1,13
 786.5 16 786.5 16 749 9.5 c 128,-1,14
 711.5 3 711.5 3 667.5 3 c 0,15,16
 624.5 3 624.5 3 587 9.5 c 128,-1,17
 549.5 16 549.5 16 521.5 27 c 128,-1,18
 493.5 38 493.5 38 478 53 c 128,-1,19
 462.5 68 462.5 68 462.5 85 c 0,0,1
462.5 272 m 0,20,21
 462.5 290 462.5 290 478 305 c 128,-1,22
 493.5 320 493.5 320 521.5 331.5 c 128,-1,23
 549.5 343 549.5 343 587 349 c 128,-1,24
 624.5 355 624.5 355 667.5 355 c 0,25,26
 711.5 355 711.5 355 749 349 c 128,-1,27
 786.5 343 786.5 343 814 331.5 c 128,-1,28
 841.5 320 841.5 320 857.5 305 c 128,-1,29
 873.5 290 873.5 290 873.5 272 c 0,30,31
 873.5 255 873.5 255 857.5 240 c 128,-1,32
 841.5 225 841.5 225 814 214 c 128,-1,33
 786.5 203 786.5 203 749 196 c 128,-1,34
 711.5 189 711.5 189 667.5 189 c 0,35,36
 624.5 189 624.5 189 587 196 c 128,-1,37
 549.5 203 549.5 203 521.5 214 c 128,-1,38
 493.5 225 493.5 225 478 240 c 128,-1,39
 462.5 255 462.5 255 462.5 272 c 0,20,21
542.5 272 m 256,40,41
 542.5 261 542.5 261 552 251.5 c 128,-1,42
 561.5 242 561.5 242 578.5 235 c 128,-1,43
 595.5 228 595.5 228 618.5 224 c 128,-1,44
 641.5 220 641.5 220 667.5 220 c 0,45,46
 694.5 220 694.5 220 717 224 c 128,-1,47
 739.5 228 739.5 228 756.5 235 c 128,-1,48
 773.5 242 773.5 242 783 251.5 c 128,-1,49
 792.5 261 792.5 261 792.5 272 c 256,50,51
 792.5 283 792.5 283 783 292.5 c 128,-1,52
 773.5 302 773.5 302 756.5 309 c 128,-1,53
 739.5 316 739.5 316 717 320 c 128,-1,54
 694.5 324 694.5 324 667.5 324 c 0,55,56
 641.5 324 641.5 324 618.5 320 c 128,-1,57
 595.5 316 595.5 316 578.5 309 c 128,-1,58
 561.5 302 561.5 302 552 292.5 c 128,-1,59
 542.5 283 542.5 283 542.5 272 c 256,40,41
462.5 461 m 256,60,61
 462.5 478 462.5 478 478 493.5 c 128,-1,62
 493.5 509 493.5 509 521.5 520 c 128,-1,63
 549.5 531 549.5 531 587 537.5 c 128,-1,64
 624.5 544 624.5 544 667.5 544 c 0,65,66
 711.5 544 711.5 544 749 537.5 c 128,-1,67
 786.5 531 786.5 531 814 520 c 128,-1,68
 841.5 509 841.5 509 857.5 493.5 c 128,-1,69
 873.5 478 873.5 478 873.5 461 c 256,70,71
 873.5 444 873.5 444 857.5 429 c 128,-1,72
 841.5 414 841.5 414 814 402.5 c 128,-1,73
 786.5 391 786.5 391 749 384.5 c 128,-1,74
 711.5 378 711.5 378 667.5 378 c 0,75,76
 624.5 378 624.5 378 587 384.5 c 128,-1,77
 549.5 391 549.5 391 521.5 402.5 c 128,-1,78
 493.5 414 493.5 414 478 429 c 128,-1,79
 462.5 444 462.5 444 462.5 461 c 256,60,61
462.5 648 m 256,80,81
 462.5 665 462.5 665 478 680.5 c 128,-1,82
 493.5 696 493.5 696 521.5 707 c 128,-1,83
 549.5 718 549.5 718 587 724.5 c 128,-1,84
 624.5 731 624.5 731 667.5 731 c 0,85,86
 711.5 731 711.5 731 749 724.5 c 128,-1,87
 786.5 718 786.5 718 814 707 c 128,-1,88
 841.5 696 841.5 696 857.5 680.5 c 128,-1,89
 873.5 665 873.5 665 873.5 648 c 256,90,91
 873.5 631 873.5 631 857.5 616 c 128,-1,92
 841.5 601 841.5 601 814 589.5 c 128,-1,93
 786.5 578 786.5 578 749 571.5 c 128,-1,94
 711.5 565 711.5 565 667.5 565 c 0,95,96
 624.5 565 624.5 565 587 571.5 c 128,-1,97
 549.5 578 549.5 578 521.5 589.5 c 128,-1,98
 493.5 601 493.5 601 478 616 c 128,-1,99
 462.5 631 462.5 631 462.5 648 c 256,80,81
EndSplineSet
EndChar

StartChar: uni008E
Encoding: 142 142 111
Width: 1336
Flags: W
LayerCount: 2
Fore
SplineSet
462.5 85 m 0,0,1
 462.5 103 462.5 103 478 118 c 128,-1,2
 493.5 133 493.5 133 521.5 144.5 c 128,-1,3
 549.5 156 549.5 156 587 162.5 c 128,-1,4
 624.5 169 624.5 169 667.5 169 c 0,5,6
 711.5 169 711.5 169 749 162.5 c 128,-1,7
 786.5 156 786.5 156 814 144.5 c 128,-1,8
 841.5 133 841.5 133 857.5 118 c 128,-1,9
 873.5 103 873.5 103 873.5 85 c 0,10,11
 873.5 68 873.5 68 857.5 53 c 128,-1,12
 841.5 38 841.5 38 814 27 c 128,-1,13
 786.5 16 786.5 16 749 9.5 c 128,-1,14
 711.5 3 711.5 3 667.5 3 c 0,15,16
 624.5 3 624.5 3 587 9.5 c 128,-1,17
 549.5 16 549.5 16 521.5 27 c 128,-1,18
 493.5 38 493.5 38 478 53 c 128,-1,19
 462.5 68 462.5 68 462.5 85 c 0,0,1
542.5 85 m 256,20,21
 542.5 74 542.5 74 552 64.5 c 128,-1,22
 561.5 55 561.5 55 578.5 48.5 c 128,-1,23
 595.5 42 595.5 42 618.5 38 c 128,-1,24
 641.5 34 641.5 34 667.5 34 c 0,25,26
 694.5 34 694.5 34 717 38 c 128,-1,27
 739.5 42 739.5 42 756.5 48.5 c 128,-1,28
 773.5 55 773.5 55 783 64.5 c 128,-1,29
 792.5 74 792.5 74 792.5 85 c 256,30,31
 792.5 96 792.5 96 783 105.5 c 128,-1,32
 773.5 115 773.5 115 756.5 122 c 128,-1,33
 739.5 129 739.5 129 717 133 c 128,-1,34
 694.5 137 694.5 137 667.5 137 c 0,35,36
 641.5 137 641.5 137 618.5 133 c 128,-1,37
 595.5 129 595.5 129 578.5 122 c 128,-1,38
 561.5 115 561.5 115 552 105.5 c 128,-1,39
 542.5 96 542.5 96 542.5 85 c 256,20,21
462.5 272 m 0,40,41
 462.5 290 462.5 290 478 305 c 128,-1,42
 493.5 320 493.5 320 521.5 331.5 c 128,-1,43
 549.5 343 549.5 343 587 349 c 128,-1,44
 624.5 355 624.5 355 667.5 355 c 0,45,46
 711.5 355 711.5 355 749 349 c 128,-1,47
 786.5 343 786.5 343 814 331.5 c 128,-1,48
 841.5 320 841.5 320 857.5 305 c 128,-1,49
 873.5 290 873.5 290 873.5 272 c 0,50,51
 873.5 255 873.5 255 857.5 240 c 128,-1,52
 841.5 225 841.5 225 814 214 c 128,-1,53
 786.5 203 786.5 203 749 196 c 128,-1,54
 711.5 189 711.5 189 667.5 189 c 0,55,56
 624.5 189 624.5 189 587 196 c 128,-1,57
 549.5 203 549.5 203 521.5 214 c 128,-1,58
 493.5 225 493.5 225 478 240 c 128,-1,59
 462.5 255 462.5 255 462.5 272 c 0,40,41
462.5 461 m 256,60,61
 462.5 478 462.5 478 478 493.5 c 128,-1,62
 493.5 509 493.5 509 521.5 520 c 128,-1,63
 549.5 531 549.5 531 587 537.5 c 128,-1,64
 624.5 544 624.5 544 667.5 544 c 0,65,66
 711.5 544 711.5 544 749 537.5 c 128,-1,67
 786.5 531 786.5 531 814 520 c 128,-1,68
 841.5 509 841.5 509 857.5 493.5 c 128,-1,69
 873.5 478 873.5 478 873.5 461 c 256,70,71
 873.5 444 873.5 444 857.5 429 c 128,-1,72
 841.5 414 841.5 414 814 402.5 c 128,-1,73
 786.5 391 786.5 391 749 384.5 c 128,-1,74
 711.5 378 711.5 378 667.5 378 c 0,75,76
 624.5 378 624.5 378 587 384.5 c 128,-1,77
 549.5 391 549.5 391 521.5 402.5 c 128,-1,78
 493.5 414 493.5 414 478 429 c 128,-1,79
 462.5 444 462.5 444 462.5 461 c 256,60,61
462.5 648 m 256,80,81
 462.5 665 462.5 665 478 680.5 c 128,-1,82
 493.5 696 493.5 696 521.5 707 c 128,-1,83
 549.5 718 549.5 718 587 724.5 c 128,-1,84
 624.5 731 624.5 731 667.5 731 c 0,85,86
 711.5 731 711.5 731 749 724.5 c 128,-1,87
 786.5 718 786.5 718 814 707 c 128,-1,88
 841.5 696 841.5 696 857.5 680.5 c 128,-1,89
 873.5 665 873.5 665 873.5 648 c 256,90,91
 873.5 631 873.5 631 857.5 616 c 128,-1,92
 841.5 601 841.5 601 814 589.5 c 128,-1,93
 786.5 578 786.5 578 749 571.5 c 128,-1,94
 711.5 565 711.5 565 667.5 565 c 0,95,96
 624.5 565 624.5 565 587 571.5 c 128,-1,97
 549.5 578 549.5 578 521.5 589.5 c 128,-1,98
 493.5 601 493.5 601 478 616 c 128,-1,99
 462.5 631 462.5 631 462.5 648 c 256,80,81
EndSplineSet
EndChar

StartChar: uni008F
Encoding: 143 143 112
Width: 1336
Flags: W
LayerCount: 2
Fore
SplineSet
462.5 85 m 0,0,1
 462.5 103 462.5 103 478 118 c 128,-1,2
 493.5 133 493.5 133 521.5 144.5 c 128,-1,3
 549.5 156 549.5 156 587 162.5 c 128,-1,4
 624.5 169 624.5 169 667.5 169 c 0,5,6
 711.5 169 711.5 169 749 162.5 c 128,-1,7
 786.5 156 786.5 156 814 144.5 c 128,-1,8
 841.5 133 841.5 133 857.5 118 c 128,-1,9
 873.5 103 873.5 103 873.5 85 c 0,10,11
 873.5 68 873.5 68 857.5 53 c 128,-1,12
 841.5 38 841.5 38 814 27 c 128,-1,13
 786.5 16 786.5 16 749 9.5 c 128,-1,14
 711.5 3 711.5 3 667.5 3 c 0,15,16
 624.5 3 624.5 3 587 9.5 c 128,-1,17
 549.5 16 549.5 16 521.5 27 c 128,-1,18
 493.5 38 493.5 38 478 53 c 128,-1,19
 462.5 68 462.5 68 462.5 85 c 0,0,1
462.5 272 m 0,20,21
 462.5 290 462.5 290 478 305 c 128,-1,22
 493.5 320 493.5 320 521.5 331.5 c 128,-1,23
 549.5 343 549.5 343 587 349 c 128,-1,24
 624.5 355 624.5 355 667.5 355 c 0,25,26
 711.5 355 711.5 355 749 349 c 128,-1,27
 786.5 343 786.5 343 814 331.5 c 128,-1,28
 841.5 320 841.5 320 857.5 305 c 128,-1,29
 873.5 290 873.5 290 873.5 272 c 0,30,31
 873.5 255 873.5 255 857.5 240 c 128,-1,32
 841.5 225 841.5 225 814 214 c 128,-1,33
 786.5 203 786.5 203 749 196 c 128,-1,34
 711.5 189 711.5 189 667.5 189 c 0,35,36
 624.5 189 624.5 189 587 196 c 128,-1,37
 549.5 203 549.5 203 521.5 214 c 128,-1,38
 493.5 225 493.5 225 478 240 c 128,-1,39
 462.5 255 462.5 255 462.5 272 c 0,20,21
462.5 461 m 256,40,41
 462.5 478 462.5 478 478 493.5 c 128,-1,42
 493.5 509 493.5 509 521.5 520 c 128,-1,43
 549.5 531 549.5 531 587 537.5 c 128,-1,44
 624.5 544 624.5 544 667.5 544 c 0,45,46
 711.5 544 711.5 544 749 537.5 c 128,-1,47
 786.5 531 786.5 531 814 520 c 128,-1,48
 841.5 509 841.5 509 857.5 493.5 c 128,-1,49
 873.5 478 873.5 478 873.5 461 c 256,50,51
 873.5 444 873.5 444 857.5 429 c 128,-1,52
 841.5 414 841.5 414 814 402.5 c 128,-1,53
 786.5 391 786.5 391 749 384.5 c 128,-1,54
 711.5 378 711.5 378 667.5 378 c 0,55,56
 624.5 378 624.5 378 587 384.5 c 128,-1,57
 549.5 391 549.5 391 521.5 402.5 c 128,-1,58
 493.5 414 493.5 414 478 429 c 128,-1,59
 462.5 444 462.5 444 462.5 461 c 256,40,41
462.5 648 m 256,60,61
 462.5 665 462.5 665 478 680.5 c 128,-1,62
 493.5 696 493.5 696 521.5 707 c 128,-1,63
 549.5 718 549.5 718 587 724.5 c 128,-1,64
 624.5 731 624.5 731 667.5 731 c 0,65,66
 711.5 731 711.5 731 749 724.5 c 128,-1,67
 786.5 718 786.5 718 814 707 c 128,-1,68
 841.5 696 841.5 696 857.5 680.5 c 128,-1,69
 873.5 665 873.5 665 873.5 648 c 256,70,71
 873.5 631 873.5 631 857.5 616 c 128,-1,72
 841.5 601 841.5 601 814 589.5 c 128,-1,73
 786.5 578 786.5 578 749 571.5 c 128,-1,74
 711.5 565 711.5 565 667.5 565 c 0,75,76
 624.5 565 624.5 565 587 571.5 c 128,-1,77
 549.5 578 549.5 578 521.5 589.5 c 128,-1,78
 493.5 601 493.5 601 478 616 c 128,-1,79
 462.5 631 462.5 631 462.5 648 c 256,60,61
EndSplineSet
EndChar

StartChar: uni0090
Encoding: 144 144 113
Width: 1336
Flags: W
LayerCount: 2
Fore
SplineSet
905 345 m 0,0,1
 905 261 905 261 892 195 c 128,-1,2
 879 129 879 129 850.5 82.5 c 128,-1,3
 822 36 822 36 776.5 12 c 128,-1,4
 731 -12 731 -12 667 -12 c 0,5,6
 587 -12 587 -12 534.5 30.5 c 128,-1,7
 482 73 482 73 456.5 153 c 128,-1,8
 431 233 431 233 431 345 c 0,9,10
 431 458 431 458 454.5 537.5 c 128,-1,11
 478 617 478 617 530 659.5 c 128,-1,12
 582 702 582 702 667 702 c 0,13,14
 747 702 747 702 800 660 c 128,-1,15
 853 618 853 618 879 538 c 128,-1,16
 905 458 905 458 905 345 c 0,0,1
519 345 m 0,17,18
 519 251 519 251 533.5 188.5 c 128,-1,19
 548 126 548 126 580.5 94.5 c 128,-1,20
 613 63 613 63 667 63 c 256,21,22
 721 63 721 63 753.5 94 c 128,-1,23
 786 125 786 125 801 188 c 128,-1,24
 816 251 816 251 816 345 c 0,25,26
 816 440 816 440 801 502.5 c 128,-1,27
 786 565 786 565 753.5 596 c 128,-1,28
 721 627 721 627 667 627 c 256,29,30
 613 627 613 627 580.5 596 c 128,-1,31
 548 565 548 565 533.5 502.5 c 128,-1,32
 519 440 519 440 519 345 c 0,17,18
EndSplineSet
EndChar

StartChar: uni0091
Encoding: 145 145 114
Width: 1336
Flags: W
LayerCount: 2
Fore
SplineSet
801 0 m 1,0,-1
 715 0 l 1,1,-1
 715 482 l 2,2,3
 715 511 715 511 715.5 531.5 c 128,-1,4
 716 552 716 552 717 569 c 128,-1,5
 718 586 718 586 719 605 c 1,6,7
 703 589 703 589 690 578 c 128,-1,8
 677 567 677 567 657 550 c 2,9,-1
 581 488 l 1,10,-1
 535 547 l 1,11,-1
 728 697 l 1,12,-1
 801 697 l 1,13,-1
 801 0 l 1,0,-1
EndSplineSet
EndChar

StartChar: uni0092
Encoding: 146 146 115
Width: 1336
Flags: W
LayerCount: 2
Fore
SplineSet
904 0 m 1,0,-1
 432 0 l 1,1,-1
 432 73 l 1,2,-1
 597 234 l 2,3,4
 662 297 662 297 703.5 342.5 c 128,-1,5
 745 388 745 388 765 428 c 128,-1,6
 785 468 785 468 785 511 c 0,7,8
 785 549 785 549 770 575 c 128,-1,9
 755 601 755 601 727 614 c 128,-1,10
 699 627 699 627 659 627 c 0,11,12
 607 627 607 627 567.5 609 c 128,-1,13
 528 591 528 591 487 559 c 1,14,-1
 440 618 l 1,15,16
 468 642 468 642 501.5 661 c 128,-1,17
 535 680 535 680 574.5 691 c 128,-1,18
 614 702 614 702 660 702 c 0,19,20
 728 702 728 702 776 680 c 128,-1,21
 824 658 824 658 849.5 617 c 128,-1,22
 875 576 875 576 875 519 c 0,23,24
 875 464 875 464 855 417.5 c 128,-1,25
 835 371 835 371 798.5 327 c 128,-1,26
 762 283 762 283 711 233 c 2,27,-1
 556 84 l 1,28,-1
 556 80 l 1,29,-1
 904 80 l 1,30,-1
 904 0 l 1,0,-1
EndSplineSet
EndChar

StartChar: uni0093
Encoding: 147 147 116
Width: 1336
Flags: W
LayerCount: 2
Fore
SplineSet
881 530 m 0,0,1
 881 484 881 484 863 449.5 c 128,-1,2
 845 415 845 415 811.5 394 c 128,-1,3
 778 373 778 373 733 364 c 1,4,-1
 733 361 l 1,5,6
 819 351 819 351 861 307.5 c 128,-1,7
 903 264 903 264 903 196 c 0,8,9
 903 135 903 135 874 88 c 128,-1,10
 845 41 845 41 784.5 14.5 c 128,-1,11
 724 -12 724 -12 629 -12 c 0,12,13
 573 -12 573 -12 525 -3.5 c 128,-1,14
 477 5 477 5 433 27 c 1,15,-1
 433 109 l 1,16,17
 478 87 478 87 530 74.5 c 128,-1,18
 582 62 582 62 630 62 c 0,19,20
 726 62 726 62 768.5 98 c 128,-1,21
 811 134 811 134 811 198 c 0,22,23
 811 241 811 241 787.5 267.5 c 128,-1,24
 764 294 764 294 719 306.5 c 128,-1,25
 674 319 674 319 611 319 c 2,26,-1
 542 319 l 1,27,-1
 542 394 l 1,28,-1
 612 394 l 2,29,30
 671 394 671 394 710.5 410 c 128,-1,31
 750 426 750 426 770.5 455 c 128,-1,32
 791 484 791 484 791 523 c 0,33,34
 791 573 791 573 756 600.5 c 128,-1,35
 721 628 721 628 661 628 c 0,36,37
 603 628 603 628 562 611 c 128,-1,38
 521 594 521 594 481 568 c 1,39,-1
 437 628 l 1,40,41
 475 658 475 658 531.5 680 c 128,-1,42
 588 702 588 702 660 702 c 0,43,44
 772 702 772 702 826.5 653 c 128,-1,45
 881 604 881 604 881 530 c 0,0,1
EndSplineSet
EndChar

StartChar: uni0094
Encoding: 148 148 117
Width: 1336
Flags: W
LayerCount: 2
Fore
SplineSet
933.5 157 m 1,0,-1
 829.5 157 l 1,1,-1
 829.5 0 l 1,2,-1
 744.5 0 l 1,3,-1
 744.5 157 l 1,4,-1
 402.5 157 l 1,5,-1
 402.5 231 l 1,6,-1
 738.5 695 l 1,7,-1
 829.5 695 l 1,8,-1
 829.5 236 l 1,9,-1
 933.5 236 l 1,10,-1
 933.5 157 l 1,0,-1
744.5 236 m 1,11,-1
 744.5 443 l 2,12,13
 744.5 496 744.5 496 746.5 533 c 128,-1,14
 748.5 570 748.5 570 749.5 603 c 1,15,-1
 745.5 603 l 1,16,17
 737.5 584 737.5 584 723.5 561.5 c 128,-1,18
 709.5 539 709.5 539 698.5 524 c 2,19,-1
 488.5 236 l 1,20,-1
 744.5 236 l 1,11,-1
EndSplineSet
EndChar

StartChar: uni0095
Encoding: 149 149 118
Width: 1336
Flags: W
LayerCount: 2
Fore
SplineSet
627 -12 m 0,0,1
 572 -12 572 -12 523.5 -2 c 128,-1,2
 475 8 475 8 442 27 c 1,3,-1
 442 110 l 1,4,5
 478 88 478 88 529.5 75.5 c 128,-1,6
 581 63 581 63 628 63 c 0,7,8
 681 63 681 63 720.5 79 c 128,-1,9
 760 95 760 95 782 128 c 128,-1,10
 804 161 804 161 804 212 c 0,11,12
 804 280 804 280 761 316.5 c 128,-1,13
 718 353 718 353 625 353 c 0,14,15
 597 353 597 353 561 348 c 128,-1,16
 525 343 525 343 503 338 c 1,17,-1
 459 366 l 1,18,-1
 485 690 l 1,19,-1
 844 690 l 1,20,-1
 844 610 l 1,21,-1
 561 610 l 1,22,-1
 544 416 l 1,23,24
 561 419 561 419 590 423 c 128,-1,25
 619 427 619 427 654 427 c 0,26,27
 727 427 727 427 781 402.5 c 128,-1,28
 835 378 835 378 864.5 332 c 128,-1,29
 894 286 894 286 894 221 c 0,30,31
 894 149 894 149 862 96.5 c 128,-1,32
 830 44 830 44 770.5 16 c 128,-1,33
 711 -12 711 -12 627 -12 c 0,0,1
EndSplineSet
EndChar

StartChar: uni0096
Encoding: 150 150 119
Width: 1336
Flags: W
LayerCount: 2
Fore
SplineSet
433 295 m 0,0,1
 433 355 433 355 441.5 413.5 c 128,-1,2
 450 472 450 472 471 524 c 128,-1,3
 492 576 492 576 529 616 c 128,-1,4
 566 656 566 656 622.5 679 c 128,-1,5
 679 702 679 702 760 702 c 0,6,7
 781 702 781 702 806.5 700 c 128,-1,8
 832 698 832 698 848 693 c 1,9,-1
 848 619 l 1,10,11
 830 624 830 624 807.5 627 c 128,-1,12
 785 630 785 630 762 630 c 0,13,14
 693 630 693 630 647 608 c 128,-1,15
 601 586 601 586 574.5 547.5 c 128,-1,16
 548 509 548 509 536 459 c 128,-1,17
 524 409 524 409 521 353 c 1,18,-1
 527 353 l 1,19,20
 542 377 542 377 565 396 c 128,-1,21
 588 415 588 415 620.5 426 c 128,-1,22
 653 437 653 437 696 437 c 0,23,24
 758 437 758 437 804.5 412 c 128,-1,25
 851 387 851 387 877 339.5 c 128,-1,26
 903 292 903 292 903 224 c 0,27,28
 903 151 903 151 875 98.5 c 128,-1,29
 847 46 847 46 796.5 17.5 c 128,-1,30
 746 -11 746 -11 676 -11 c 0,31,32
 625 -11 625 -11 581 7.5 c 128,-1,33
 537 26 537 26 503.5 63.5 c 128,-1,34
 470 101 470 101 451.5 159 c 128,-1,35
 433 217 433 217 433 295 c 0,0,1
675 63 m 0,36,37
 738 63 738 63 777 102.5 c 128,-1,38
 816 142 816 142 816 224 c 0,39,40
 816 291 816 291 781.5 329.5 c 128,-1,41
 747 368 747 368 678 368 c 0,42,43
 631 368 631 368 596 349 c 128,-1,44
 561 330 561 330 541.5 301 c 128,-1,45
 522 272 522 272 522 241 c 0,46,47
 522 209 522 209 531.5 177.5 c 128,-1,48
 541 146 541 146 560.5 120 c 128,-1,49
 580 94 580 94 608.5 78.5 c 128,-1,50
 637 63 637 63 675 63 c 0,36,37
EndSplineSet
EndChar

StartChar: uni0097
Encoding: 151 151 120
Width: 1336
Flags: W
LayerCount: 2
Fore
SplineSet
526.5 0 m 1,0,-1
 813.5 610 l 1,1,-1
 428.5 610 l 1,2,-1
 428.5 690 l 1,3,-1
 907.5 690 l 1,4,-1
 907.5 623 l 1,5,-1
 622.5 0 l 1,6,-1
 526.5 0 l 1,0,-1
EndSplineSet
EndChar

StartChar: uni0098
Encoding: 152 152 121
Width: 1336
Flags: W
LayerCount: 2
Fore
SplineSet
667.5 702 m 0,0,1
 730.5 702 730.5 702 778.5 683 c 128,-1,2
 826.5 664 826.5 664 854 627 c 128,-1,3
 881.5 590 881.5 590 881.5 536 c 0,4,5
 881.5 495 881.5 495 863 463.5 c 128,-1,6
 844.5 432 844.5 432 813.5 408.5 c 128,-1,7
 782.5 385 782.5 385 745.5 366 c 1,8,9
 789.5 345 789.5 345 825.5 319.5 c 128,-1,10
 861.5 294 861.5 294 883 260 c 128,-1,11
 904.5 226 904.5 226 904.5 178 c 0,12,13
 904.5 120 904.5 120 875.5 77 c 128,-1,14
 846.5 34 846.5 34 794 11 c 128,-1,15
 741.5 -12 741.5 -12 670.5 -12 c 0,16,17
 593.5 -12 593.5 -12 540 10 c 128,-1,18
 486.5 32 486.5 32 459 74 c 128,-1,19
 431.5 116 431.5 116 431.5 175 c 0,20,21
 431.5 223 431.5 223 452 258 c 128,-1,22
 472.5 293 472.5 293 506.5 318.5 c 128,-1,23
 540.5 344 540.5 344 579.5 361 c 1,24,25
 544.5 381 544.5 381 516 405 c 128,-1,26
 487.5 429 487.5 429 471 461.5 c 128,-1,27
 454.5 494 454.5 494 454.5 537 c 0,28,29
 454.5 590 454.5 590 482.5 627 c 128,-1,30
 510.5 664 510.5 664 558.5 683 c 128,-1,31
 606.5 702 606.5 702 667.5 702 c 0,0,1
517.5 175 m 0,32,33
 517.5 125 517.5 125 554.5 91.5 c 128,-1,34
 591.5 58 591.5 58 668.5 58 c 0,35,36
 741.5 58 741.5 58 780 91.5 c 128,-1,37
 818.5 125 818.5 125 818.5 178 c 0,38,39
 818.5 211 818.5 211 800 236.5 c 128,-1,40
 781.5 262 781.5 262 748 282.5 c 128,-1,41
 714.5 303 714.5 303 668.5 319 c 2,42,-1
 652.5 325 l 1,43,44
 608.5 307 608.5 307 578.5 285.5 c 128,-1,45
 548.5 264 548.5 264 533 237 c 128,-1,46
 517.5 210 517.5 210 517.5 175 c 0,32,33
666.5 631 m 0,47,48
 611.5 631 611.5 631 576 605.5 c 128,-1,49
 540.5 580 540.5 580 540.5 532 c 0,50,51
 540.5 497 540.5 497 558 473 c 128,-1,52
 575.5 449 575.5 449 605.5 432 c 128,-1,53
 635.5 415 635.5 415 671.5 400 c 1,54,55
 706.5 414 706.5 414 734 431.5 c 128,-1,56
 761.5 449 761.5 449 778 473.5 c 128,-1,57
 794.5 498 794.5 498 794.5 532 c 0,58,59
 794.5 580 794.5 580 759.5 605.5 c 128,-1,60
 724.5 631 724.5 631 666.5 631 c 0,47,48
EndSplineSet
EndChar

StartChar: uni0099
Encoding: 153 153 122
Width: 1336
Flags: W
LayerCount: 2
Fore
SplineSet
903 396 m 0,0,1
 903 336 903 336 894.5 277 c 128,-1,2
 886 218 886 218 865 166 c 128,-1,3
 844 114 844 114 807 74 c 128,-1,4
 770 34 770 34 713 11 c 128,-1,5
 656 -12 656 -12 575 -12 c 0,6,7
 555 -12 555 -12 528.5 -9.5 c 128,-1,8
 502 -7 502 -7 485 -2 c 1,9,-1
 485 73 l 1,10,11
 503 67 503 67 527 63.5 c 128,-1,12
 551 60 551 60 573 60 c 0,13,14
 643 60 643 60 688.5 82 c 128,-1,15
 734 104 734 104 761 142 c 128,-1,16
 788 180 788 180 800 230 c 128,-1,17
 812 280 812 280 814 336 c 1,18,-1
 808 336 l 1,19,20
 793 314 793 314 770 295 c 128,-1,21
 747 276 747 276 714.5 264.5 c 128,-1,22
 682 253 682 253 638 253 c 0,23,24
 577 253 577 253 530.5 278 c 128,-1,25
 484 303 484 303 458.5 350.5 c 128,-1,26
 433 398 433 398 433 465 c 0,27,28
 433 538 433 538 461.5 591 c 128,-1,29
 490 644 490 644 541 673 c 128,-1,30
 592 702 592 702 661 702 c 0,31,32
 712 702 712 702 756 683.5 c 128,-1,33
 800 665 800 665 833 627 c 128,-1,34
 866 589 866 589 884.5 531.5 c 128,-1,35
 903 474 903 474 903 396 c 0,0,1
661 628 m 0,36,37
 599 628 599 628 559.5 588.5 c 128,-1,38
 520 549 520 549 520 466 c 0,39,40
 520 400 520 400 553.5 361.5 c 128,-1,41
 587 323 587 323 657 323 c 0,42,43
 705 323 705 323 740 341.5 c 128,-1,44
 775 360 775 360 794.5 389.5 c 128,-1,45
 814 419 814 419 814 450 c 0,46,47
 814 482 814 482 804.5 513 c 128,-1,48
 795 544 795 544 776 570.5 c 128,-1,49
 757 597 757 597 728 612.5 c 128,-1,50
 699 628 699 628 661 628 c 0,36,37
EndSplineSet
EndChar

StartChar: uni009A
Encoding: 154 154 123
Width: 1336
Flags: W
LayerCount: 2
Fore
SplineSet
718.5 723 m 0,0,1
 773.5 723 773.5 723 817.5 711 c 128,-1,2
 861.5 699 861.5 699 895.5 682 c 1,3,-1
 864.5 612 l 1,4,5
 834.5 626 834.5 626 798 638 c 128,-1,6
 761.5 650 761.5 650 720.5 650 c 0,7,8
 663.5 650 663.5 650 633.5 620.5 c 128,-1,9
 603.5 591 603.5 591 603.5 525 c 2,10,-1
 603.5 386 l 1,11,-1
 807.5 386 l 1,12,-1
 807.5 320 l 1,13,-1
 603.5 320 l 1,14,-1
 603.5 216 l 2,15,16
 603.5 176 603.5 176 594 149.5 c 128,-1,17
 584.5 123 584.5 123 569 107 c 128,-1,18
 553.5 91 553.5 91 535.5 80 c 1,19,-1
 919.5 80 l 1,20,-1
 919.5 0 l 1,21,-1
 416.5 0 l 1,22,-1
 416.5 74 l 1,23,24
 445.5 81 445.5 81 467.5 97.5 c 128,-1,25
 489.5 114 489.5 114 502.5 142.5 c 128,-1,26
 515.5 171 515.5 171 515.5 215 c 2,27,-1
 515.5 320 l 1,28,-1
 419.5 320 l 1,29,-1
 419.5 386 l 1,30,-1
 515.5 386 l 1,31,-1
 515.5 534 l 2,32,33
 515.5 594 515.5 594 540.5 636 c 128,-1,34
 565.5 678 565.5 678 611.5 700.5 c 128,-1,35
 657.5 723 657.5 723 718.5 723 c 0,0,1
EndSplineSet
EndChar

StartChar: uni009B
Encoding: 155 155 124
Width: 1336
Flags: W
LayerCount: 2
Fore
SplineSet
617.5 -8 m 4,0,1
 562.5 -8 562.5 -8 518.5 4 c 132,-1,2
 474.5 16 474.5 16 440.5 33 c 5,3,-1
 471.5 103 l 5,4,5
 501.5 89 501.5 89 538 77 c 132,-1,6
 574.5 65 574.5 65 615.5 65 c 4,7,8
 672.5 65 672.5 65 702.5 94.5 c 132,-1,9
 732.5 124 732.5 124 732.5 190 c 6,10,-1
 732.5 329 l 5,11,-1
 528.5 329 l 5,12,-1
 528.5 395 l 5,13,-1
 732.5 395 l 5,14,-1
 732.5 499 l 6,15,16
 732.5 539 732.5 539 742 565.5 c 132,-1,17
 751.5 592 751.5 592 767 608 c 132,-1,18
 782.5 624 782.5 624 800.5 635 c 5,19,-1
 416.5 635 l 5,20,-1
 416.5 715 l 5,21,-1
 919.5 715 l 5,22,-1
 919.5 641 l 5,23,24
 890.5 634 890.5 634 868.5 617.5 c 132,-1,25
 846.5 601 846.5 601 833.5 572.5 c 132,-1,26
 820.5 544 820.5 544 820.5 500 c 6,27,-1
 820.5 395 l 5,28,-1
 916.5 395 l 5,29,-1
 916.5 329 l 5,30,-1
 820.5 329 l 5,31,-1
 820.5 181 l 6,32,33
 820.5 121 820.5 121 795.5 79 c 132,-1,34
 770.5 37 770.5 37 724.5 14.5 c 132,-1,35
 678.5 -8 678.5 -8 617.5 -8 c 4,0,1
EndSplineSet
EndChar

StartChar: uni009C
Encoding: 156 156 125
Width: 1336
Flags: W
LayerCount: 2
Fore
SplineSet
854.5 617 m 0,0,1
 854.5 583 854.5 583 840.5 557.5 c 128,-1,2
 826.5 532 826.5 532 805.5 512.5 c 128,-1,3
 784.5 493 784.5 493 763.5 477 c 128,-1,4
 742.5 461 742.5 461 728.5 445.5 c 128,-1,5
 714.5 430 714.5 430 714.5 412 c 0,6,7
 714.5 399 714.5 399 721 388 c 128,-1,8
 727.5 377 727.5 377 746.5 362.5 c 128,-1,9
 765.5 348 765.5 348 802.5 323 c 0,10,11
 838.5 299 838.5 299 864.5 275 c 128,-1,12
 890.5 251 890.5 251 904.5 222 c 128,-1,13
 918.5 193 918.5 193 918.5 153 c 0,14,15
 918.5 96 918.5 96 895 60 c 128,-1,16
 871.5 24 871.5 24 829.5 7 c 128,-1,17
 787.5 -10 787.5 -10 732.5 -10 c 0,18,19
 685.5 -10 685.5 -10 649.5 -1 c 128,-1,20
 613.5 8 613.5 8 587.5 24 c 1,21,-1
 587.5 103 l 1,22,23
 604.5 93 604.5 93 627.5 83 c 128,-1,24
 650.5 73 650.5 73 677 67 c 128,-1,25
 703.5 61 703.5 61 729.5 61 c 0,26,27
 784.5 61 784.5 61 808.5 84 c 128,-1,28
 832.5 107 832.5 107 832.5 147 c 0,29,30
 832.5 171 832.5 171 824 189.5 c 128,-1,31
 815.5 208 815.5 208 795 226 c 128,-1,32
 774.5 244 774.5 244 738.5 267 c 0,33,34
 696.5 294 696.5 294 673 315.5 c 128,-1,35
 649.5 337 649.5 337 639.5 359 c 128,-1,36
 629.5 381 629.5 381 629.5 407 c 0,37,38
 629.5 438 629.5 438 643 460 c 128,-1,39
 656.5 482 656.5 482 677 498.5 c 128,-1,40
 697.5 515 697.5 515 718 531 c 128,-1,41
 738.5 547 738.5 547 752 566 c 128,-1,42
 765.5 585 765.5 585 765.5 612 c 0,43,44
 765.5 654 765.5 654 730 673 c 128,-1,45
 694.5 692 694.5 692 638.5 692 c 0,46,47
 603.5 692 603.5 692 573 682.5 c 128,-1,48
 542.5 673 542.5 673 524 650 c 128,-1,49
 505.5 627 505.5 627 505.5 584 c 2,50,-1
 505.5 0 l 1,51,-1
 417.5 0 l 1,52,-1
 417.5 584 l 2,53,54
 417.5 651 417.5 651 446.5 690.5 c 128,-1,55
 475.5 730 475.5 730 525.5 747.5 c 128,-1,56
 575.5 765 575.5 765 638.5 765 c 0,57,58
 703.5 765 703.5 765 752 748.5 c 128,-1,59
 800.5 732 800.5 732 827.5 699.5 c 128,-1,60
 854.5 667 854.5 667 854.5 617 c 0,0,1
EndSplineSet
EndChar

StartChar: uni009D
Encoding: 157 157 126
Width: 1336
Flags: W
LayerCount: 2
Fore
SplineSet
524 -10 m 0,0,1
 462 -10 462 -10 419.5 24 c 128,-1,2
 377 58 377 58 355 119 c 128,-1,3
 333 180 333 180 333 260 c 0,4,5
 333 322 333 322 344.5 467 c 128,-1,6
 356 612 356 612 375 652 c 5,7,-1
 261 652 l 5,8,-1
 261 725 l 5,9,-1
 1075 725 l 5,10,-1
 1075 652 l 5,11,-1
 961 652 l 5,12,13
 981 612 981 612 992 467 c 128,-1,14
 1003 322 1003 322 1003 260 c 0,15,16
 1003 180 1003 180 981 119 c 128,-1,17
 959 58 959 58 916.5 24 c 128,-1,18
 874 -10 874 -10 812 -10 c 0,19,20
 757 -10 757 -10 722 15.5 c 128,-1,21
 687 41 687 41 670 100 c 1,22,-1
 665 100 l 1,23,24
 655 61 655 61 636 36.5 c 128,-1,25
 617 12 617 12 589 1 c 128,-1,26
 561 -10 561 -10 524 -10 c 0,0,1
530 63 m 0,27,28
 563 63 563 63 584.5 80 c 128,-1,29
 606 97 606 97 616 126.5 c 128,-1,30
 626 156 626 156 626 193 c 2,31,-1
 626 344 l 1,32,-1
 710 344 l 1,33,-1
 710 193 l 2,34,35
 710 152 710 152 721.5 122.5 c 128,-1,36
 733 93 733 93 754 78 c 128,-1,37
 775 63 775 63 805 63 c 0,38,39
 839 63 839 63 863.5 85 c 128,-1,40
 888 107 888 107 901.5 151 c 128,-1,41
 915 195 915 195 915 259 c 0,42,43
 915 322 915 322 904 467 c 128,-1,44
 893 612 893 612 873 652 c 5,45,-1
 464 652 l 5,46,47
 445 612 445 612 433 467 c 128,-1,48
 421 322 421 322 421 259 c 0,49,50
 421 162 421 162 451 112.5 c 128,-1,51
 481 63 481 63 530 63 c 0,27,28
EndSplineSet
EndChar

StartChar: uni009E
Encoding: 158 158 127
Width: 1336
Flags: W
LayerCount: 2
Fore
SplineSet
867.5 0 m 1,0,-1
 468.5 0 l 1,1,-1
 468.5 714 l 1,2,-1
 867.5 714 l 1,3,-1
 867.5 635 l 1,4,-1
 558.5 635 l 1,5,-1
 558.5 412 l 1,6,-1
 849.5 412 l 1,7,-1
 849.5 334 l 1,8,-1
 558.5 334 l 1,9,-1
 558.5 79 l 1,10,-1
 867.5 79 l 1,11,-1
 867.5 0 l 1,0,-1
EndSplineSet
EndChar

StartChar: uni009F
Encoding: 159 159 128
Width: 1336
Flags: W
LayerCount: 2
Fore
SplineSet
558.5 0 m 1,0,-1
 468.5 0 l 1,1,-1
 468.5 714 l 1,2,-1
 867.5 714 l 1,3,-1
 867.5 635 l 1,4,-1
 558.5 635 l 1,5,-1
 558.5 382 l 1,6,-1
 848.5 382 l 1,7,-1
 848.5 303 l 1,8,-1
 558.5 303 l 1,9,-1
 558.5 0 l 1,0,-1
EndSplineSet
EndChar

